<svg xmlns="http://www.w3.org/2000/svg" xmlns:xlink="http://www.w3.org/1999/xlink" width="500" zoomAndPan="magnify" viewBox="0 0 375 118.499997" height="158" preserveAspectRatio="xMidYMid meet" version="1.0"><defs><g/></defs><g fill="rgb(100%, 100%, 100%)" fill-opacity="1"><g transform="translate(113.966759, 83.783404)"><g><path d="M 56.449219 -61.132812 C 55.460938 -63.203125 53.207031 -65.183594 50.957031 -65.453125 C 48.707031 -65.8125 48.976562 -64.644531 48.347656 -63.203125 L 41.773438 -48.4375 L 38.082031 -39.792969 C 37.273438 -37.902344 35.832031 -32.589844 34.210938 -31.871094 C 33.042969 -31.421875 30.972656 -31.691406 29.710938 -31.601562 L 25.570312 -31.332031 C 23.136719 -31.0625 20.976562 -30.25 18.546875 -30.25 C 19.265625 -31.601562 19.808594 -33.042969 20.347656 -34.480469 C 21.15625 -36.371094 21.15625 -38.171875 22.058594 -40.0625 C 23.5 -43.214844 24.667969 -46.457031 26.289062 -49.515625 C 27.191406 -51.316406 28 -53.207031 28.808594 -55.007812 C 29.53125 -56.449219 29.710938 -58.070312 30.25 -59.242188 C 30.882812 -60.320312 31.960938 -61.3125 32.410156 -62.390625 C 33.132812 -64.460938 31.0625 -65.992188 29.261719 -66.625 C 27.910156 -67.164062 26.109375 -67.433594 25.207031 -66.171875 C 25.390625 -66.261719 25.027344 -65.003906 25.027344 -65.183594 C 24.757812 -64.550781 24.398438 -63.921875 24.039062 -63.382812 C 20.167969 -56 17.195312 -48.257812 14.046875 -40.515625 C 13.144531 -38.171875 12.152344 -35.832031 11.253906 -33.402344 C 10.804688 -32.320312 10.355469 -31.152344 9.8125 -30.070312 C 9.09375 -28.628906 8.554688 -29.082031 6.933594 -28.628906 C 6.210938 -28.449219 4.773438 -28.179688 4.410156 -27.371094 C 3.601562 -25.570312 6.300781 -24.308594 7.5625 -23.949219 C 5.492188 -17.105469 2.972656 -10.445312 1.082031 -3.511719 C 0.628906 -1.800781 -0.269531 0.269531 0.0898438 2.160156 C 0.359375 4.140625 3.332031 7.382812 5.582031 6.933594 C 7.742188 6.480469 7.832031 2.339844 8.371094 0.539062 C 9.183594 -2.519531 10.171875 -5.582031 11.164062 -8.644531 C 11.972656 -11.34375 13.144531 -14.046875 13.683594 -16.835938 L 14.316406 -19.355469 C 14.765625 -20.617188 15.214844 -22.867188 16.027344 -23.859375 C 17.105469 -25.117188 20.527344 -25.390625 22.328125 -25.570312 C 24.21875 -25.839844 26.109375 -26.109375 28 -26.289062 C 29.800781 -26.378906 31.152344 -27.097656 32.773438 -27.371094 C 30.519531 -22.328125 28.988281 -16.925781 26.828125 -11.882812 C 25.300781 -8.28125 23.859375 -4.683594 22.597656 -0.898438 C 21.609375 2.160156 20.347656 5.402344 19.71875 8.554688 C 19.355469 10.445312 20.167969 12.152344 21.878906 13.234375 C 25.839844 15.664062 26.917969 12.0625 28 9.003906 C 29.980469 3.242188 32.320312 -2.429688 34.480469 -8.101562 C 35.472656 -10.894531 36.011719 -13.414062 37.273438 -16.117188 L 40.246094 -23.316406 C 40.964844 -24.9375 42.042969 -28.089844 43.574219 -28.898438 C 44.566406 -29.351562 45.105469 -29.53125 45.824219 -29.710938 C 47.175781 -30.070312 48.707031 -29.890625 50.148438 -30.25 C 50.6875 -30.339844 52.398438 -30.609375 52.667969 -31.511719 C 52.847656 -32.320312 52.308594 -32.410156 51.769531 -32.589844 C 51.5 -32.679688 51.316406 -32.140625 51.316406 -32.140625 C 50.957031 -32.050781 50.597656 -32.230469 50.238281 -32.140625 C 48.4375 -31.960938 46.277344 -32.320312 44.476562 -32.320312 C 45.105469 -34.933594 46.546875 -37.273438 47.808594 -39.792969 L 52.128906 -48.347656 L 54.289062 -52.488281 C 54.828125 -53.660156 54.917969 -54.738281 55.28125 -55.730469 C 56.089844 -57.53125 57.621094 -58.609375 56.449219 -61.132812 Z M 17.195312 -32.863281 C 15.84375 -29.710938 14.585938 -26.558594 13.414062 -23.410156 C 14.765625 -27.460938 16.027344 -31.332031 17.554688 -35.382812 C 19.085938 -39.433594 21.609375 -43.125 23.410156 -46.996094 Z M 27.910156 3.421875 C 27.640625 3.960938 27.371094 4.410156 27.191406 4.953125 C 27.371094 3.960938 27.371094 2.972656 27.730469 1.980469 C 28 0.898438 28.988281 0 29.53125 -0.992188 C 29.082031 0.539062 28.71875 1.980469 27.910156 3.421875 Z M 23.769531 -47.808594 L 23.589844 -47.355469 C 23.589844 -47.535156 23.679688 -47.625 23.769531 -47.808594 Z M 23.769531 -47.808594 "/></g></g></g><g fill="rgb(100%, 100%, 100%)" fill-opacity="1"><g transform="translate(161.503419, 83.783404)"><g><path d="M 23.589844 -22.148438 C 23.410156 -23.316406 22.148438 -22.957031 21.515625 -22.507812 C 20.707031 -21.96875 16.207031 -16.027344 16.566406 -15.574219 C 16.835938 -15.574219 17.015625 -15.574219 17.195312 -15.753906 C 15.9375 -14.226562 13.59375 -12.515625 11.882812 -11.164062 C 10.894531 -10.355469 8.464844 -8.101562 7.023438 -8.824219 C 3.960938 -10.355469 10.171875 -21.15625 9.902344 -21.246094 C 9.632812 -21.335938 7.382812 -16.296875 6.933594 -15.125 C 8.011719 -18.277344 9.453125 -21.425781 11.164062 -24.21875 C 11.074219 -23.949219 10.804688 -23.5 10.984375 -23.5 C 11.164062 -23.410156 12.515625 -25.300781 12.246094 -25.480469 C 12.152344 -25.480469 11.972656 -25.480469 11.882812 -25.390625 C 12.152344 -25.660156 12.605469 -25.75 12.605469 -26.289062 C 12.605469 -27.191406 10.535156 -28.089844 9.8125 -28.359375 C 8.101562 -29.082031 6.390625 -29.261719 5.042969 -28.359375 C 3.242188 -27.28125 2.882812 -25.117188 2.160156 -23.226562 C 1.980469 -22.6875 0.269531 -16.296875 0.628906 -16.207031 C 0.808594 -16.296875 0.808594 -16.386719 0.898438 -16.566406 L 0.628906 -14.945312 C 0.539062 -14.945312 0.71875 -15.394531 0.539062 -15.394531 C -0.179688 -15.394531 0 -12.152344 0.0898438 -11.703125 C 0.449219 -10.082031 1.710938 -8.914062 2.699219 -7.5625 C 3.242188 -6.753906 3.78125 -5.941406 4.589844 -5.402344 C 5.671875 -4.589844 4.953125 -5.402344 5.671875 -5.042969 L 5.492188 -5.042969 C 5.402344 -4.5 8.824219 -3.601562 9.542969 -3.691406 C 12.695312 -4.410156 14.945312 -8.28125 16.746094 -10.714844 C 18.457031 -12.875 19.898438 -15.035156 21.425781 -17.285156 C 22.328125 -18.457031 23.949219 -20.4375 23.589844 -22.148438 Z M 7.832031 -33.492188 C 8.011719 -33.222656 7.742188 -32.863281 8.371094 -32.5 C 9.003906 -32.230469 9.363281 -32.589844 9.902344 -32.773438 C 10.984375 -33.222656 11.792969 -34.390625 12.605469 -35.113281 C 12.875 -35.292969 12.335938 -35.203125 12.335938 -35.203125 C 13.503906 -36.28125 12.515625 -35.023438 13.59375 -35.652344 C 14.675781 -36.371094 14.855469 -37.542969 15.753906 -38.535156 C 14.675781 -38.082031 13.863281 -37.453125 13.144531 -36.554688 C 12.246094 -35.382812 11.613281 -34.84375 10.625 -34.210938 C 11.703125 -35.023438 12.246094 -35.832031 13.144531 -37.273438 C 13.414062 -37.542969 13.683594 -37.722656 14.046875 -37.902344 C 13.773438 -38.171875 13.773438 -38.445312 14.136719 -38.714844 C 14.40625 -39.164062 14.945312 -39.34375 15.214844 -39.792969 C 15.664062 -40.425781 15.574219 -41.234375 16.117188 -41.863281 C 16.566406 -42.226562 17.195312 -42.496094 17.554688 -42.855469 C 18.367188 -43.574219 19.265625 -44.925781 18.90625 -46.097656 C 18.546875 -47.175781 17.644531 -48.527344 16.65625 -49.15625 C 15.484375 -49.789062 13.863281 -50.058594 12.605469 -49.515625 C 12.335938 -49.425781 11.253906 -49.15625 11.613281 -48.796875 C 11.703125 -48.617188 11.792969 -48.617188 11.972656 -48.617188 C 11.164062 -47.988281 9.8125 -46.90625 11.703125 -46.1875 C 11.523438 -46.007812 11.703125 -45.195312 11.703125 -45.105469 C 11.613281 -44.476562 10.355469 -41.144531 9.542969 -39.523438 L 10.625 -41.144531 C 9.992188 -39.792969 9.273438 -38.535156 8.464844 -37.453125 C 9.003906 -38.625 7.921875 -37.273438 7.921875 -37.003906 C 6.933594 -37.453125 7.203125 -34.664062 7.292969 -34.390625 C 7.292969 -34.300781 7.832031 -33.492188 7.832031 -33.492188 Z M 6.121094 -12.0625 L 6.121094 -11.972656 L 5.941406 -11.433594 L 6.121094 -12.152344 C 6.210938 -12.246094 6.210938 -12.246094 6.121094 -12.0625 Z M 9.09375 -38.804688 C 9.09375 -38.804688 9.273438 -38.984375 9.453125 -39.34375 Z M 8.191406 -37.09375 C 8.191406 -37.003906 8.191406 -37.003906 8.101562 -36.914062 C 8.101562 -36.914062 8.101562 -37.003906 8.011719 -37.003906 C 8.101562 -37.003906 8.101562 -37.003906 8.191406 -37.09375 Z M 8.191406 -37.09375 "/></g></g></g><g fill="rgb(100%, 100%, 100%)" fill-opacity="1"><g transform="translate(178.519375, 83.783404)"><g><path d="M 23.589844 -22.148438 C 23.410156 -23.316406 22.148438 -22.957031 21.515625 -22.507812 C 20.707031 -21.96875 16.207031 -16.027344 16.566406 -15.574219 C 16.835938 -15.574219 17.015625 -15.574219 17.195312 -15.753906 C 15.9375 -14.226562 13.59375 -12.515625 11.882812 -11.164062 C 10.894531 -10.355469 8.464844 -8.101562 7.023438 -8.824219 C 3.960938 -10.355469 10.171875 -21.15625 9.902344 -21.246094 C 9.632812 -21.335938 7.382812 -16.296875 6.933594 -15.125 C 8.011719 -18.277344 9.453125 -21.425781 11.164062 -24.21875 C 11.074219 -23.949219 10.804688 -23.5 10.984375 -23.5 C 11.164062 -23.410156 12.515625 -25.300781 12.246094 -25.480469 C 12.152344 -25.480469 11.972656 -25.480469 11.882812 -25.390625 C 12.152344 -25.660156 12.605469 -25.75 12.605469 -26.289062 C 12.605469 -27.191406 10.535156 -28.089844 9.8125 -28.359375 C 8.101562 -29.082031 6.390625 -29.261719 5.042969 -28.359375 C 3.242188 -27.28125 2.882812 -25.117188 2.160156 -23.226562 C 1.980469 -22.6875 0.269531 -16.296875 0.628906 -16.207031 C 0.808594 -16.296875 0.808594 -16.386719 0.898438 -16.566406 L 0.628906 -14.945312 C 0.539062 -14.945312 0.71875 -15.394531 0.539062 -15.394531 C -0.179688 -15.394531 0 -12.152344 0.0898438 -11.703125 C 0.449219 -10.082031 1.710938 -8.914062 2.699219 -7.5625 C 3.242188 -6.753906 3.78125 -5.941406 4.589844 -5.402344 C 5.671875 -4.589844 4.953125 -5.402344 5.671875 -5.042969 L 5.492188 -5.042969 C 5.402344 -4.5 8.824219 -3.601562 9.542969 -3.691406 C 12.695312 -4.410156 14.945312 -8.28125 16.746094 -10.714844 C 18.457031 -12.875 19.898438 -15.035156 21.425781 -17.285156 C 22.328125 -18.457031 23.949219 -20.4375 23.589844 -22.148438 Z M 7.832031 -33.492188 C 8.011719 -33.222656 7.742188 -32.863281 8.371094 -32.5 C 9.003906 -32.230469 9.363281 -32.589844 9.902344 -32.773438 C 10.984375 -33.222656 11.792969 -34.390625 12.605469 -35.113281 C 12.875 -35.292969 12.335938 -35.203125 12.335938 -35.203125 C 13.503906 -36.28125 12.515625 -35.023438 13.59375 -35.652344 C 14.675781 -36.371094 14.855469 -37.542969 15.753906 -38.535156 C 14.675781 -38.082031 13.863281 -37.453125 13.144531 -36.554688 C 12.246094 -35.382812 11.613281 -34.84375 10.625 -34.210938 C 11.703125 -35.023438 12.246094 -35.832031 13.144531 -37.273438 C 13.414062 -37.542969 13.683594 -37.722656 14.046875 -37.902344 C 13.773438 -38.171875 13.773438 -38.445312 14.136719 -38.714844 C 14.40625 -39.164062 14.945312 -39.34375 15.214844 -39.792969 C 15.664062 -40.425781 15.574219 -41.234375 16.117188 -41.863281 C 16.566406 -42.226562 17.195312 -42.496094 17.554688 -42.855469 C 18.367188 -43.574219 19.265625 -44.925781 18.90625 -46.097656 C 18.546875 -47.175781 17.644531 -48.527344 16.65625 -49.15625 C 15.484375 -49.789062 13.863281 -50.058594 12.605469 -49.515625 C 12.335938 -49.425781 11.253906 -49.15625 11.613281 -48.796875 C 11.703125 -48.617188 11.792969 -48.617188 11.972656 -48.617188 C 11.164062 -47.988281 9.8125 -46.90625 11.703125 -46.1875 C 11.523438 -46.007812 11.703125 -45.195312 11.703125 -45.105469 C 11.613281 -44.476562 10.355469 -41.144531 9.542969 -39.523438 L 10.625 -41.144531 C 9.992188 -39.792969 9.273438 -38.535156 8.464844 -37.453125 C 9.003906 -38.625 7.921875 -37.273438 7.921875 -37.003906 C 6.933594 -37.453125 7.203125 -34.664062 7.292969 -34.390625 C 7.292969 -34.300781 7.832031 -33.492188 7.832031 -33.492188 Z M 6.121094 -12.0625 L 6.121094 -11.972656 L 5.941406 -11.433594 L 6.121094 -12.152344 C 6.210938 -12.246094 6.210938 -12.246094 6.121094 -12.0625 Z M 9.09375 -38.804688 C 9.09375 -38.804688 9.273438 -38.984375 9.453125 -39.34375 Z M 8.191406 -37.09375 C 8.191406 -37.003906 8.191406 -37.003906 8.101562 -36.914062 C 8.101562 -36.914062 8.101562 -37.003906 8.011719 -37.003906 C 8.101562 -37.003906 8.101562 -37.003906 8.191406 -37.09375 Z M 8.191406 -37.09375 "/></g></g></g><g fill="rgb(100%, 100%, 100%)" fill-opacity="1"><g transform="translate(195.535332, 83.783404)"><g><path d="M 36.554688 -46.816406 C 36.460938 -48.078125 35.113281 -47.085938 34.390625 -47.085938 C 30.789062 -46.90625 27.191406 -46.90625 23.679688 -46.726562 C 23.679688 -46.816406 23.859375 -47.175781 24.128906 -47.71875 C 23.769531 -47.085938 23.5 -46.726562 23.226562 -46.726562 C 25.929688 -52.21875 28.808594 -57.710938 32.230469 -62.753906 C 32.140625 -62.570312 30.789062 -60.320312 30.882812 -60.320312 C 31.152344 -60.230469 34.480469 -64.824219 34.570312 -65.453125 C 34.570312 -65.8125 33.761719 -64.914062 33.761719 -65.003906 C 34.300781 -65.542969 35.203125 -65.992188 35.472656 -66.714844 C 36.101562 -68.515625 34.210938 -69.324219 32.863281 -69.59375 C 30.070312 -70.132812 26.917969 -69.773438 25.117188 -67.433594 C 23.410156 -65.363281 22.148438 -62.933594 21.066406 -60.5 C 20.527344 -59.421875 19.808594 -59.152344 19.085938 -58.160156 C 18.007812 -56.628906 17.285156 -54.828125 16.476562 -53.117188 C 15.753906 -51.589844 15.035156 -49.96875 14.40625 -48.347656 C 14.046875 -47.535156 14.046875 -46.90625 13.234375 -46.636719 C 12.425781 -46.277344 10.894531 -46.546875 9.992188 -46.457031 C 6.480469 -46.007812 3.0625 -46.1875 -0.449219 -45.824219 C -2.25 -45.734375 -4.050781 -45.734375 -5.761719 -45.105469 C -6.121094 -45.015625 -8.101562 -44.566406 -8.28125 -44.296875 C -8.824219 -43.304688 -6.664062 -43.214844 -6.210938 -43.125 C -2.789062 -42.675781 1.53125 -42.316406 4.953125 -42.945312 C 7.292969 -43.394531 9.722656 -43.214844 12.246094 -43.394531 C 10.984375 -40.695312 9.992188 -37.8125 9.003906 -34.933594 L 7.921875 -31.78125 C 7.5625 -30.789062 6.390625 -28.898438 6.390625 -27.820312 C 6.390625 -27.640625 6.664062 -28.089844 6.84375 -28.539062 C 6.390625 -27.191406 5.851562 -25.839844 5.492188 -24.488281 C 5.492188 -24.578125 5.761719 -25.660156 5.671875 -25.660156 C 5.222656 -25.660156 3.421875 -20.167969 3.242188 -19.71875 C 2.339844 -17.015625 1.351562 -14.316406 0.898438 -11.433594 C 0.359375 -8.554688 -0.359375 -5.761719 -0.992188 -2.972656 C -1.351562 -1.53125 -1.710938 -0.179688 -1.890625 1.261719 C -2.070312 1.980469 -2.25 2.789062 -2.25 3.511719 C -2.25 3.691406 -2.25 4.863281 -2.070312 4.5 L -2.25 6.300781 L -2.25 4.953125 C -2.789062 5.582031 -2.25 8.464844 -2.160156 9.003906 C -1.800781 10.804688 -0.898438 12.425781 0.71875 13.503906 C 2.160156 14.585938 4.410156 15.574219 6.121094 14.765625 C 8.371094 13.683594 10.261719 11.164062 11.703125 9.363281 C 14.855469 5.671875 17.734375 1.800781 20.617188 -2.070312 C 23.226562 -5.671875 25.929688 -9.183594 28.179688 -12.964844 C 29.441406 -15.125 31.871094 -17.105469 32.679688 -19.535156 C 33.132812 -20.707031 32.863281 -22.148438 31.421875 -21.878906 C 30.25 -21.609375 28.628906 -18.457031 27.910156 -17.554688 C 24.667969 -13.503906 21.609375 -9.363281 18.367188 -5.3125 L 13.144531 1.082031 C 12.335938 1.980469 11.523438 2.972656 10.625 3.871094 C 10.261719 4.320312 8.011719 6.121094 8.101562 6.664062 C 8.101562 6.84375 9.09375 6.03125 9.453125 5.761719 C 9.003906 6.300781 8.464844 6.753906 8.011719 7.203125 C 8.101562 7.113281 6.210938 8.191406 5.941406 8.011719 C 4.230469 7.292969 5.761719 2.070312 6.03125 0.808594 C 7.652344 -6.480469 10.082031 -13.863281 12.515625 -20.886719 C 13.953125 -24.757812 15.394531 -28.449219 17.015625 -32.230469 C 17.828125 -34.121094 18.636719 -36.101562 19.535156 -37.992188 L 20.796875 -41.414062 L 19.808594 -39.433594 C 20.4375 -41.054688 21.335938 -43.484375 21.878906 -43.574219 L 21.609375 -43.035156 C 21.789062 -43.304688 21.96875 -43.484375 22.148438 -43.574219 C 23.136719 -44.207031 25.660156 -43.574219 26.828125 -43.574219 C 27.640625 -43.574219 28.628906 -43.484375 29.441406 -43.753906 C 29.980469 -43.933594 29.800781 -44.207031 30.429688 -44.386719 C 31.511719 -44.566406 32.863281 -43.84375 34.03125 -44.207031 C 35.113281 -44.476562 36.644531 -45.464844 36.554688 -46.726562 Z M 19.445312 -41.59375 C 15.394531 -33.042969 12.335938 -23.859375 9.09375 -14.945312 C 7.5625 -10.894531 6.121094 -6.664062 5.132812 -2.429688 L 4.683594 -0.71875 C 5.3125 -3.960938 6.03125 -7.113281 6.933594 -10.261719 C 8.914062 -17.195312 11.433594 -24.039062 14.40625 -30.609375 C 19.445312 -41.863281 23.949219 -53.929688 31.152344 -64.101562 C 26.289062 -57.171875 23.046875 -49.246094 19.445312 -41.59375 Z M 25.390625 -50.507812 L 27.550781 -54.648438 C 27.097656 -54.558594 26.289062 -52.578125 25.390625 -50.507812 Z M 16.117188 -30.882812 C 15.484375 -29.171875 14.765625 -27.550781 14.046875 -25.929688 C 14.765625 -27.640625 15.394531 -29.441406 16.207031 -31.242188 C 16.117188 -31.0625 16.117188 -30.972656 16.117188 -30.882812 Z M 24.21875 -47.898438 L 25.117188 -49.878906 C 24.847656 -49.15625 24.488281 -48.4375 24.21875 -47.898438 Z M 4.589844 8.824219 C 4.5 8.824219 4.410156 8.734375 4.320312 8.644531 Z M 4.589844 8.824219 "/></g></g></g><g fill="rgb(100%, 100%, 100%)" fill-opacity="1"><g transform="translate(223.175009, 83.783404)"><g><path d="M 30.519531 -61.132812 L 30.519531 -61.222656 C 30.070312 -65.003906 24.398438 -65.902344 21.789062 -63.652344 C 20.4375 -62.480469 20.617188 -61.3125 20.617188 -59.871094 C 20.527344 -57.351562 19.71875 -54.738281 19.355469 -52.21875 C 17.554688 -42.40625 15.484375 -32.589844 13.144531 -22.957031 C 12.605469 -20.707031 11.792969 -18.546875 11.253906 -16.296875 C 10.894531 -14.585938 9.273438 -9.992188 10.714844 -8.554688 C 12.964844 -6.210938 15.035156 -13.683594 15.574219 -15.035156 C 18.277344 -22.507812 20.078125 -30.25 22.597656 -37.722656 C 24.128906 -42.316406 25.570312 -46.90625 27.28125 -51.40625 C 28.179688 -53.75 29.171875 -56.089844 29.980469 -58.429688 C 30.25 -59.332031 30.429688 -60.140625 30.519531 -61.132812 Z M 13.683594 -0.898438 C 13.683594 -1.53125 14.226562 -2.339844 13.683594 -3.0625 C 13.234375 -3.601562 13.234375 -3.242188 12.785156 -3.332031 C 10.984375 -4.050781 9.273438 -3.601562 7.652344 -2.789062 C 5.582031 -1.710938 2.25 1.980469 3.511719 4.683594 C 3.871094 5.402344 5.492188 6.84375 6.121094 7.113281 C 7.832031 8.011719 8.734375 6.84375 9.8125 5.851562 C 11.074219 4.683594 11.972656 4.230469 12.605469 2.789062 C 12.785156 2.429688 14.945312 -0.898438 13.683594 -0.898438 Z M 20.347656 -42.316406 L 20.347656 -42.226562 C 20.167969 -39.523438 19.71875 -37.003906 19.175781 -34.300781 C 18.726562 -31.871094 17.285156 -29.621094 16.65625 -27.371094 C 17.015625 -28.808594 17.464844 -29.800781 17.644531 -31.511719 C 17.828125 -33.3125 18.367188 -35.203125 18.996094 -37.003906 C 19.535156 -38.714844 19.988281 -40.515625 20.347656 -42.316406 Z M 16.566406 -27.007812 C 16.566406 -27.097656 16.566406 -27.191406 16.65625 -27.371094 C 16.566406 -27.191406 16.566406 -27.097656 16.566406 -27.007812 Z M 16.566406 -27.007812 "/></g></g></g></svg>