<svg xmlns="http://www.w3.org/2000/svg" xmlns:xlink="http://www.w3.org/1999/xlink" width="500" zoomAndPan="magnify" viewBox="0 0 375 118.499997" height="158" preserveAspectRatio="xMidYMid meet" version="1.0"><defs><g/></defs><g fill="rgb(100%, 100%, 100%)" fill-opacity="1"><g transform="translate(80.810164, 83.783404)"><g><path d="M 8.464844 -7.203125 L 8.371094 -7.113281 C 8.464844 -7.203125 8.464844 -7.203125 8.464844 -7.292969 L 8.464844 -7.742188 C 9.453125 -13.054688 11.34375 -18.277344 13.234375 -23.410156 C 15.214844 -28.808594 17.105469 -34.121094 19.625 -39.253906 C 21.96875 -44.117188 24.667969 -48.886719 27.730469 -53.296875 C 30.429688 -57.351562 33.671875 -61.761719 37.8125 -64.460938 C 39.074219 -64.824219 40.335938 -66.171875 41.953125 -65.902344 C 43.574219 -65.632812 43.574219 -63.921875 43.214844 -62.300781 C 43.664062 -63.5625 43.933594 -64.914062 42.855469 -65.8125 C 41.414062 -66.894531 38.625 -65.183594 37.453125 -64.371094 C 36.914062 -64.191406 36.371094 -63.832031 35.921875 -63.472656 C 36.191406 -63.742188 36.554688 -64.011719 37.003906 -64.28125 L 36.554688 -64.101562 L 37.8125 -64.824219 C 39.253906 -65.632812 42.496094 -67.433594 43.574219 -65.09375 C 44.386719 -63.203125 43.125 -60.050781 42.496094 -58.25 C 41.324219 -55.1875 39.882812 -52.308594 38.351562 -49.425781 C 38.625 -50.058594 39.703125 -52.488281 39.703125 -52.488281 C 39.074219 -52.578125 36.191406 -45.917969 35.652344 -45.734375 L 35.742188 -45.734375 C 35.382812 -45.464844 35.113281 -45.195312 35.113281 -45.105469 C 34.933594 -44.027344 36.191406 -44.296875 36.914062 -44.386719 C 39.972656 -44.746094 43.933594 -47.355469 45.917969 -49.609375 C 48.078125 -52.039062 48.886719 -55.730469 48.886719 -58.972656 L 48.886719 -59.0625 C 48.796875 -65.183594 44.566406 -72.925781 37.273438 -72.476562 C 33.222656 -72.296875 29.441406 -68.335938 26.828125 -65.632812 C 24.9375 -63.472656 23.136719 -61.132812 21.515625 -58.789062 C 20.796875 -57.710938 20.078125 -56.71875 19.445312 -55.640625 C 18.726562 -54.648438 17.285156 -53.117188 16.925781 -51.949219 C 16.925781 -51.949219 17.375 -52.488281 17.734375 -52.847656 C 16.746094 -51.316406 15.84375 -49.699219 14.945312 -48.167969 C 14.855469 -48.257812 15.484375 -49.515625 15.484375 -49.515625 C 14.675781 -49.699219 10.984375 -42.316406 10.535156 -41.503906 C 8.914062 -38.535156 7.472656 -35.5625 6.480469 -32.410156 C 5.402344 -28.898438 3.960938 -25.570312 2.882812 -22.148438 C 2.339844 -20.4375 1.800781 -18.816406 1.441406 -17.105469 C 1.261719 -16.296875 1.082031 -15.574219 0.992188 -14.765625 C 0.992188 -14.675781 0.808594 -13.234375 0.992188 -13.414062 C 0.808594 -12.785156 0.808594 -11.972656 0.71875 -11.34375 C 0.71875 -11.34375 0.71875 -12.875 0.808594 -13.054688 C 0.449219 -12.605469 0.71875 -10.894531 0.628906 -10.714844 C 0.179688 -7.292969 -0.539062 -3.691406 0.628906 -0.359375 C 2.160156 4.230469 5.941406 8.011719 10.082031 10.445312 C 12.246094 11.792969 15.125 13.324219 17.828125 13.144531 C 20.976562 12.964844 24.039062 10.355469 26.378906 8.464844 C 33.222656 2.699219 39.433594 -5.402344 40.605469 -14.585938 C 40.695312 -15.214844 41.144531 -18.367188 40.0625 -18.457031 C 39.074219 -18.546875 38.351562 -16.386719 37.992188 -15.84375 C 35.292969 -11.433594 32.140625 -7.292969 28.628906 -3.511719 C 25.027344 0.449219 20.527344 4.683594 15.035156 5.941406 C 14.316406 6.121094 13.503906 6.210938 12.695312 6.210938 C 11.613281 6.121094 10.625 5.851562 9.8125 5.042969 C 9.363281 4.589844 8.914062 3.0625 8.371094 2.789062 C 8.371094 2.339844 8.28125 1.890625 8.191406 1.621094 L 7.921875 1.082031 C 7.832031 -1.621094 7.921875 -4.140625 8.371094 -6.933594 L 8.371094 -7.023438 C 8.371094 -7.113281 8.464844 -7.113281 8.464844 -7.203125 Z M 24.308594 -51.226562 C 20.796875 -45.464844 17.828125 -39.523438 14.855469 -33.402344 C 13.144531 -29.800781 11.433594 -26.109375 10.082031 -22.238281 C 11.972656 -28.269531 14.226562 -34.03125 16.925781 -39.792969 C 20.167969 -46.726562 24.488281 -53.480469 29.621094 -59.0625 C 27.550781 -56.539062 25.75 -53.660156 24.308594 -51.226562 Z M 33.582031 -61.132812 C 32.320312 -59.871094 31.152344 -58.429688 30.070312 -57.082031 C 31.78125 -59.332031 33.582031 -61.582031 35.832031 -63.382812 C 35.023438 -62.660156 34.210938 -61.761719 33.582031 -61.132812 Z M 42.765625 -60.410156 C 42.945312 -60.953125 43.125 -61.582031 43.214844 -62.300781 C 43.035156 -61.492188 42.675781 -60.679688 42.675781 -60.050781 C 42.765625 -60.230469 42.765625 -60.320312 42.765625 -60.410156 Z M 42.765625 -60.410156 "/></g></g></g><g fill="rgb(100%, 100%, 100%)" fill-opacity="1"><g transform="translate(125.7359, 83.783404)"><g><path d="M 45.824219 -21.699219 C 45.734375 -23.679688 44.117188 -21.96875 43.574219 -21.246094 C 42.40625 -19.535156 41.324219 -17.734375 40.246094 -16.027344 C 37.8125 -12.335938 35.382812 -8.644531 32.589844 -5.132812 C 23.316406 6.300781 29.800781 -14.046875 29.082031 -13.863281 C 28.71875 -13.773438 28.449219 -12.425781 28.359375 -12.152344 C 29.082031 -15.394531 30.429688 -19.265625 32.140625 -22.417969 C 33.132812 -24.398438 34.300781 -26.019531 32.5 -28.179688 C 29.171875 -32.230469 25.300781 -28.539062 23.136719 -25.75 C 22.238281 -29.171875 20.4375 -34.210938 16.027344 -34.210938 C 14.046875 -34.210938 12.875 -33.222656 11.523438 -32.050781 C 10.714844 -31.511719 10.082031 -31.421875 9.363281 -30.789062 C 8.191406 -29.980469 7.382812 -28.71875 6.574219 -27.640625 C 3.511719 -23.136719 1.351562 -17.464844 0.359375 -12.246094 C -0.0898438 -9.722656 -0.269531 -6.933594 0.449219 -4.410156 C 0.898438 -2.972656 2.519531 0.269531 4.589844 0 C 4.683594 0 4.5 -0.0898438 4.230469 -0.269531 C 5.492188 0.0898438 6.933594 -0.0898438 8.011719 -0.808594 C 8.101562 -0.628906 7.023438 -0.179688 7.023438 -0.179688 C 8.011719 1.351562 15.394531 -7.5625 15.9375 -8.371094 C 17.105469 -9.992188 17.917969 -11.703125 18.996094 -13.414062 C 19.808594 -14.675781 21.066406 -16.296875 21.96875 -17.644531 C 21.878906 -17.015625 21.878906 -16.207031 21.878906 -16.207031 C 20.257812 -11.074219 18.726562 -5.492188 20.886719 -0.179688 C 21.878906 2.519531 24.308594 5.042969 27.371094 4.5 C 30.070312 4.050781 32.320312 1.441406 33.941406 -0.628906 C 35.921875 -2.972656 37.632812 -5.582031 39.34375 -8.28125 C 40.785156 -10.714844 42.136719 -13.144531 43.304688 -15.84375 C 44.027344 -17.554688 46.007812 -19.625 45.824219 -21.699219 Z M 19.988281 -21.066406 C 19.535156 -20.4375 19.085938 -19.808594 18.726562 -19.175781 L 16.386719 -15.84375 C 14.855469 -13.59375 13.234375 -11.433594 11.523438 -9.363281 C 11.074219 -8.734375 8.914062 -5.941406 8.011719 -6.210938 C 6.664062 -6.664062 8.101562 -11.34375 8.28125 -12.0625 C 8.554688 -13.324219 13.324219 -27.191406 14.585938 -27.460938 C 12.964844 -27.550781 7.742188 -11.253906 7.472656 -9.902344 C 8.191406 -14.316406 9.8125 -18.636719 11.613281 -22.6875 C 12.605469 -24.757812 14.855469 -30.25 17.828125 -30.25 C 19.445312 -30.25 19.808594 -26.917969 20.078125 -25.839844 C 19.988281 -26.019531 19.175781 -28.628906 19.085938 -28.539062 C 18.636719 -28.179688 20.4375 -23.226562 20.4375 -22.507812 C 20.4375 -21.789062 20.4375 -21.789062 19.988281 -21.066406 Z M 22.058594 -16.65625 C 22.058594 -16.65625 22.328125 -17.917969 22.417969 -18.1875 L 22.867188 -18.816406 Z M 20.707031 -22.238281 L 20.707031 -23.136719 C 20.976562 -22.777344 20.976562 -22.507812 20.707031 -22.238281 Z M 20.707031 -22.238281 "/></g></g></g><g fill="rgb(100%, 100%, 100%)" fill-opacity="1"><g transform="translate(164.989634, 83.783404)"><g><path d="M 36.914062 -21.878906 C 36.371094 -24.21875 34.210938 -21.066406 33.761719 -20.527344 L 28.808594 -13.863281 L 23.949219 -7.472656 L 21.335938 -4.140625 C 21.066406 -3.78125 19.085938 -1.261719 19.265625 -1.261719 C 19.445312 -1.441406 19.71875 -1.441406 19.988281 -1.710938 C 18.636719 -0.269531 13.683594 4.230469 12.785156 3.152344 C 12.0625 2.25 14.046875 -1.53125 14.316406 -2.429688 C 15.304688 -5.042969 16.207031 -7.742188 17.285156 -10.261719 C 18.457031 -12.875 19.808594 -15.484375 20.886719 -18.097656 C 21.96875 -20.886719 20.347656 -21.878906 17.734375 -22.507812 C 16.566406 -22.777344 15.125 -22.777344 13.773438 -22.957031 C 13.773438 -22.867188 13.863281 -22.867188 13.863281 -22.867188 C 15.035156 -22.6875 16.746094 -22.597656 18.1875 -22.148438 C 16.027344 -22.777344 13.324219 -22.507812 11.613281 -22.957031 C 10.445312 -23.226562 9.722656 -23.226562 9.902344 -24.578125 C 10.082031 -26.378906 11.972656 -28.269531 12.605469 -29.980469 C 12.605469 -29.890625 11.972656 -28.269531 12.0625 -28.269531 C 12.515625 -28.089844 13.234375 -30.609375 13.234375 -30.972656 C 13.144531 -31.421875 12.0625 -32.773438 11.972656 -32.230469 L 12.152344 -31.960938 C 7.832031 -34.933594 2.699219 -28.808594 3.601562 -24.398438 C 3.78125 -23.769531 4.140625 -23.410156 4.410156 -22.6875 C 4.589844 -22.148438 4.410156 -21.515625 4.953125 -20.796875 C 6.84375 -18.457031 10.261719 -18.367188 12.964844 -18.90625 C 12.515625 -18.277344 7.742188 -8.191406 8.011719 -8.101562 L 7.382812 -5.851562 C 7.292969 -5.941406 7.652344 -6.664062 7.472656 -6.664062 C 6.84375 -6.753906 5.582031 -1.53125 5.492188 -1.082031 C 5.132812 1.082031 5.222656 2.972656 6.121094 4.953125 C 6.664062 6.210938 7.292969 7.292969 8.464844 8.011719 C 9.542969 8.734375 10.894531 9.09375 12.152344 8.824219 C 12.605469 8.644531 14.316406 7.472656 13.863281 7.5625 L 14.496094 7.292969 C 14.40625 7.382812 14.316406 7.472656 14.316406 7.5625 C 14.585938 7.652344 18.726562 4.320312 19.265625 3.960938 C 22.148438 1.53125 24.488281 -1.441406 26.648438 -4.410156 C 28.808594 -7.472656 31.0625 -10.535156 33.132812 -13.59375 C 34.121094 -15.035156 35.023438 -16.476562 35.742188 -18.007812 C 36.28125 -19.085938 37.183594 -20.617188 36.914062 -21.878906 Z M 9.992188 -11.074219 C 10.625 -12.695312 11.34375 -14.226562 12.152344 -15.753906 C 12.335938 -16.027344 13.59375 -19.265625 14.226562 -19.445312 C 13.773438 -19.175781 11.882812 -14.765625 11.433594 -13.953125 L 9.722656 -9.992188 C 8.824219 -7.832031 7.832031 -5.582031 7.203125 -3.242188 C 7.832031 -5.941406 8.914062 -8.554688 9.992188 -11.074219 Z M 7.832031 6.210938 C 8.371094 6.933594 9.09375 7.652344 10.082031 8.011719 C 9.273438 7.742188 8.554688 7.292969 8.011719 6.753906 C 8.101562 6.753906 8.101562 6.84375 8.101562 6.933594 C 7.5625 6.210938 6.84375 4.683594 6.753906 4.410156 C 6.480469 3.332031 6.390625 2.070312 6.480469 0.992188 C 6.480469 0.0898438 6.574219 -0.628906 6.753906 -1.441406 L 6.753906 -1.351562 C 6.574219 -0.179688 6.480469 0.992188 6.574219 2.25 L 6.574219 2.699219 C 6.480469 2.609375 6.480469 2.519531 6.480469 2.519531 C 6.480469 2.519531 6.480469 2.609375 6.574219 2.789062 L 6.574219 2.882812 L 6.933594 4.773438 L 6.664062 3.601562 C 6.84375 4.140625 7.292969 5.132812 7.742188 6.121094 L 7.652344 6.03125 C 7.652344 6.121094 7.742188 6.210938 7.832031 6.300781 Z M 10.355469 -23.5 C 10.804688 -23.136719 11.613281 -23.046875 12.425781 -22.957031 C 11.703125 -23.046875 11.074219 -23.226562 10.625 -23.589844 C 10.625 -23.589844 10.082031 -24.039062 9.992188 -24.21875 C 9.992188 -24.039062 10.171875 -23.589844 10.355469 -23.5 Z M 19.808594 -16.476562 L 17.917969 -12.515625 L 19.808594 -16.566406 Z M 6.84375 -1.710938 C 6.84375 -1.621094 6.753906 -1.53125 6.753906 -1.441406 L 6.753906 -1.53125 C 6.753906 -1.621094 6.84375 -1.621094 6.84375 -1.710938 Z M 19.898438 -16.746094 L 19.898438 -16.65625 L 19.808594 -16.65625 Z M 19.898438 -16.746094 L 19.898438 -16.65625 L 19.808594 -16.65625 Z M 6.933594 -2.882812 C 6.933594 -2.972656 7.023438 -3.0625 7.023438 -3.242188 C 7.023438 -3.0625 6.933594 -2.972656 6.933594 -2.882812 Z M 7.292969 5.402344 C 7.292969 5.402344 7.382812 5.492188 7.382812 5.582031 C 7.382812 5.492188 7.292969 5.492188 7.292969 5.402344 Z M 10.082031 -24.398438 C 9.992188 -24.398438 9.992188 -24.308594 9.992188 -24.308594 Z M 10.082031 -24.398438 "/></g></g></g><g fill="rgb(100%, 100%, 100%)" fill-opacity="1"><g transform="translate(195.330258, 83.783404)"><g><path d="M 53.207031 -21.96875 L 53.207031 -22.058594 C 52.667969 -25.027344 48.617188 -20.078125 48.078125 -19.625 C 45.464844 -16.746094 43.035156 -13.59375 40.695312 -10.445312 C 38.351562 -7.203125 36.101562 -3.960938 33.671875 -0.71875 C 32.5 0.898438 31.332031 2.429688 29.980469 3.871094 C 29.53125 4.410156 28.449219 5.941406 27.640625 5.941406 C 24.488281 5.941406 26.917969 -6.753906 27.28125 -8.734375 C 27.820312 -12.246094 28.089844 -16.925781 30.339844 -19.71875 C 30.882812 -20.4375 37.003906 -28.269531 37.003906 -28.269531 C 36.824219 -28.359375 36.101562 -27.460938 35.652344 -26.917969 L 39.523438 -32.140625 L 39.792969 -32.5 L 39.882812 -32.5 L 39.792969 -32.5 L 40.515625 -33.492188 C 40.605469 -33.402344 40.515625 -33.222656 40.425781 -33.042969 L 41.234375 -33.941406 L 43.574219 -37.003906 C 45.285156 -39.433594 46.90625 -42.042969 48.4375 -44.566406 C 50.867188 -48.707031 54.199219 -54.648438 52.398438 -59.691406 C 51.046875 -63.382812 46.097656 -64.101562 42.765625 -62.84375 C 40.335938 -61.941406 38.261719 -60.050781 36.554688 -58.070312 C 35.652344 -56.898438 34.753906 -55.640625 33.941406 -54.289062 C 33.671875 -53.929688 32.5 -51.046875 32.230469 -50.6875 L 32.320312 -50.6875 C 31.78125 -49.699219 31.242188 -48.707031 30.882812 -47.71875 C 31.0625 -48.4375 31.511719 -49.878906 31.871094 -50.148438 C 31.152344 -49.609375 30.519531 -46.996094 30.339844 -46.726562 C 26.917969 -39.253906 23.949219 -31.691406 21.789062 -23.769531 C 19.355469 -26.558594 15.484375 -31.332031 11.253906 -29.621094 C 7.742188 -28.179688 5.132812 -24.488281 3.332031 -21.246094 C 1.710938 -18.367188 1.261719 -15.394531 0.0898438 -12.605469 C -1.980469 -7.832031 -2.972656 1.980469 4.050781 3.421875 C 6.210938 3.871094 8.191406 2.519531 9.902344 1.351562 C 12.964844 -0.898438 15.84375 -3.511719 18.546875 -6.210938 C 18.097656 -1.441406 17.105469 5.761719 20.976562 9.542969 C 25.75 14.40625 30.519531 7.832031 33.402344 4.230469 C 37.09375 -0.449219 39.972656 -5.671875 43.664062 -10.171875 C 45.464844 -12.335938 47.265625 -14.496094 49.15625 -16.476562 C 50.597656 -17.917969 53.480469 -19.71875 53.207031 -21.96875 Z M 20.078125 -16.027344 C 19.988281 -15.753906 19.988281 -15.574219 19.988281 -15.574219 C 19.625 -13.414062 19.625 -11.523438 18.097656 -9.992188 C 16.746094 -8.554688 15.304688 -7.203125 13.863281 -5.851562 C 12.515625 -4.589844 9.273438 -0.898438 7.203125 -1.082031 C 4.683594 -1.351562 6.574219 -7.113281 7.832031 -10.625 C 6.480469 -7.023438 4.320312 -1.171875 7.292969 -0.992188 C 8.101562 -0.898438 9.453125 -1.621094 10.625 -2.609375 C 9.542969 -1.621094 7.742188 -0.269531 6.664062 -0.808594 C 4.589844 -1.710938 6.390625 -6.84375 6.753906 -8.28125 C 7.921875 -12.425781 9.632812 -16.386719 11.613281 -20.167969 C 12.605469 -22.058594 14.046875 -25.117188 15.9375 -25.300781 L 15.484375 -25.027344 C 15.574219 -25.117188 15.664062 -25.117188 15.753906 -25.117188 C 16.386719 -25.300781 17.015625 -24.847656 17.464844 -24.488281 C 18.636719 -23.679688 19.355469 -22.148438 20.167969 -20.976562 C 21.066406 -19.535156 20.4375 -18.007812 20.078125 -16.386719 Z M 34.570312 -36.824219 C 34.570312 -36.914062 34.570312 -37.09375 34.664062 -37.183594 L 34.664062 -37.273438 C 34.753906 -37.542969 34.84375 -37.632812 34.84375 -37.632812 L 34.84375 -37.722656 C 36.914062 -43.484375 39.164062 -49.246094 42.40625 -54.46875 C 43.214844 -55.820312 45.554688 -59.960938 47.625 -58.789062 C 48.4375 -58.339844 48.617188 -57.171875 48.617188 -56.359375 C 48.976562 -50.957031 44.65625 -44.566406 41.953125 -40.246094 C 38.804688 -35.203125 35.292969 -30.25 31.601562 -25.660156 L 33.582031 -27.730469 L 35.382812 -29.980469 L 30.789062 -24.039062 L 30.160156 -23.226562 L 29.800781 -22.867188 C 29.890625 -23.410156 30.339844 -23.949219 30.789062 -24.578125 C 30.609375 -24.398438 30.429688 -24.21875 30.339844 -24.039062 C 31.511719 -27.910156 32.773438 -31.78125 34.121094 -35.652344 C 34.03125 -35.5625 34.121094 -35.742188 34.210938 -36.101562 L 34.480469 -36.554688 C 34.480469 -36.644531 34.480469 -36.734375 34.570312 -36.824219 Z M 27.007812 -29.441406 C 26.828125 -28.988281 26.289062 -26.917969 26.019531 -26.648438 C 26.019531 -26.558594 25.929688 -26.46875 25.839844 -26.46875 C 26.558594 -27.371094 26.109375 -28.539062 26.46875 -29.621094 C 26.648438 -30.160156 27.550781 -31.152344 27.730469 -31.871094 C 27.730469 -31.152344 27.28125 -29.890625 27.007812 -29.441406 Z M 12.695312 -4.5 C 14.945312 -6.480469 17.105469 -8.554688 19.175781 -10.714844 C 18.996094 -9.542969 16.207031 -7.5625 15.214844 -6.664062 C 14.046875 -5.492188 12.695312 -4.320312 11.34375 -3.242188 L 11.253906 -3.242188 Z M 28.628906 -37.632812 C 28.269531 -36.554688 27.820312 -35.5625 27.28125 -34.570312 C 27.730469 -35.921875 28 -37.273438 28.628906 -38.535156 C 29.171875 -39.523438 29.800781 -40.785156 30.25 -41.953125 C 29.800781 -40.515625 29.082031 -38.984375 28.628906 -37.632812 Z M 34.480469 -36.554688 L 34.121094 -35.652344 C 34.121094 -35.742188 34.210938 -35.921875 34.210938 -36.101562 Z M 15.035156 -24.667969 C 14.675781 -24.398438 14.40625 -24.039062 14.316406 -24.039062 C 14.496094 -24.039062 14.765625 -24.398438 15.035156 -24.667969 Z M 17.554688 -24.847656 C 17.734375 -24.757812 17.917969 -24.667969 18.097656 -24.488281 Z M 35.382812 -26.46875 C 35.382812 -26.558594 35.472656 -26.648438 35.5625 -26.738281 C 35.472656 -26.558594 35.382812 -26.46875 35.382812 -26.46875 Z M 35.5625 -26.738281 L 35.652344 -26.917969 C 35.652344 -26.828125 35.5625 -26.738281 35.5625 -26.738281 Z M 35.5625 -26.738281 "/></g></g></g><g fill="rgb(100%, 100%, 100%)" fill-opacity="1"><g transform="translate(241.966605, 83.783404)"><g><path d="M 23.589844 -22.148438 C 23.410156 -23.316406 22.148438 -22.957031 21.515625 -22.507812 C 20.707031 -21.96875 16.207031 -16.027344 16.566406 -15.574219 C 16.835938 -15.574219 17.015625 -15.574219 17.195312 -15.753906 C 15.9375 -14.226562 13.59375 -12.515625 11.882812 -11.164062 C 10.894531 -10.355469 8.464844 -8.101562 7.023438 -8.824219 C 3.960938 -10.355469 10.171875 -21.15625 9.902344 -21.246094 C 9.632812 -21.335938 7.382812 -16.296875 6.933594 -15.125 C 8.011719 -18.277344 9.453125 -21.425781 11.164062 -24.21875 C 11.074219 -23.949219 10.804688 -23.5 10.984375 -23.5 C 11.164062 -23.410156 12.515625 -25.300781 12.246094 -25.480469 C 12.152344 -25.480469 11.972656 -25.480469 11.882812 -25.390625 C 12.152344 -25.660156 12.605469 -25.75 12.605469 -26.289062 C 12.605469 -27.191406 10.535156 -28.089844 9.8125 -28.359375 C 8.101562 -29.082031 6.390625 -29.261719 5.042969 -28.359375 C 3.242188 -27.28125 2.882812 -25.117188 2.160156 -23.226562 C 1.980469 -22.6875 0.269531 -16.296875 0.628906 -16.207031 C 0.808594 -16.296875 0.808594 -16.386719 0.898438 -16.566406 L 0.628906 -14.945312 C 0.539062 -14.945312 0.71875 -15.394531 0.539062 -15.394531 C -0.179688 -15.394531 0 -12.152344 0.0898438 -11.703125 C 0.449219 -10.082031 1.710938 -8.914062 2.699219 -7.5625 C 3.242188 -6.753906 3.78125 -5.941406 4.589844 -5.402344 C 5.671875 -4.589844 4.953125 -5.402344 5.671875 -5.042969 L 5.492188 -5.042969 C 5.402344 -4.5 8.824219 -3.601562 9.542969 -3.691406 C 12.695312 -4.410156 14.945312 -8.28125 16.746094 -10.714844 C 18.457031 -12.875 19.898438 -15.035156 21.425781 -17.285156 C 22.328125 -18.457031 23.949219 -20.4375 23.589844 -22.148438 Z M 7.832031 -33.492188 C 8.011719 -33.222656 7.742188 -32.863281 8.371094 -32.5 C 9.003906 -32.230469 9.363281 -32.589844 9.902344 -32.773438 C 10.984375 -33.222656 11.792969 -34.390625 12.605469 -35.113281 C 12.875 -35.292969 12.335938 -35.203125 12.335938 -35.203125 C 13.503906 -36.28125 12.515625 -35.023438 13.59375 -35.652344 C 14.675781 -36.371094 14.855469 -37.542969 15.753906 -38.535156 C 14.675781 -38.082031 13.863281 -37.453125 13.144531 -36.554688 C 12.246094 -35.382812 11.613281 -34.84375 10.625 -34.210938 C 11.703125 -35.023438 12.246094 -35.832031 13.144531 -37.273438 C 13.414062 -37.542969 13.683594 -37.722656 14.046875 -37.902344 C 13.773438 -38.171875 13.773438 -38.445312 14.136719 -38.714844 C 14.40625 -39.164062 14.945312 -39.34375 15.214844 -39.792969 C 15.664062 -40.425781 15.574219 -41.234375 16.117188 -41.863281 C 16.566406 -42.226562 17.195312 -42.496094 17.554688 -42.855469 C 18.367188 -43.574219 19.265625 -44.925781 18.90625 -46.097656 C 18.546875 -47.175781 17.644531 -48.527344 16.65625 -49.15625 C 15.484375 -49.789062 13.863281 -50.058594 12.605469 -49.515625 C 12.335938 -49.425781 11.253906 -49.15625 11.613281 -48.796875 C 11.703125 -48.617188 11.792969 -48.617188 11.972656 -48.617188 C 11.164062 -47.988281 9.8125 -46.90625 11.703125 -46.1875 C 11.523438 -46.007812 11.703125 -45.195312 11.703125 -45.105469 C 11.613281 -44.476562 10.355469 -41.144531 9.542969 -39.523438 L 10.625 -41.144531 C 9.992188 -39.792969 9.273438 -38.535156 8.464844 -37.453125 C 9.003906 -38.625 7.921875 -37.273438 7.921875 -37.003906 C 6.933594 -37.453125 7.203125 -34.664062 7.292969 -34.390625 C 7.292969 -34.300781 7.832031 -33.492188 7.832031 -33.492188 Z M 6.121094 -12.0625 L 6.121094 -11.972656 L 5.941406 -11.433594 L 6.121094 -12.152344 C 6.210938 -12.246094 6.210938 -12.246094 6.121094 -12.0625 Z M 9.09375 -38.804688 C 9.09375 -38.804688 9.273438 -38.984375 9.453125 -39.34375 Z M 8.191406 -37.09375 C 8.191406 -37.003906 8.191406 -37.003906 8.101562 -36.914062 C 8.101562 -36.914062 8.101562 -37.003906 8.011719 -37.003906 C 8.101562 -37.003906 8.101562 -37.003906 8.191406 -37.09375 Z M 8.191406 -37.09375 "/></g></g></g><g fill="rgb(100%, 100%, 100%)" fill-opacity="1"><g transform="translate(258.982561, 83.783404)"><g><path d="M 41.414062 -22.417969 C 41.414062 -22.417969 41.503906 -22.328125 41.414062 -22.507812 C 40.964844 -23.136719 40.335938 -22.6875 39.703125 -22.507812 C 37.09375 -21.96875 34.390625 -21.335938 31.691406 -20.886719 C 32.679688 -24.128906 33.671875 -27.550781 34.03125 -30.882812 C 34.210938 -32.140625 34.300781 -33.492188 34.03125 -34.753906 C 33.851562 -35.5625 33.582031 -36.371094 33.132812 -37.09375 C 33.132812 -37.09375 32.050781 -38.445312 32.320312 -37.722656 L 32.230469 -37.8125 L 31.871094 -38.535156 L 32.230469 -38.171875 C 32.320312 -38.714844 30.789062 -39.703125 30.789062 -39.703125 C 28.539062 -41.953125 25.480469 -43.664062 22.417969 -41.953125 C 20.527344 -40.875 18.996094 -39.074219 17.734375 -37.273438 C 17.285156 -36.644531 16.835938 -35.921875 16.476562 -35.203125 C 16.117188 -34.480469 15.574219 -32.140625 15.035156 -31.78125 C 14.585938 -31.421875 13.234375 -31.332031 12.605469 -30.972656 C 11.703125 -30.609375 10.894531 -30.160156 10.171875 -29.621094 C 8.464844 -28.539062 7.113281 -27.007812 5.851562 -25.480469 C 3.691406 -22.597656 2.609375 -19.355469 1.082031 -16.476562 C -1.800781 -10.984375 1.351562 -3.78125 6.664062 -1.171875 C 8.371094 -0.359375 10.355469 0 12.152344 -0.179688 C 14.046875 -0.449219 15.84375 -1.441406 17.285156 -2.519531 C 18.636719 -3.511719 21.609375 -5.3125 22.148438 -6.84375 C 22.148438 -6.933594 21.96875 -6.84375 21.699219 -6.574219 L 24.308594 -9.632812 C 24.398438 -9.542969 23.679688 -8.644531 23.679688 -8.644531 C 24.308594 -8.371094 27.550781 -13.144531 27.910156 -13.503906 C 28.539062 -14.585938 29.171875 -15.753906 29.890625 -16.835938 C 30.519531 -17.644531 30.339844 -17.554688 31.242188 -17.917969 C 31.152344 -17.828125 32.320312 -18.1875 32.5 -18.1875 C 33.492188 -18.367188 44.027344 -19.085938 41.414062 -22.417969 Z M 10.261719 -4.230469 L 10.171875 -4.230469 C 2.699219 -3.152344 11.34375 -18.996094 11.523438 -19.898438 L 10.984375 -19.085938 C 12.335938 -21.789062 13.59375 -23.949219 14.226562 -24.667969 C 15.214844 -20.167969 20.078125 -18.457031 24.039062 -17.917969 C 21.425781 -12.695312 16.566406 -5.402344 10.261719 -4.230469 Z M 28 -29.171875 C 27.371094 -26.648438 26.828125 -23.316406 25.480469 -21.066406 C 25.027344 -20.167969 25.300781 -20.4375 24.398438 -20.257812 C 23.859375 -20.078125 22.6875 -20.257812 22.148438 -20.347656 C 21.15625 -20.4375 19.988281 -20.617188 19.265625 -21.246094 C 18.007812 -22.328125 18.1875 -24.039062 18.367188 -25.570312 C 18.546875 -27.097656 18.996094 -28.539062 19.535156 -29.980469 C 19.808594 -30.519531 21.515625 -33.402344 21.246094 -33.941406 C 21.15625 -34.210938 20.167969 -32.589844 20.078125 -32.5 C 20.617188 -33.492188 21.15625 -34.03125 21.609375 -34.664062 C 21.515625 -34.664062 21.609375 -34.753906 21.699219 -34.933594 L 21.699219 -34.84375 L 21.789062 -35.023438 C 21.789062 -35.023438 21.789062 -35.113281 21.878906 -35.113281 C 23.226562 -36.914062 26.558594 -40.964844 28.359375 -38.171875 C 29.710938 -35.832031 28.449219 -31.421875 28 -29.171875 Z M 21.789062 -35.023438 L 21.878906 -35.113281 C 21.878906 -35.023438 21.789062 -35.023438 21.789062 -35.023438 Z M 21.789062 -35.023438 "/></g></g></g></svg>