<svg xmlns="http://www.w3.org/2000/svg" xmlns:xlink="http://www.w3.org/1999/xlink" width="500" zoomAndPan="magnify" viewBox="0 0 375 118.499997" height="158" preserveAspectRatio="xMidYMid meet" version="1.0"><defs><g/></defs><g fill="rgb(100%, 100%, 100%)" fill-opacity="1"><g transform="translate(57.532949, 77.09485)"><g><path d="M 6.203125 -5.277344 L 6.136719 -5.210938 C 6.203125 -5.277344 6.203125 -5.277344 6.203125 -5.34375 L 6.203125 -5.671875 C 6.925781 -9.566406 8.3125 -13.394531 9.699219 -17.152344 C 11.148438 -21.113281 12.535156 -25.003906 14.382812 -28.765625 C 16.097656 -32.328125 18.078125 -35.824219 20.320312 -39.058594 C 22.300781 -42.027344 24.675781 -45.257812 27.710938 -47.238281 C 28.632812 -47.5 29.554688 -48.492188 30.742188 -48.292969 C 31.929688 -48.09375 31.929688 -46.839844 31.667969 -45.652344 C 31.996094 -46.578125 32.195312 -47.566406 31.402344 -48.226562 C 30.347656 -49.019531 28.304688 -47.765625 27.445312 -47.171875 C 27.050781 -47.039062 26.652344 -46.777344 26.324219 -46.511719 C 26.523438 -46.710938 26.785156 -46.90625 27.117188 -47.105469 L 26.785156 -46.972656 L 27.710938 -47.5 C 28.765625 -48.09375 31.140625 -49.414062 31.929688 -47.699219 C 32.523438 -46.3125 31.601562 -44.003906 31.140625 -42.683594 C 30.28125 -40.441406 29.226562 -38.332031 28.105469 -36.21875 C 28.304688 -36.679688 29.09375 -38.464844 29.09375 -38.464844 C 28.632812 -38.527344 26.523438 -33.648438 26.125 -33.515625 L 26.191406 -33.515625 C 25.929688 -33.316406 25.730469 -33.117188 25.730469 -33.054688 C 25.597656 -32.261719 26.523438 -32.460938 27.050781 -32.523438 C 29.292969 -32.789062 32.195312 -34.703125 33.648438 -36.351562 C 35.230469 -38.132812 35.824219 -40.839844 35.824219 -43.214844 L 35.824219 -43.277344 C 35.757812 -47.765625 32.65625 -53.4375 27.3125 -53.109375 C 24.34375 -52.976562 21.574219 -50.074219 19.660156 -48.09375 C 18.273438 -46.511719 16.957031 -44.796875 15.769531 -43.082031 C 15.238281 -42.289062 14.710938 -41.5625 14.25 -40.773438 C 13.722656 -40.046875 12.667969 -38.925781 12.402344 -38.066406 C 12.402344 -38.066406 12.734375 -38.464844 12.996094 -38.726562 C 12.269531 -37.605469 11.613281 -36.417969 10.953125 -35.296875 C 10.886719 -35.363281 11.347656 -36.285156 11.347656 -36.285156 C 10.753906 -36.417969 8.050781 -31.007812 7.71875 -30.414062 C 6.53125 -28.238281 5.476562 -26.058594 4.75 -23.75 C 3.957031 -21.175781 2.902344 -18.738281 2.109375 -16.230469 C 1.714844 -14.976562 1.320312 -13.789062 1.054688 -12.535156 C 0.921875 -11.941406 0.792969 -11.414062 0.726562 -10.820312 C 0.726562 -10.753906 0.59375 -9.699219 0.726562 -9.832031 C 0.59375 -9.367188 0.59375 -8.773438 0.527344 -8.3125 C 0.527344 -8.3125 0.527344 -9.433594 0.59375 -9.566406 C 0.328125 -9.238281 0.527344 -7.984375 0.460938 -7.851562 C 0.132812 -5.34375 -0.394531 -2.703125 0.460938 -0.265625 C 1.582031 3.101562 4.355469 5.871094 7.390625 7.652344 C 8.972656 8.644531 11.082031 9.765625 13.0625 9.632812 C 15.371094 9.5 17.613281 7.585938 19.332031 6.203125 C 24.34375 1.980469 28.898438 -3.957031 29.753906 -10.6875 C 29.820312 -11.148438 30.148438 -13.457031 29.359375 -13.523438 C 28.632812 -13.589844 28.105469 -12.007812 27.839844 -11.613281 C 25.863281 -8.378906 23.554688 -5.34375 20.980469 -2.574219 C 18.339844 0.328125 15.042969 3.429688 11.019531 4.355469 C 10.488281 4.484375 9.894531 4.550781 9.300781 4.550781 C 8.511719 4.484375 7.785156 4.289062 7.191406 3.695312 C 6.859375 3.363281 6.53125 2.242188 6.136719 2.046875 C 6.136719 1.714844 6.070312 1.386719 6.003906 1.1875 L 5.804688 0.792969 C 5.738281 -1.1875 5.804688 -3.035156 6.136719 -5.078125 L 6.136719 -5.144531 C 6.136719 -5.210938 6.203125 -5.210938 6.203125 -5.277344 Z M 17.8125 -37.539062 C 15.238281 -33.316406 13.0625 -28.960938 10.886719 -24.476562 C 9.632812 -21.835938 8.378906 -19.132812 7.390625 -16.296875 C 8.773438 -20.714844 10.425781 -24.9375 12.402344 -29.160156 C 14.777344 -34.242188 17.945312 -39.1875 21.707031 -43.277344 C 20.1875 -41.433594 18.867188 -39.320312 17.8125 -37.539062 Z M 24.609375 -44.796875 C 23.683594 -43.871094 22.828125 -42.816406 22.035156 -41.828125 C 23.289062 -43.476562 24.609375 -45.125 26.257812 -46.445312 C 25.664062 -45.917969 25.070312 -45.257812 24.609375 -44.796875 Z M 31.335938 -44.269531 C 31.46875 -44.664062 31.601562 -45.125 31.667969 -45.652344 C 31.535156 -45.058594 31.273438 -44.464844 31.273438 -44.003906 C 31.335938 -44.136719 31.335938 -44.203125 31.335938 -44.269531 Z M 31.335938 -44.269531 "/></g></g></g><g fill="rgb(100%, 100%, 100%)" fill-opacity="1"><g transform="translate(90.452033, 77.09485)"><g><path d="M 30.347656 -16.425781 C 30.347656 -16.425781 30.414062 -16.363281 30.347656 -16.492188 C 30.019531 -16.957031 29.554688 -16.625 29.09375 -16.492188 C 27.179688 -16.097656 25.203125 -15.636719 23.222656 -15.304688 C 23.949219 -17.679688 24.675781 -20.1875 24.9375 -22.628906 C 25.070312 -23.554688 25.136719 -24.542969 24.9375 -25.464844 C 24.804688 -26.058594 24.609375 -26.652344 24.277344 -27.179688 C 24.277344 -27.179688 23.488281 -28.171875 23.683594 -27.644531 L 23.617188 -27.710938 L 23.355469 -28.238281 L 23.617188 -27.972656 C 23.683594 -28.367188 22.5625 -29.09375 22.5625 -29.09375 C 20.914062 -30.742188 18.671875 -31.996094 16.425781 -30.742188 C 15.042969 -29.953125 13.921875 -28.632812 12.996094 -27.3125 C 12.667969 -26.851562 12.335938 -26.324219 12.074219 -25.796875 C 11.808594 -25.269531 11.414062 -23.554688 11.019531 -23.289062 C 10.6875 -23.023438 9.699219 -22.960938 9.238281 -22.695312 C 8.578125 -22.429688 7.984375 -22.101562 7.457031 -21.707031 C 6.203125 -20.914062 5.210938 -19.792969 4.289062 -18.671875 C 2.703125 -16.558594 1.914062 -14.183594 0.792969 -12.074219 C -1.320312 -8.050781 0.988281 -2.769531 4.882812 -0.859375 C 6.136719 -0.265625 7.585938 0 8.90625 -0.132812 C 10.292969 -0.328125 11.613281 -1.054688 12.667969 -1.847656 C 13.65625 -2.574219 15.832031 -3.890625 16.230469 -5.015625 C 16.230469 -5.078125 16.097656 -5.015625 15.898438 -4.816406 L 17.8125 -7.058594 C 17.878906 -6.992188 17.351562 -6.332031 17.351562 -6.332031 C 17.8125 -6.136719 20.1875 -9.632812 20.453125 -9.894531 C 20.914062 -10.6875 21.375 -11.546875 21.902344 -12.335938 C 22.367188 -12.929688 22.234375 -12.863281 22.894531 -13.128906 C 22.828125 -13.0625 23.683594 -13.328125 23.816406 -13.328125 C 24.542969 -13.457031 32.261719 -13.988281 30.347656 -16.425781 Z M 7.519531 -3.101562 L 7.457031 -3.101562 C 1.980469 -2.308594 8.3125 -13.921875 8.445312 -14.582031 L 8.050781 -13.988281 C 9.039062 -15.964844 9.960938 -17.550781 10.425781 -18.078125 C 11.148438 -14.777344 14.710938 -13.523438 17.613281 -13.128906 C 15.703125 -9.300781 12.140625 -3.957031 7.519531 -3.101562 Z M 20.519531 -21.375 C 20.054688 -19.527344 19.660156 -17.085938 18.671875 -15.4375 C 18.339844 -14.777344 18.539062 -14.976562 17.878906 -14.84375 C 17.484375 -14.710938 16.625 -14.84375 16.230469 -14.910156 C 15.503906 -14.976562 14.644531 -15.109375 14.117188 -15.570312 C 13.195312 -16.363281 13.328125 -17.613281 13.457031 -18.738281 C 13.589844 -19.859375 13.921875 -20.914062 14.316406 -21.96875 C 14.515625 -22.367188 15.769531 -24.476562 15.570312 -24.871094 C 15.503906 -25.070312 14.777344 -23.882812 14.710938 -23.816406 C 15.109375 -24.542969 15.503906 -24.9375 15.832031 -25.398438 C 15.769531 -25.398438 15.832031 -25.464844 15.898438 -25.597656 L 15.898438 -25.53125 L 15.964844 -25.664062 C 15.964844 -25.664062 15.964844 -25.730469 16.03125 -25.730469 C 17.019531 -27.050781 19.460938 -30.019531 20.78125 -27.972656 C 21.769531 -26.257812 20.847656 -23.023438 20.519531 -21.375 Z M 15.964844 -25.664062 L 16.03125 -25.730469 C 16.03125 -25.664062 15.964844 -25.664062 15.964844 -25.664062 Z M 15.964844 -25.664062 "/></g></g></g><g fill="rgb(100%, 100%, 100%)" fill-opacity="1"><g transform="translate(116.246351, 77.09485)"><g><path d="M 27.3125 -15.703125 C 26.984375 -17.285156 26.058594 -16.230469 25.664062 -15.636719 C 24.742188 -14.515625 23.289062 -13.457031 22.167969 -12.402344 C 20.648438 -11.082031 19.132812 -9.699219 17.550781 -8.445312 C 16.757812 -7.785156 15.769531 -6.859375 14.777344 -6.53125 C 14.644531 -6.464844 14.183594 -6.398438 14.183594 -6.332031 L 14.117188 -6.398438 C 14.117188 -6.398438 14.050781 -7.457031 14.117188 -7.519531 C 14.183594 -8.378906 14.449219 -9.238281 14.710938 -10.027344 C 14.777344 -10.160156 15.503906 -12.402344 15.371094 -12.402344 L 15.042969 -12.007812 C 15.4375 -12.800781 15.964844 -13.589844 16.425781 -14.449219 C 15.371094 -13.457031 14.644531 -12.335938 14.117188 -10.953125 C 13.855469 -10.292969 13.128906 -9.105469 12.996094 -8.113281 C 13.128906 -9.566406 14.117188 -11.480469 14.582031 -12.335938 C 15.238281 -13.722656 15.964844 -15.304688 16.824219 -16.625 C 18.40625 -19 21.835938 -21.175781 20.78125 -24.476562 C 19.859375 -27.578125 17.417969 -27.644531 15.503906 -25.863281 C 14.582031 -25.003906 6.730469 -14.976562 6.925781 -14.84375 C 6.925781 -14.84375 7.585938 -15.636719 8.445312 -16.757812 L 4.550781 -11.082031 C 4.484375 -11.082031 5.210938 -12.207031 5.144531 -12.269531 C 5.078125 -12.335938 4.617188 -11.875 4.550781 -11.613281 C 4.683594 -12.996094 5.144531 -14.382812 5.277344 -15.769531 C 5.34375 -16.296875 5.277344 -16.691406 5.410156 -17.21875 C 5.671875 -18.078125 5.9375 -19 6.332031 -19.726562 C 6.597656 -20.253906 7.125 -20.714844 7.257812 -21.242188 C 7.519531 -22.101562 7.457031 -22.429688 8.050781 -23.15625 C 8.578125 -23.816406 9.367188 -24.476562 9.832031 -25.070312 C 10.953125 -26.71875 9.039062 -27.839844 7.984375 -28.039062 C 7.125 -28.171875 6.265625 -28.238281 5.476562 -27.773438 C 4.617188 -27.246094 4.816406 -26.785156 4.617188 -26.058594 C 4.421875 -25.136719 3.761719 -24.082031 3.429688 -23.222656 C 2.902344 -21.835938 2.441406 -20.453125 1.980469 -19.066406 C 1.453125 -17.679688 0.921875 -16.363281 0.527344 -14.976562 C 0.199219 -13.855469 0.265625 -12.800781 0.132812 -11.742188 C 0 -10.554688 -0.199219 -9.765625 0.394531 -8.707031 C 1.054688 -7.585938 2.835938 -5.871094 4.023438 -7.324219 L 4.289062 -6.796875 C 5.410156 -9.238281 7.125 -11.414062 8.511719 -13.789062 C 9.105469 -14.84375 10.160156 -15.570312 11.019531 -16.691406 C 12.207031 -18.273438 13.261719 -19.859375 14.582031 -21.375 C 14.382812 -21.046875 13.523438 -19.527344 13.589844 -19.460938 C 13.722656 -19.527344 13.789062 -19.660156 13.921875 -19.792969 L 12.996094 -17.945312 C 12.929688 -18.011719 13.261719 -18.472656 13.128906 -18.472656 C 12.667969 -18.605469 11.28125 -14.910156 11.148438 -14.582031 C 10.6875 -13.128906 10.621094 -11.808594 10.488281 -10.292969 C 10.425781 -9.566406 10.292969 -8.839844 10.292969 -8.113281 C 10.292969 -7.390625 10.359375 -6.664062 10.6875 -5.9375 C 10.886719 -5.542969 11.148438 -5.015625 11.480469 -4.683594 C 11.546875 -4.683594 12.269531 -4.023438 11.941406 -4.550781 L 12.335938 -4.15625 L 12.140625 -4.289062 C 12.074219 -3.957031 14.515625 -2.640625 14.910156 -2.507812 C 16.757812 -1.914062 18.738281 -4.023438 19.925781 -5.277344 C 21.507812 -6.992188 22.828125 -8.972656 24.277344 -10.820312 C 25.070312 -11.875 27.578125 -14.117188 27.3125 -15.703125 Z M 27.3125 -15.703125 "/></g></g></g><g fill="rgb(100%, 100%, 100%)" fill-opacity="1"><g transform="translate(138.742161, 77.09485)"><g><path d="M 26.785156 -34.304688 C 26.71875 -35.230469 25.730469 -34.503906 25.203125 -34.503906 C 22.5625 -34.371094 19.925781 -34.371094 17.351562 -34.242188 C 17.351562 -34.304688 17.484375 -34.570312 17.679688 -34.964844 C 17.417969 -34.503906 17.21875 -34.242188 17.019531 -34.242188 C 19 -38.265625 21.113281 -42.289062 23.617188 -45.984375 C 23.554688 -45.851562 22.5625 -44.203125 22.628906 -44.203125 C 22.828125 -44.136719 25.269531 -47.5 25.335938 -47.964844 C 25.335938 -48.226562 24.742188 -47.566406 24.742188 -47.632812 C 25.136719 -48.027344 25.796875 -48.359375 25.992188 -48.886719 C 26.457031 -50.207031 25.070312 -50.800781 24.082031 -50.996094 C 22.035156 -51.394531 19.726562 -51.128906 18.40625 -49.414062 C 17.152344 -47.898438 16.230469 -46.117188 15.4375 -44.335938 C 15.042969 -43.542969 14.515625 -43.34375 13.988281 -42.621094 C 13.195312 -41.496094 12.667969 -40.179688 12.074219 -38.925781 C 11.546875 -37.804688 11.019531 -36.617188 10.554688 -35.429688 C 10.292969 -34.835938 10.292969 -34.371094 9.699219 -34.175781 C 9.105469 -33.910156 7.984375 -34.109375 7.324219 -34.042969 C 4.75 -33.710938 2.242188 -33.84375 -0.328125 -33.582031 C -1.648438 -33.515625 -2.96875 -33.515625 -4.222656 -33.054688 C -4.484375 -32.988281 -5.9375 -32.65625 -6.070312 -32.460938 C -6.464844 -31.734375 -4.882812 -31.667969 -4.550781 -31.601562 C -2.046875 -31.273438 1.121094 -31.007812 3.628906 -31.46875 C 5.34375 -31.800781 7.125 -31.667969 8.972656 -31.800781 C 8.050781 -29.820312 7.324219 -27.710938 6.597656 -25.597656 L 5.804688 -23.289062 C 5.542969 -22.5625 4.683594 -21.175781 4.683594 -20.386719 C 4.683594 -20.253906 4.882812 -20.582031 5.015625 -20.914062 C 4.683594 -19.925781 4.289062 -18.933594 4.023438 -17.945312 C 4.023438 -18.011719 4.222656 -18.800781 4.15625 -18.800781 C 3.828125 -18.800781 2.507812 -14.777344 2.375 -14.449219 C 1.714844 -12.46875 0.988281 -10.488281 0.660156 -8.378906 C 0.265625 -6.265625 -0.265625 -4.222656 -0.726562 -2.175781 C -0.988281 -1.121094 -1.253906 -0.132812 -1.386719 0.921875 C -1.515625 1.453125 -1.648438 2.046875 -1.648438 2.574219 C -1.648438 2.703125 -1.648438 3.5625 -1.515625 3.296875 L -1.648438 4.617188 L -1.648438 3.628906 C -2.046875 4.089844 -1.648438 6.203125 -1.582031 6.597656 C -1.320312 7.917969 -0.660156 9.105469 0.527344 9.894531 C 1.582031 10.6875 3.234375 11.414062 4.484375 10.820312 C 6.136719 10.027344 7.519531 8.179688 8.578125 6.859375 C 10.886719 4.15625 12.996094 1.320312 15.109375 -1.515625 C 17.019531 -4.15625 19 -6.730469 20.648438 -9.5 C 21.574219 -11.082031 23.355469 -12.535156 23.949219 -14.316406 C 24.277344 -15.175781 24.082031 -16.230469 23.023438 -16.03125 C 22.167969 -15.832031 20.980469 -13.523438 20.453125 -12.863281 C 18.078125 -9.894531 15.832031 -6.859375 13.457031 -3.890625 L 9.632812 0.792969 C 9.039062 1.453125 8.445312 2.175781 7.785156 2.835938 C 7.519531 3.167969 5.871094 4.484375 5.9375 4.882812 C 5.9375 5.015625 6.664062 4.421875 6.925781 4.222656 C 6.597656 4.617188 6.203125 4.949219 5.871094 5.277344 C 5.9375 5.210938 4.550781 6.003906 4.355469 5.871094 C 3.101562 5.34375 4.222656 1.515625 4.421875 0.59375 C 5.609375 -4.75 7.390625 -10.160156 9.171875 -15.304688 C 10.226562 -18.144531 11.28125 -20.847656 12.46875 -23.617188 C 13.0625 -25.003906 13.65625 -26.457031 14.316406 -27.839844 L 15.238281 -30.347656 L 14.515625 -28.898438 C 14.976562 -30.085938 15.636719 -31.867188 16.03125 -31.929688 L 15.832031 -31.535156 C 15.964844 -31.734375 16.097656 -31.867188 16.230469 -31.929688 C 16.957031 -32.394531 18.800781 -31.929688 19.660156 -31.929688 C 20.253906 -31.929688 20.980469 -31.867188 21.574219 -32.0625 C 21.96875 -32.195312 21.835938 -32.394531 22.300781 -32.523438 C 23.089844 -32.65625 24.082031 -32.128906 24.9375 -32.394531 C 25.730469 -32.589844 26.851562 -33.316406 26.785156 -34.242188 Z M 14.25 -30.480469 C 11.28125 -24.210938 9.039062 -17.484375 6.664062 -10.953125 C 5.542969 -7.984375 4.484375 -4.882812 3.761719 -1.78125 L 3.429688 -0.527344 C 3.890625 -2.902344 4.421875 -5.210938 5.078125 -7.519531 C 6.53125 -12.601562 8.378906 -17.613281 10.554688 -22.429688 C 14.25 -30.679688 17.550781 -39.519531 22.828125 -46.972656 C 19.265625 -41.894531 16.890625 -36.085938 14.25 -30.480469 Z M 18.605469 -37.011719 L 20.1875 -40.046875 C 19.859375 -39.980469 19.265625 -38.527344 18.605469 -37.011719 Z M 11.808594 -22.628906 C 11.347656 -21.375 10.820312 -20.1875 10.292969 -19 C 10.820312 -20.253906 11.28125 -21.574219 11.875 -22.894531 C 11.808594 -22.761719 11.808594 -22.695312 11.808594 -22.628906 Z M 17.746094 -35.097656 L 18.40625 -36.550781 C 18.207031 -36.023438 17.945312 -35.492188 17.746094 -35.097656 Z M 3.363281 6.464844 C 3.296875 6.464844 3.234375 6.398438 3.167969 6.332031 Z M 3.363281 6.464844 "/></g></g></g><g fill="rgb(100%, 100%, 100%)" fill-opacity="1"><g transform="translate(158.994983, 77.09485)"><g><path d="M 33.582031 -15.898438 C 33.515625 -17.351562 32.328125 -16.097656 31.929688 -15.570312 C 31.074219 -14.316406 30.28125 -12.996094 29.492188 -11.742188 C 27.710938 -9.039062 25.929688 -6.332031 23.882812 -3.761719 C 17.085938 4.617188 21.835938 -10.292969 21.308594 -10.160156 C 21.046875 -10.09375 20.847656 -9.105469 20.78125 -8.90625 C 21.308594 -11.28125 22.300781 -14.117188 23.554688 -16.425781 C 24.277344 -17.878906 25.136719 -19.066406 23.816406 -20.648438 C 21.375 -23.617188 18.539062 -20.914062 16.957031 -18.867188 C 16.296875 -21.375 14.976562 -25.070312 11.742188 -25.070312 C 10.292969 -25.070312 9.433594 -24.34375 8.445312 -23.488281 C 7.851562 -23.089844 7.390625 -23.023438 6.859375 -22.5625 C 6.003906 -21.96875 5.410156 -21.046875 4.816406 -20.253906 C 2.574219 -16.957031 0.988281 -12.800781 0.265625 -8.972656 C -0.0664062 -7.125 -0.199219 -5.078125 0.328125 -3.234375 C 0.660156 -2.175781 1.847656 0.199219 3.363281 0 C 3.429688 0 3.296875 -0.0664062 3.101562 -0.199219 C 4.023438 0.0664062 5.078125 -0.0664062 5.871094 -0.59375 C 5.9375 -0.460938 5.144531 -0.132812 5.144531 -0.132812 C 5.871094 0.988281 11.28125 -5.542969 11.675781 -6.136719 C 12.535156 -7.324219 13.128906 -8.578125 13.921875 -9.832031 C 14.515625 -10.753906 15.4375 -11.941406 16.097656 -12.929688 C 16.03125 -12.46875 16.03125 -11.875 16.03125 -11.875 C 14.84375 -8.113281 13.722656 -4.023438 15.304688 -0.132812 C 16.03125 1.847656 17.8125 3.695312 20.054688 3.296875 C 22.035156 2.96875 23.683594 1.054688 24.871094 -0.460938 C 26.324219 -2.175781 27.578125 -4.089844 28.832031 -6.070312 C 29.886719 -7.851562 30.875 -9.632812 31.734375 -11.613281 C 32.261719 -12.863281 33.710938 -14.382812 33.582031 -15.898438 Z M 14.644531 -15.4375 C 14.316406 -14.976562 13.988281 -14.515625 13.722656 -14.050781 L 12.007812 -11.613281 C 10.886719 -9.960938 9.699219 -8.378906 8.445312 -6.859375 C 8.113281 -6.398438 6.53125 -4.355469 5.871094 -4.550781 C 4.882812 -4.882812 5.9375 -8.3125 6.070312 -8.839844 C 6.265625 -9.765625 9.765625 -19.925781 10.6875 -20.121094 C 9.5 -20.1875 5.671875 -8.246094 5.476562 -7.257812 C 6.003906 -10.488281 7.191406 -13.65625 8.511719 -16.625 C 9.238281 -18.144531 10.886719 -22.167969 13.0625 -22.167969 C 14.25 -22.167969 14.515625 -19.726562 14.710938 -18.933594 C 14.644531 -19.066406 14.050781 -20.980469 13.988281 -20.914062 C 13.65625 -20.648438 14.976562 -17.019531 14.976562 -16.492188 C 14.976562 -15.964844 14.976562 -15.964844 14.644531 -15.4375 Z M 16.164062 -12.207031 C 16.164062 -12.207031 16.363281 -13.128906 16.425781 -13.328125 L 16.757812 -13.789062 Z M 15.175781 -16.296875 L 15.175781 -16.957031 C 15.371094 -16.691406 15.371094 -16.492188 15.175781 -16.296875 Z M 15.175781 -16.296875 "/></g></g></g><g fill="rgb(100%, 100%, 100%)" fill-opacity="1"><g transform="translate(187.757951, 77.09485)"><g><path d="M 23.882812 -12.207031 C 24.476562 -13.0625 26.851562 -15.570312 25.863281 -16.691406 C 24.542969 -18.011719 21.113281 -12.535156 20.582031 -11.875 C 19.527344 -10.488281 18.40625 -9.171875 17.351562 -7.851562 C 16.757812 -7.125 16.164062 -6.398438 15.503906 -5.738281 C 15.371094 -5.609375 14.117188 -4.023438 14.25 -4.023438 C 14.449219 -4.089844 14.644531 -4.222656 14.84375 -4.355469 C 13.722656 -3.167969 12.207031 -2.109375 10.820312 -1.054688 C 9.894531 -0.394531 8.113281 1.054688 6.992188 0.265625 C 6.53125 0 6.398438 -0.660156 6.265625 -1.121094 C 5.804688 -3.167969 6.136719 -5.609375 6.464844 -7.71875 C 7.191406 -12.140625 8.644531 -16.492188 10.425781 -20.648438 C 11.28125 -22.5625 12.140625 -24.476562 13.65625 -25.929688 C 13.789062 -26.058594 14.050781 -25.796875 14.117188 -25.863281 C 14.25 -25.929688 13.722656 -26.125 13.65625 -26.058594 C 12.929688 -25.664062 12.46875 -24.871094 12.074219 -24.148438 C 10.886719 -22.234375 9.960938 -20.121094 9.171875 -18.011719 C 9.765625 -19.660156 10.425781 -21.308594 11.214844 -22.960938 C 11.675781 -23.816406 12.207031 -25.203125 13.0625 -25.863281 C 15.304688 -27.644531 14.449219 -21.769531 14.183594 -20.914062 C 14.183594 -20.980469 14.449219 -22.429688 14.382812 -22.429688 C 14.25 -22.429688 13.328125 -19.066406 13.328125 -19.066406 L 13.65625 -19.332031 C 13.328125 -18.800781 12.667969 -18.40625 13.523438 -17.8125 C 14.582031 -17.085938 16.625 -18.339844 17.085938 -19.265625 C 17.550781 -20.253906 17.679688 -21.574219 17.746094 -22.5625 C 17.878906 -24.277344 17.417969 -25.269531 16.824219 -26.585938 C 16.164062 -27.972656 15.570312 -28.832031 13.789062 -29.09375 C 12.335938 -29.292969 11.019531 -28.699219 9.894531 -27.839844 C 8.246094 -26.652344 6.992188 -25.136719 5.9375 -23.421875 C 5.671875 -22.960938 3.296875 -18.144531 3.363281 -18.078125 L 3.628906 -18.40625 C 3.296875 -17.679688 3.101562 -16.957031 2.835938 -16.296875 C 2.769531 -16.296875 2.96875 -16.890625 2.902344 -16.890625 C 2.507812 -16.957031 1.320312 -13.328125 1.253906 -12.996094 C 0.792969 -11.613281 0.460938 -10.226562 0.394531 -8.773438 C 0.328125 -7.191406 0.0664062 -5.609375 0 -3.957031 C 0 -3.101562 0 -2.175781 0.132812 -1.320312 C 0.132812 -1.054688 0.660156 0.328125 0.660156 -0.0664062 L 0.988281 1.054688 C 0.921875 0.988281 0.660156 0.328125 0.660156 0.328125 C 0.328125 0.726562 2.109375 3.296875 2.507812 3.695312 C 3.035156 4.289062 3.828125 4.550781 4.617188 4.683594 C 7.257812 5.015625 9.765625 3.496094 11.675781 1.914062 C 14.976562 -0.859375 18.207031 -4.289062 20.648438 -7.851562 C 21.640625 -9.367188 22.761719 -10.753906 23.882812 -12.207031 Z M 4.550781 -17.019531 C 4.421875 -16.363281 4.222656 -15.636719 3.957031 -15.042969 C 3.761719 -14.582031 3.167969 -14.183594 3.101562 -13.855469 C 3.234375 -14.976562 4.089844 -16.097656 4.617188 -17.351562 C 4.617188 -17.21875 4.550781 -17.085938 4.550781 -17.019531 Z M 2.109375 -9.300781 C 1.847656 -8.839844 1.847656 -7.984375 1.847656 -7.257812 C 1.78125 -8.050781 1.78125 -8.90625 2.046875 -9.699219 C 2.046875 -9.699219 2.242188 -9.433594 2.109375 -9.300781 Z M 6.859375 -10.886719 C 7.125 -11.941406 7.457031 -12.996094 7.785156 -14.050781 Z M 2.242188 -10.554688 C 2.175781 -10.359375 2.046875 -10.09375 2.046875 -9.960938 C 2.046875 -10.292969 2.046875 -10.621094 2.375 -10.753906 Z M 8.050781 -14.84375 C 7.984375 -14.777344 7.984375 -14.777344 7.984375 -14.710938 C 7.984375 -14.84375 7.984375 -14.976562 8.050781 -15.109375 Z M 8.050781 -14.84375 "/></g></g></g><g fill="rgb(100%, 100%, 100%)" fill-opacity="1"><g transform="translate(209.000332, 77.09485)"><g><path d="M 26.785156 -34.304688 C 26.71875 -35.230469 25.730469 -34.503906 25.203125 -34.503906 C 22.5625 -34.371094 19.925781 -34.371094 17.351562 -34.242188 C 17.351562 -34.304688 17.484375 -34.570312 17.679688 -34.964844 C 17.417969 -34.503906 17.21875 -34.242188 17.019531 -34.242188 C 19 -38.265625 21.113281 -42.289062 23.617188 -45.984375 C 23.554688 -45.851562 22.5625 -44.203125 22.628906 -44.203125 C 22.828125 -44.136719 25.269531 -47.5 25.335938 -47.964844 C 25.335938 -48.226562 24.742188 -47.566406 24.742188 -47.632812 C 25.136719 -48.027344 25.796875 -48.359375 25.992188 -48.886719 C 26.457031 -50.207031 25.070312 -50.800781 24.082031 -50.996094 C 22.035156 -51.394531 19.726562 -51.128906 18.40625 -49.414062 C 17.152344 -47.898438 16.230469 -46.117188 15.4375 -44.335938 C 15.042969 -43.542969 14.515625 -43.34375 13.988281 -42.621094 C 13.195312 -41.496094 12.667969 -40.179688 12.074219 -38.925781 C 11.546875 -37.804688 11.019531 -36.617188 10.554688 -35.429688 C 10.292969 -34.835938 10.292969 -34.371094 9.699219 -34.175781 C 9.105469 -33.910156 7.984375 -34.109375 7.324219 -34.042969 C 4.75 -33.710938 2.242188 -33.84375 -0.328125 -33.582031 C -1.648438 -33.515625 -2.96875 -33.515625 -4.222656 -33.054688 C -4.484375 -32.988281 -5.9375 -32.65625 -6.070312 -32.460938 C -6.464844 -31.734375 -4.882812 -31.667969 -4.550781 -31.601562 C -2.046875 -31.273438 1.121094 -31.007812 3.628906 -31.46875 C 5.34375 -31.800781 7.125 -31.667969 8.972656 -31.800781 C 8.050781 -29.820312 7.324219 -27.710938 6.597656 -25.597656 L 5.804688 -23.289062 C 5.542969 -22.5625 4.683594 -21.175781 4.683594 -20.386719 C 4.683594 -20.253906 4.882812 -20.582031 5.015625 -20.914062 C 4.683594 -19.925781 4.289062 -18.933594 4.023438 -17.945312 C 4.023438 -18.011719 4.222656 -18.800781 4.15625 -18.800781 C 3.828125 -18.800781 2.507812 -14.777344 2.375 -14.449219 C 1.714844 -12.46875 0.988281 -10.488281 0.660156 -8.378906 C 0.265625 -6.265625 -0.265625 -4.222656 -0.726562 -2.175781 C -0.988281 -1.121094 -1.253906 -0.132812 -1.386719 0.921875 C -1.515625 1.453125 -1.648438 2.046875 -1.648438 2.574219 C -1.648438 2.703125 -1.648438 3.5625 -1.515625 3.296875 L -1.648438 4.617188 L -1.648438 3.628906 C -2.046875 4.089844 -1.648438 6.203125 -1.582031 6.597656 C -1.320312 7.917969 -0.660156 9.105469 0.527344 9.894531 C 1.582031 10.6875 3.234375 11.414062 4.484375 10.820312 C 6.136719 10.027344 7.519531 8.179688 8.578125 6.859375 C 10.886719 4.15625 12.996094 1.320312 15.109375 -1.515625 C 17.019531 -4.15625 19 -6.730469 20.648438 -9.5 C 21.574219 -11.082031 23.355469 -12.535156 23.949219 -14.316406 C 24.277344 -15.175781 24.082031 -16.230469 23.023438 -16.03125 C 22.167969 -15.832031 20.980469 -13.523438 20.453125 -12.863281 C 18.078125 -9.894531 15.832031 -6.859375 13.457031 -3.890625 L 9.632812 0.792969 C 9.039062 1.453125 8.445312 2.175781 7.785156 2.835938 C 7.519531 3.167969 5.871094 4.484375 5.9375 4.882812 C 5.9375 5.015625 6.664062 4.421875 6.925781 4.222656 C 6.597656 4.617188 6.203125 4.949219 5.871094 5.277344 C 5.9375 5.210938 4.550781 6.003906 4.355469 5.871094 C 3.101562 5.34375 4.222656 1.515625 4.421875 0.59375 C 5.609375 -4.75 7.390625 -10.160156 9.171875 -15.304688 C 10.226562 -18.144531 11.28125 -20.847656 12.46875 -23.617188 C 13.0625 -25.003906 13.65625 -26.457031 14.316406 -27.839844 L 15.238281 -30.347656 L 14.515625 -28.898438 C 14.976562 -30.085938 15.636719 -31.867188 16.03125 -31.929688 L 15.832031 -31.535156 C 15.964844 -31.734375 16.097656 -31.867188 16.230469 -31.929688 C 16.957031 -32.394531 18.800781 -31.929688 19.660156 -31.929688 C 20.253906 -31.929688 20.980469 -31.867188 21.574219 -32.0625 C 21.96875 -32.195312 21.835938 -32.394531 22.300781 -32.523438 C 23.089844 -32.65625 24.082031 -32.128906 24.9375 -32.394531 C 25.730469 -32.589844 26.851562 -33.316406 26.785156 -34.242188 Z M 14.25 -30.480469 C 11.28125 -24.210938 9.039062 -17.484375 6.664062 -10.953125 C 5.542969 -7.984375 4.484375 -4.882812 3.761719 -1.78125 L 3.429688 -0.527344 C 3.890625 -2.902344 4.421875 -5.210938 5.078125 -7.519531 C 6.53125 -12.601562 8.378906 -17.613281 10.554688 -22.429688 C 14.25 -30.679688 17.550781 -39.519531 22.828125 -46.972656 C 19.265625 -41.894531 16.890625 -36.085938 14.25 -30.480469 Z M 18.605469 -37.011719 L 20.1875 -40.046875 C 19.859375 -39.980469 19.265625 -38.527344 18.605469 -37.011719 Z M 11.808594 -22.628906 C 11.347656 -21.375 10.820312 -20.1875 10.292969 -19 C 10.820312 -20.253906 11.28125 -21.574219 11.875 -22.894531 C 11.808594 -22.761719 11.808594 -22.695312 11.808594 -22.628906 Z M 17.746094 -35.097656 L 18.40625 -36.550781 C 18.207031 -36.023438 17.945312 -35.492188 17.746094 -35.097656 Z M 3.363281 6.464844 C 3.296875 6.464844 3.234375 6.398438 3.167969 6.332031 Z M 3.363281 6.464844 "/></g></g></g><g fill="rgb(100%, 100%, 100%)" fill-opacity="1"><g transform="translate(229.253163, 77.09485)"><g/></g></g><g fill="rgb(100%, 100%, 100%)" fill-opacity="1"><g transform="translate(247.7248, 77.09485)"><g><path d="M 31.207031 -16.097656 C 31.007812 -17.351562 27.972656 -13.855469 27.839844 -13.722656 C 25.929688 -11.675781 24.082031 -9.433594 21.835938 -7.652344 C 20.78125 -6.859375 20.320312 -6.398438 20.386719 -7.984375 C 20.453125 -9.367188 20.980469 -10.820312 21.375 -12.074219 C 21.574219 -12.734375 22.894531 -15.238281 22.496094 -15.703125 C 22.429688 -15.769531 22.300781 -15.570312 22.167969 -15.4375 C 23.089844 -17.285156 25.335938 -20.453125 22.367188 -21.308594 C 19 -22.234375 17.285156 -18.605469 15.832031 -16.425781 C 14.449219 -14.449219 13.128906 -12.535156 11.546875 -10.753906 C 10.359375 -9.367188 8.511719 -6.730469 6.597656 -6.203125 C 4.816406 -5.609375 6.003906 -8.511719 6.265625 -9.5 C 6.464844 -10.027344 8.839844 -16.164062 8.972656 -16.097656 C 8.839844 -16.097656 8.707031 -16.03125 8.578125 -15.832031 C 9.300781 -17.417969 10.09375 -19 10.953125 -20.519531 C 10.753906 -20.121094 10.554688 -19.460938 10.554688 -19.460938 C 10.886719 -19.394531 12.46875 -22.628906 12.335938 -22.628906 C 12.207031 -22.5625 12.074219 -22.429688 11.941406 -22.234375 C 12.46875 -23.15625 13.128906 -23.617188 11.941406 -24.542969 C 10.753906 -25.464844 8.644531 -25.664062 7.457031 -24.609375 C 6.003906 -23.421875 5.078125 -21.308594 4.355469 -19.660156 C 3.890625 -18.738281 3.101562 -18.207031 2.640625 -17.152344 C 1.714844 -15.109375 1.1875 -13.0625 0.660156 -10.953125 C 0.132812 -8.90625 -0.199219 -6.796875 0.132812 -4.683594 C 0.328125 -3.761719 0.660156 -2.703125 1.386719 -2.046875 C 1.582031 -1.914062 3.496094 -1.1875 3.363281 -1.648438 C 3.234375 -1.648438 3.101562 -1.648438 3.035156 -1.714844 C 3.761719 -1.714844 4.484375 -2.046875 5.144531 -2.441406 C 5.210938 -2.375 4.617188 -2.109375 4.617188 -2.046875 C 5.277344 -1.1875 10.292969 -6.265625 10.753906 -6.859375 C 12.402344 -8.972656 14.050781 -11.019531 15.769531 -13.0625 C 14.910156 -10.753906 13.457031 -7.585938 14.84375 -5.078125 C 15.636719 -3.761719 17.152344 -3.035156 18.605469 -3.167969 C 21.707031 -3.363281 24.476562 -6.730469 26.390625 -8.773438 C 27.644531 -10.160156 28.898438 -11.613281 29.820312 -13.195312 C 30.214844 -13.855469 31.273438 -15.304688 31.207031 -16.097656 Z M 21.175781 -14.777344 C 21.046875 -14.382812 20.980469 -13.855469 20.78125 -13.523438 C 20.78125 -13.457031 20.714844 -13.394531 20.648438 -13.328125 C 20.714844 -13.394531 20.714844 -13.457031 20.714844 -13.523438 C 20.1875 -15.175781 22.167969 -17.285156 22.828125 -18.933594 C 22.300781 -17.484375 21.640625 -16.164062 21.175781 -14.777344 Z M 5.476562 -6.265625 C 5.078125 -8.179688 6.464844 -10.820312 7.191406 -12.601562 C 6.265625 -10.027344 5.34375 -6.859375 5.476562 -6.265625 Z M 15.769531 -12.734375 C 15.769531 -12.996094 15.832031 -13.195312 16.03125 -13.328125 C 15.898438 -13.128906 15.832031 -12.929688 15.769531 -12.734375 Z M 15.769531 -12.734375 "/></g></g></g><g fill="rgb(100%, 100%, 100%)" fill-opacity="1"><g transform="translate(274.112838, 77.09485)"><g><path d="M 26.191406 -15.503906 C 25.992188 -16.425781 25.464844 -16.558594 24.804688 -16.296875 C 23.554688 -15.703125 22.300781 -14.382812 21.113281 -13.589844 C 18.40625 -11.875 15.703125 -10.488281 12.800781 -9.039062 C 12.800781 -9.105469 12.734375 -9.238281 12.667969 -9.433594 C 12.734375 -9.105469 12.667969 -8.972656 12.601562 -8.90625 C 11.941406 -11.742188 11.28125 -14.582031 10.753906 -17.484375 C 11.019531 -16.230469 11.613281 -14.117188 12.074219 -12.335938 C 11.480469 -15.109375 10.753906 -18.539062 10.820312 -18.539062 C 10.6875 -18.472656 10.6875 -18.339844 10.6875 -18.207031 C 10.554688 -19 10.359375 -19.988281 10.488281 -20.847656 C 10.554688 -21.835938 11.082031 -22.695312 11.414062 -23.617188 C 11.347656 -23.15625 11.214844 -22.5625 11.214844 -22.5625 C 11.613281 -22.496094 11.875 -24.9375 11.875 -25.203125 C 11.808594 -25.597656 10.953125 -26.851562 10.953125 -26.523438 C 9.171875 -28.171875 5.671875 -24.542969 5.144531 -22.960938 C 4.75 -21.902344 4.75 -20.78125 4.816406 -19.660156 C 4.882812 -18.539062 5.210938 -17.550781 5.542969 -16.492188 C 5.738281 -15.703125 5.476562 -15.175781 5.542969 -14.316406 C 5.671875 -12.996094 6.136719 -11.675781 6.398438 -10.425781 C 6.664062 -9.433594 7.519531 -7.457031 7.324219 -6.53125 C 7.191406 -5.609375 5.210938 -4.816406 4.355469 -4.289062 C 3.234375 -3.5625 2.109375 -2.703125 0.988281 -1.847656 C -0.988281 -0.328125 -3.101562 1.582031 -3.890625 4.023438 C -4.023438 4.355469 -4.484375 5.804688 -4.023438 6.070312 C -3.957031 6.136719 -3.761719 5.015625 -3.695312 4.882812 C -4.550781 9.238281 -0.265625 11.347656 3.761719 11.414062 C 8.3125 11.546875 11.480469 8.90625 13.0625 4.816406 C 13.722656 3.035156 13.921875 1.1875 13.855469 -0.660156 C 13.855469 -1.914062 13.722656 -3.101562 13.523438 -4.289062 C 13.394531 -5.34375 13.261719 -5.277344 13.988281 -5.871094 C 14.515625 -6.265625 15.304688 -6.53125 15.832031 -6.796875 C 17.945312 -7.917969 19.859375 -9.238281 21.769531 -10.621094 C 23.15625 -11.613281 26.457031 -13.328125 26.191406 -15.4375 Z M -0.460938 7.191406 C -2.175781 6.664062 -0.460938 3.957031 0.132812 3.101562 C 1.121094 1.78125 2.574219 0.792969 3.890625 -0.132812 L 5.871094 -1.453125 C 6.070312 -1.582031 7.324219 -2.574219 6.925781 -2.441406 L 7.71875 -2.902344 L 7.257812 -2.507812 C 7.390625 -2.574219 7.585938 -2.640625 7.71875 -2.769531 C 7.785156 -1.1875 7.785156 0.394531 7.324219 1.980469 C 7.257812 2.242188 6.003906 4.882812 5.476562 5.410156 L 5.804688 5.144531 C 5.210938 5.871094 4.550781 6.464844 3.761719 6.925781 C 3.761719 6.859375 4.355469 6.464844 4.289062 6.398438 L 2.441406 7.125 C 1.515625 7.324219 0.460938 7.519531 -0.460938 7.191406 Z M 7.851562 9.105469 C 6.136719 9.832031 4.484375 10.160156 2.703125 10.226562 C 5.9375 10.027344 9.300781 8.445312 11.214844 5.738281 C 10.488281 7.191406 9.566406 8.3125 7.851562 9.105469 Z M 12.667969 -9.632812 C 12.601562 -10.09375 12.46875 -10.753906 12.269531 -11.480469 C 12.402344 -10.753906 12.535156 -10.027344 12.667969 -9.632812 Z M 13.523438 -2.769531 C 13.457031 -2.835938 13.457031 -2.96875 13.457031 -3.101562 C 13.457031 -2.96875 13.523438 -2.835938 13.523438 -2.769531 Z M 13.523438 -2.769531 "/></g></g></g><g fill="rgb(100%, 100%, 100%)" fill-opacity="1"><g transform="translate(295.487162, 77.09485)"><g><path d="M 22.367188 -44.796875 L 22.367188 -44.863281 C 22.035156 -47.632812 17.878906 -48.292969 15.964844 -46.644531 C 14.976562 -45.785156 15.109375 -44.929688 15.109375 -43.871094 C 15.042969 -42.027344 14.449219 -40.113281 14.183594 -38.265625 C 12.863281 -31.074219 11.347656 -23.882812 9.632812 -16.824219 C 9.238281 -15.175781 8.644531 -13.589844 8.246094 -11.941406 C 7.984375 -10.6875 6.796875 -7.324219 7.851562 -6.265625 C 9.5 -4.550781 11.019531 -10.027344 11.414062 -11.019531 C 13.394531 -16.492188 14.710938 -22.167969 16.558594 -27.644531 C 17.679688 -31.007812 18.738281 -34.371094 19.988281 -37.671875 C 20.648438 -39.386719 21.375 -41.101562 21.96875 -42.816406 C 22.167969 -43.476562 22.300781 -44.070312 22.367188 -44.796875 Z M 10.027344 -0.660156 C 10.027344 -1.121094 10.425781 -1.714844 10.027344 -2.242188 C 9.699219 -2.640625 9.699219 -2.375 9.367188 -2.441406 C 8.050781 -2.96875 6.796875 -2.640625 5.609375 -2.046875 C 4.089844 -1.253906 1.648438 1.453125 2.574219 3.429688 C 2.835938 3.957031 4.023438 5.015625 4.484375 5.210938 C 5.738281 5.871094 6.398438 5.015625 7.191406 4.289062 C 8.113281 3.429688 8.773438 3.101562 9.238281 2.046875 C 9.367188 1.78125 10.953125 -0.660156 10.027344 -0.660156 Z M 14.910156 -31.007812 L 14.910156 -30.941406 C 14.777344 -28.960938 14.449219 -27.117188 14.050781 -25.136719 C 13.722656 -23.355469 12.667969 -21.707031 12.207031 -20.054688 C 12.46875 -21.113281 12.800781 -21.835938 12.929688 -23.089844 C 13.0625 -24.410156 13.457031 -25.796875 13.921875 -27.117188 C 14.316406 -28.367188 14.644531 -29.6875 14.910156 -31.007812 Z M 12.140625 -19.792969 C 12.140625 -19.859375 12.140625 -19.925781 12.207031 -20.054688 C 12.140625 -19.925781 12.140625 -19.859375 12.140625 -19.792969 Z M 12.140625 -19.792969 "/></g></g></g></svg>