<svg xmlns="http://www.w3.org/2000/svg" xmlns:xlink="http://www.w3.org/1999/xlink" width="1080" zoomAndPan="magnify" viewBox="0 0 810 232.499993" height="310" preserveAspectRatio="xMidYMid meet" version="1.0"><defs><g/><clipPath id="id1"><path d="M 589.449219 113.007812 L 714.429688 113.007812 L 714.429688 205.808594 L 589.449219 205.808594 Z M 589.449219 113.007812 " clip-rule="nonzero"/></clipPath></defs><g fill="rgb(100%, 100%, 100%)" fill-opacity="1"><g transform="translate(107.742171, 160.873248)"><g><path d="M 149.652344 -115.742188 C 149.488281 -116.070312 149.652344 -115.90625 149.652344 -115.90625 C 148.835938 -118.023438 146.0625 -121.285156 143.457031 -120.796875 C 141.5 -120.46875 142.152344 -119.65625 141.335938 -118.675781 C 138.074219 -114.765625 134.328125 -111.339844 131.230469 -107.429688 C 123.078125 -97.160156 116.070312 -85.910156 109.058594 -74.824219 C 102.050781 -63.738281 95.527344 -52.65625 90.148438 -40.753906 C 87.867188 -35.699219 84.769531 -31.136719 82.324219 -26.246094 C 78.902344 -19.5625 75.964844 -12.550781 73.03125 -5.707031 C 73.03125 -6.03125 73.359375 -13.53125 72.867188 -13.203125 C 72.542969 -12.878906 72.378906 -12.714844 72.378906 -12.550781 C 72.707031 -16.140625 74.011719 -20.539062 74.664062 -24.453125 C 75.640625 -30.160156 76.128906 -35.863281 76.617188 -41.570312 C 76.945312 -43.363281 79.878906 -61.132812 81.671875 -69.933594 C 80.53125 -65.53125 79.226562 -59.339844 78.902344 -58.6875 C 80.367188 -66.347656 81.996094 -74.011719 84.605469 -81.507812 C 84.441406 -80.855469 84.441406 -80.203125 84.769531 -80.203125 C 85.257812 -80.203125 87.050781 -85.421875 86.5625 -85.585938 L 85.910156 -85.09375 C 86.5625 -86.5625 87.867188 -86.726562 87.703125 -89.171875 C 87.539062 -91.453125 86.398438 -93.570312 84.605469 -95.039062 C 83.300781 -96.34375 80.855469 -97.8125 78.902344 -97.320312 C 77.109375 -96.832031 77.269531 -95.855469 76.617188 -95.039062 C 70.421875 -87.214844 62.925781 -78.738281 56.894531 -70.097656 C 54.9375 -67.488281 53.957031 -64.71875 52.003906 -61.945312 C 48.417969 -57.382812 45.15625 -52.492188 41.40625 -48.089844 C 37.65625 -43.363281 35.539062 -38.472656 32.113281 -33.746094 L 23.472656 -21.355469 C 26.410156 -32.113281 28.203125 -43.035156 30.320312 -53.957031 C 30.808594 -56.730469 36.191406 -86.398438 36.191406 -86.398438 C 36.027344 -86.398438 32.765625 -69.121094 32.277344 -67.328125 C 34.070312 -76.78125 36.027344 -86.5625 37.003906 -96.179688 C 37.003906 -96.34375 36.84375 -93.246094 37.003906 -93.410156 C 37.820312 -93.410156 38.144531 -100.257812 37.492188 -100.09375 C 37.332031 -99.929688 37.167969 -99.765625 37.167969 -99.605469 C 37.167969 -101.070312 37.984375 -102.210938 37.984375 -104.332031 C 37.820312 -107.753906 37.332031 -111.015625 35.863281 -114.113281 C 34.722656 -116.558594 33.09375 -119.167969 30.320312 -119.65625 C 29.667969 -119.816406 29.507812 -119.328125 28.691406 -119.492188 C 27.875 -119.492188 27.714844 -120.144531 26.898438 -120.144531 C 23.3125 -119.980469 20.539062 -116.558594 19.234375 -113.625 C 17.441406 -110.199219 15.324219 -98.460938 22.824219 -103.515625 C 22.824219 -102.703125 22.332031 -94.875 22.171875 -94.386719 C 22.496094 -94.550781 22.496094 -94.875 22.660156 -95.203125 C 22.496094 -93.570312 22.332031 -92.105469 22.007812 -90.636719 C 21.84375 -90.800781 22.171875 -91.941406 21.84375 -91.941406 C 20.378906 -91.941406 18.910156 -77.757812 18.910156 -75.964844 C 18.746094 -72.707031 18.09375 -69.773438 17.28125 -66.511719 C 16.953125 -65.042969 16.628906 -63.578125 16.464844 -62.109375 C 16.300781 -61.945312 16.140625 -58.199219 16.628906 -59.175781 C 16.628906 -58.847656 16.464844 -58.6875 16.464844 -58.359375 C 16.300781 -58.523438 16.300781 -58.6875 16.300781 -58.847656 C 16.140625 -58.6875 15.324219 -53.46875 15.160156 -53.308594 C 14.34375 -50.535156 13.203125 -48.089844 12.390625 -45.320312 C 10.597656 -38.796875 9.617188 -32.113281 7.988281 -25.59375 C 12.226562 -38.472656 16.140625 -52.164062 18.910156 -65.371094 C 21.03125 -75.964844 23.964844 -87.378906 24.777344 -98.300781 C 23.964844 -84.933594 21.355469 -71.402344 18.09375 -58.6875 C 16.140625 -50.863281 14.019531 -43.035156 11.898438 -35.210938 C 9.78125 -27.222656 6.195312 -19.5625 4.238281 -11.410156 C 3.261719 -7.660156 2.445312 -4.726562 1.140625 -0.976562 C -0.164062 2.769531 -1.140625 6.847656 2.933594 9.292969 C 7.171875 11.738281 14.835938 10.757812 16.953125 5.867188 C 17.28125 5.054688 17.441406 4.238281 17.605469 3.421875 C 19.074219 -1.304688 22.332031 -5.542969 24.777344 -9.78125 C 29.179688 -17.441406 33.746094 -25.105469 38.796875 -32.441406 C 44.015625 -40.429688 49.394531 -48.089844 54.285156 -56.242188 C 56.566406 -59.992188 59.992188 -63.25 62.597656 -66.835938 L 68.792969 -74.824219 C 68.46875 -74.011719 66.511719 -65.042969 66.347656 -65.042969 C 66.511719 -65.042969 66.511719 -65.207031 66.675781 -65.207031 C 66.347656 -64.230469 66.183594 -63.089844 66.023438 -62.109375 C 65.695312 -62.109375 66.183594 -63.089844 65.859375 -63.089844 C 63.738281 -63.414062 62.4375 -49.71875 62.4375 -48.742188 C 62.109375 -46.132812 61.292969 -43.527344 60.804688 -40.917969 C 60.316406 -38.796875 60.644531 -37.003906 60.644531 -35.539062 C 60.480469 -35.863281 60.480469 -33.746094 60.316406 -33.253906 C 60.152344 -31.460938 59.664062 -30.808594 59.175781 -29.179688 C 57.871094 -25.429688 57.546875 -21.03125 57.382812 -17.28125 C 57.21875 -10.105469 56.402344 -2.28125 57.382812 4.726562 C 58.035156 10.269531 63.414062 14.996094 69.121094 14.507812 C 72.21875 14.183594 72.867188 12.878906 73.519531 10.269531 C 74.011719 7.988281 75.152344 5.707031 76.292969 3.261719 C 80.367188 -5.378906 84.441406 -14.183594 89.007812 -22.496094 C 91.941406 -27.875 93.570312 -33.253906 96.507812 -38.308594 C 100.417969 -45.15625 104.167969 -52.003906 108.40625 -58.523438 C 110.363281 -61.621094 111.832031 -64.71875 113.132812 -67.816406 C 114.925781 -71.726562 118.351562 -75.152344 120.796875 -78.738281 C 123.566406 -82.648438 126.011719 -86.5625 129.109375 -90.476562 C 131.882812 -93.898438 135.304688 -97.320312 137.585938 -101.070312 C 138.566406 -102.703125 137.914062 -102.703125 139.378906 -104.167969 C 140.359375 -105.148438 141.824219 -106.289062 143.128906 -107.265625 C 145.738281 -109.386719 150.953125 -111.503906 149.652344 -115.742188 Z M 77.269531 -52.65625 C 77.109375 -52.164062 77.597656 -53.308594 78.085938 -54.449219 C 78.085938 -54.609375 78.25 -54.773438 78.25 -54.9375 C 77.757812 -52.65625 77.269531 -50.863281 76.945312 -48.90625 C 76.945312 -50.046875 76.78125 -51.023438 77.269531 -52.65625 Z M 83.140625 -74.664062 C 82.976562 -74.664062 82.648438 -73.847656 82.324219 -72.21875 C 82.648438 -73.683594 83.140625 -74.664062 83.140625 -74.664062 Z M 83.140625 -74.664062 "/></g></g></g><g fill="rgb(100%, 100%, 100%)" fill-opacity="1"><g transform="translate(218.105082, 160.873248)"><g><path d="M 74.988281 -40.589844 C 74.988281 -40.589844 75.152344 -40.429688 74.988281 -40.753906 C 74.171875 -41.894531 73.03125 -41.082031 71.890625 -40.753906 C 67.164062 -39.777344 62.273438 -38.636719 57.382812 -37.820312 C 59.175781 -43.6875 60.96875 -49.882812 61.621094 -55.914062 C 61.945312 -58.199219 62.109375 -60.644531 61.621094 -62.925781 C 61.292969 -64.390625 60.804688 -65.859375 59.992188 -67.164062 C 59.992188 -67.164062 58.035156 -69.609375 58.523438 -68.304688 L 58.359375 -68.46875 L 57.707031 -69.773438 L 58.359375 -69.121094 C 58.523438 -70.097656 55.753906 -71.890625 55.753906 -71.890625 C 51.675781 -75.964844 46.132812 -79.0625 40.589844 -75.964844 C 37.167969 -74.011719 34.398438 -70.75 32.113281 -67.488281 C 31.300781 -66.347656 30.484375 -65.042969 29.832031 -63.738281 C 29.179688 -62.4375 28.203125 -58.199219 27.222656 -57.546875 C 26.410156 -56.894531 23.964844 -56.730469 22.824219 -56.078125 C 21.191406 -55.425781 19.726562 -54.609375 18.421875 -53.632812 C 15.324219 -51.675781 12.878906 -48.90625 10.597656 -46.132812 C 6.683594 -40.917969 4.726562 -35.050781 1.957031 -29.832031 C -3.261719 -19.886719 2.445312 -6.847656 12.0625 -2.121094 C 15.160156 -0.652344 18.746094 0 22.007812 -0.324219 C 25.429688 -0.816406 28.691406 -2.609375 31.300781 -4.566406 C 33.746094 -6.359375 39.125 -9.617188 40.101562 -12.390625 C 40.101562 -12.550781 39.777344 -12.390625 39.289062 -11.898438 L 44.015625 -17.441406 C 44.179688 -17.28125 42.875 -15.648438 42.875 -15.648438 C 44.015625 -15.160156 49.882812 -23.800781 50.535156 -24.453125 C 51.675781 -26.410156 52.816406 -28.527344 54.121094 -30.484375 C 55.261719 -31.953125 54.9375 -31.789062 56.566406 -32.441406 C 56.402344 -32.277344 58.523438 -32.929688 58.847656 -32.929688 C 60.644531 -33.253906 79.714844 -34.558594 74.988281 -40.589844 Z M 18.585938 -7.660156 L 18.421875 -7.660156 C 4.890625 -5.707031 20.539062 -34.398438 20.867188 -36.027344 L 19.886719 -34.558594 C 22.332031 -39.449219 24.617188 -43.363281 25.757812 -44.667969 C 27.550781 -36.515625 36.351562 -33.417969 43.527344 -32.441406 C 38.796875 -22.984375 29.996094 -9.78125 18.585938 -7.660156 Z M 50.699219 -52.816406 C 49.558594 -48.253906 48.578125 -42.222656 46.132812 -38.144531 C 45.320312 -36.515625 45.808594 -37.003906 44.179688 -36.679688 C 43.199219 -36.351562 41.082031 -36.679688 40.101562 -36.84375 C 38.308594 -37.003906 36.191406 -37.332031 34.886719 -38.472656 C 32.605469 -40.429688 32.929688 -43.527344 33.253906 -46.296875 C 33.582031 -49.070312 34.398438 -51.675781 35.375 -54.285156 C 35.863281 -55.261719 38.960938 -60.480469 38.472656 -61.457031 C 38.308594 -61.945312 36.515625 -59.011719 36.351562 -58.847656 C 37.332031 -60.644531 38.308594 -61.621094 39.125 -62.761719 C 38.960938 -62.761719 39.125 -62.925781 39.289062 -63.25 L 39.289062 -63.089844 L 39.449219 -63.414062 C 39.449219 -63.414062 39.449219 -63.578125 39.613281 -63.578125 C 42.058594 -66.835938 48.089844 -74.171875 51.351562 -69.121094 C 53.796875 -64.882812 51.511719 -56.894531 50.699219 -52.816406 Z M 39.449219 -63.414062 L 39.613281 -63.578125 C 39.613281 -63.414062 39.449219 -63.414062 39.449219 -63.414062 Z M 39.449219 -63.414062 "/></g></g></g><g fill="rgb(100%, 100%, 100%)" fill-opacity="1"><g transform="translate(281.844955, 160.873248)"><g><path d="M 66.835938 -39.613281 C 65.859375 -43.851562 61.945312 -38.144531 61.132812 -37.167969 L 52.164062 -25.105469 L 43.363281 -13.53125 L 38.636719 -7.5 C 38.144531 -6.847656 34.558594 -2.28125 34.886719 -2.28125 C 35.210938 -2.609375 35.699219 -2.609375 36.191406 -3.097656 C 33.746094 -0.488281 24.777344 7.660156 23.148438 5.707031 C 21.84375 4.074219 25.429688 -2.769531 25.917969 -4.402344 C 27.714844 -9.128906 29.34375 -14.019531 31.300781 -18.585938 C 33.417969 -23.3125 35.863281 -28.039062 37.820312 -32.765625 C 39.777344 -37.820312 36.84375 -39.613281 32.113281 -40.753906 C 29.996094 -41.242188 27.386719 -41.242188 24.941406 -41.570312 C 24.941406 -41.40625 25.105469 -41.40625 25.105469 -41.40625 C 27.222656 -41.082031 30.320312 -40.917969 32.929688 -40.101562 C 29.015625 -41.242188 24.125 -40.753906 21.03125 -41.570312 C 18.910156 -42.058594 17.605469 -42.058594 17.933594 -44.503906 C 18.257812 -47.765625 21.679688 -51.1875 22.824219 -54.285156 C 22.824219 -54.121094 21.679688 -51.1875 21.84375 -51.1875 C 22.660156 -50.863281 23.964844 -55.425781 23.964844 -56.078125 C 23.800781 -56.894531 21.84375 -59.339844 21.679688 -58.359375 L 22.007812 -57.871094 C 14.183594 -63.25 4.890625 -52.164062 6.519531 -44.179688 C 6.847656 -43.035156 7.5 -42.382812 7.988281 -41.082031 C 8.3125 -40.101562 7.988281 -38.960938 8.964844 -37.65625 C 12.390625 -33.417969 18.585938 -33.253906 23.472656 -34.234375 C 22.660156 -33.09375 14.019531 -14.835938 14.507812 -14.671875 L 13.367188 -10.597656 C 13.203125 -10.757812 13.855469 -12.0625 13.53125 -12.0625 C 12.390625 -12.226562 10.105469 -2.769531 9.945312 -1.957031 C 9.292969 1.957031 9.453125 5.378906 11.085938 8.964844 C 12.0625 11.25 13.203125 13.203125 15.324219 14.507812 C 17.28125 15.8125 19.726562 16.464844 22.007812 15.976562 C 22.824219 15.648438 25.917969 13.53125 25.105469 13.695312 L 26.246094 13.203125 C 26.082031 13.367188 25.917969 13.53125 25.917969 13.695312 C 26.410156 13.855469 33.90625 7.824219 34.886719 7.171875 C 40.101562 2.769531 44.339844 -2.609375 48.253906 -7.988281 C 52.164062 -13.53125 56.242188 -19.074219 59.992188 -24.617188 C 61.785156 -27.222656 63.414062 -29.832031 64.71875 -32.605469 C 65.695312 -34.558594 67.328125 -37.332031 66.835938 -39.613281 Z M 18.09375 -20.050781 C 19.234375 -22.984375 20.539062 -25.757812 22.007812 -28.527344 C 22.332031 -29.015625 24.617188 -34.886719 25.757812 -35.210938 C 24.941406 -34.722656 21.519531 -26.734375 20.703125 -25.269531 L 17.605469 -18.09375 C 15.976562 -14.183594 14.183594 -10.105469 13.042969 -5.867188 C 14.183594 -10.757812 16.140625 -15.488281 18.09375 -20.050781 Z M 14.183594 11.25 C 15.160156 12.550781 16.464844 13.855469 18.257812 14.507812 C 16.789062 14.019531 15.488281 13.203125 14.507812 12.226562 C 14.671875 12.226562 14.671875 12.390625 14.671875 12.550781 C 13.695312 11.25 12.390625 8.476562 12.226562 7.988281 C 11.738281 6.03125 11.574219 3.75 11.738281 1.792969 C 11.738281 0.164062 11.898438 -1.140625 12.226562 -2.609375 L 12.226562 -2.445312 C 11.898438 -0.324219 11.738281 1.792969 11.898438 4.074219 L 11.898438 4.890625 C 11.738281 4.726562 11.738281 4.566406 11.738281 4.566406 C 11.738281 4.566406 11.738281 4.726562 11.898438 5.054688 L 11.898438 5.214844 L 12.550781 8.640625 L 12.0625 6.519531 C 12.390625 7.5 13.203125 9.292969 14.019531 11.085938 L 13.855469 10.921875 C 13.855469 11.085938 14.019531 11.25 14.183594 11.410156 Z M 18.746094 -42.546875 C 19.5625 -41.894531 21.03125 -41.734375 22.496094 -41.570312 C 21.191406 -41.734375 20.050781 -42.058594 19.234375 -42.710938 C 19.234375 -42.710938 18.257812 -43.527344 18.09375 -43.851562 C 18.09375 -43.527344 18.421875 -42.710938 18.746094 -42.546875 Z M 35.863281 -29.832031 L 32.441406 -22.660156 L 35.863281 -29.996094 Z M 12.390625 -3.097656 C 12.390625 -2.933594 12.226562 -2.769531 12.226562 -2.609375 L 12.226562 -2.769531 C 12.226562 -2.933594 12.390625 -2.933594 12.390625 -3.097656 Z M 36.027344 -30.320312 L 36.027344 -30.160156 L 35.863281 -30.160156 Z M 36.027344 -30.320312 L 36.027344 -30.160156 L 35.863281 -30.160156 Z M 12.550781 -5.214844 C 12.550781 -5.378906 12.714844 -5.542969 12.714844 -5.867188 C 12.714844 -5.542969 12.550781 -5.378906 12.550781 -5.214844 Z M 13.203125 9.78125 C 13.203125 9.78125 13.367188 9.945312 13.367188 10.105469 C 13.367188 9.945312 13.203125 9.945312 13.203125 9.78125 Z M 18.257812 -44.179688 C 18.09375 -44.179688 18.09375 -44.015625 18.09375 -44.015625 Z M 18.257812 -44.179688 "/></g></g></g><g fill="rgb(100%, 100%, 100%)" fill-opacity="1"><g transform="translate(336.781876, 160.873248)"><g><path d="M 86.238281 -39.449219 C 86.074219 -42.382812 83.953125 -41.570312 82.488281 -40.265625 C 81.671875 -39.449219 71.074219 -27.714844 71.566406 -26.898438 C 71.890625 -26.898438 72.378906 -26.898438 72.707031 -27.222656 C 69.609375 -24.125 64.71875 -21.191406 60.96875 -18.421875 C 57.21875 -15.488281 52.980469 -10.105469 47.765625 -9.78125 C 47.273438 -9.78125 46.785156 -9.617188 46.132812 -9.78125 C 43.851562 -10.105469 38.308594 -20.050781 37.820312 -22.171875 C 37.984375 -20.539062 41.734375 -13.203125 42.710938 -11.574219 C 38.960938 -15.8125 37.003906 -22.171875 36.027344 -27.875 C 36.191406 -27.386719 36.515625 -26.898438 36.679688 -26.898438 C 37.167969 -27.0625 36.515625 -30.320312 36.515625 -30.484375 C 36.84375 -30.808594 39.289062 -31.460938 39.9375 -31.789062 C 43.527344 -33.253906 46.949219 -35.050781 50.371094 -37.003906 C 56.730469 -40.429688 63.089844 -44.503906 68.304688 -49.558594 C 74.011719 -55.261719 78.902344 -63.25 71.402344 -69.773438 C 63.902344 -76.128906 53.308594 -67.652344 47.601562 -62.597656 C 42.058594 -57.707031 37.332031 -52.003906 32.929688 -46.132812 C 30.972656 -43.199219 28.855469 -40.429688 27.0625 -37.492188 C 25.917969 -35.863281 22.332031 -31.789062 22.660156 -29.832031 C 22.660156 -29.832031 25.757812 -33.582031 25.917969 -33.746094 C 24.777344 -32.113281 23.636719 -30.320312 22.660156 -28.527344 C 22.660156 -28.691406 20.050781 -25.105469 19.726562 -24.453125 L 15.324219 -16.789062 C 17.117188 -24.453125 19.234375 -32.113281 21.519531 -39.777344 C 22.660156 -43.6875 23.636719 -45.972656 26.246094 -49.070312 C 28.527344 -51.839844 30.808594 -54.609375 32.929688 -57.382812 C 37.820312 -63.578125 42.222656 -70.261719 46.625 -76.945312 C 49.882812 -81.835938 52.328125 -88.191406 56.078125 -92.269531 C 60.644531 -97.648438 64.554688 -104.820312 66.835938 -111.667969 C 68.140625 -115.417969 67.652344 -118.515625 65.859375 -122.261719 C 62.4375 -128.945312 55.589844 -134.980469 48.089844 -131.554688 C 41.894531 -128.785156 37.492188 -122.425781 34.234375 -116.722656 C 32.113281 -113.132812 30.160156 -109.386719 28.527344 -105.472656 L 25.269531 -98.625 C 24.777344 -97.320312 24.289062 -95.203125 23.800781 -94.0625 C 23.800781 -93.898438 23.636719 -93.734375 23.636719 -93.734375 C 22.332031 -90.476562 21.355469 -87.378906 20.214844 -84.117188 C 20.050781 -84.28125 21.03125 -87.378906 21.03125 -87.378906 C 20.214844 -87.378906 17.605469 -79.550781 17.28125 -78.574219 C 15.8125 -74.664062 14.507812 -70.75 13.203125 -66.675781 C 10.757812 -59.339844 8.804688 -51.839844 7.335938 -44.179688 C 6.03125 -35.863281 3.585938 -27.714844 1.792969 -19.5625 C 1.140625 -15.976562 0 -12.390625 0 -8.804688 C 0 -6.847656 0.324219 -4.726562 1.46875 -3.097656 C 1.792969 -2.769531 4.566406 -0.488281 4.566406 -0.652344 C 4.566406 -0.652344 4.402344 -0.816406 4.402344 -0.976562 C 5.214844 -0.324219 6.847656 0.164062 8.152344 0.324219 C 7.011719 0.324219 5.542969 0.164062 5.214844 -0.324219 C 6.359375 1.304688 10.757812 0.164062 11.085938 0.164062 C 14.835938 -0.652344 15.648438 -5.867188 17.605469 -8.804688 L 25.429688 -21.84375 C 26.082031 -18.421875 27.386719 -14.507812 29.015625 -11.574219 C 29.34375 -10.757812 34.070312 -4.238281 34.398438 -4.566406 C 34.398438 -4.726562 34.234375 -5.054688 34.234375 -5.214844 C 34.886719 -4.402344 35.539062 -3.75 36.351562 -3.261719 C 36.191406 -3.097656 35.699219 -3.75 35.539062 -3.421875 C 34.558594 -1.957031 41.570312 0.488281 42.710938 0.488281 C 44.992188 0.324219 46.949219 -1.304688 49.070312 -2.121094 C 50.863281 -2.933594 52.65625 -3.585938 54.285156 -4.890625 C 56.242188 -6.519531 54.121094 -5.542969 55.425781 -6.519531 L 55.425781 -6.195312 C 55.914062 -6.847656 63.25 -10.921875 63.578125 -11.25 C 67.328125 -14.019531 70.261719 -17.769531 73.519531 -21.191406 C 76.292969 -23.964844 78.574219 -27.0625 80.855469 -29.996094 C 83.300781 -32.765625 86.5625 -35.050781 86.238281 -39.289062 Z M 50.863281 -119.003906 C 52.492188 -121.285156 57.21875 -126.992188 60.152344 -123.078125 C 63.089844 -119.167969 58.035156 -109.875 56.242188 -106.125 C 53.796875 -100.582031 50.699219 -95.203125 47.601562 -89.984375 L 43.199219 -82.8125 C 41.570312 -80.367188 39.449219 -78.085938 38.472656 -75.640625 C 39.125 -76.78125 40.429688 -78.25 41.242188 -79.226562 L 44.828125 -84.933594 C 47.601562 -89.332031 50.210938 -93.734375 52.65625 -98.300781 C 53.957031 -100.417969 55.261719 -102.863281 56.730469 -105.472656 C 55.101562 -102.050781 53.308594 -98.789062 51.511719 -95.527344 C 44.339844 -82.488281 36.027344 -70.261719 27.0625 -58.523438 C 29.996094 -69.121094 33.09375 -79.714844 37.003906 -90.148438 C 40.753906 -99.929688 44.503906 -110.527344 50.863281 -119.003906 Z M 34.558594 -35.050781 C 39.9375 -42.546875 45.480469 -49.882812 51.839844 -56.566406 C 53.308594 -58.199219 61.457031 -67.488281 64.230469 -65.53125 C 66.835938 -63.578125 57.546875 -52.980469 56.242188 -51.511719 C 50.210938 -44.992188 42.875 -38.308594 34.558594 -35.050781 Z M 35.539062 -93.570312 C 37.492188 -98.300781 39.289062 -103.191406 41.570312 -108.082031 C 41.734375 -108.734375 43.363281 -110.851562 44.179688 -112.320312 C 43.363281 -110.199219 40.917969 -106.613281 40.589844 -105.636719 C 37.984375 -98.953125 36.027344 -92.105469 33.746094 -85.257812 C 31.136719 -77.109375 28.527344 -69.28125 26.410156 -61.132812 L 26.734375 -62.4375 L 26.570312 -62.273438 C 26.570312 -62.4375 26.734375 -62.4375 26.734375 -62.597656 C 28.855469 -72.867188 31.460938 -83.792969 35.539062 -93.570312 Z M 23.800781 -94.0625 L 23.636719 -93.898438 C 23.800781 -93.898438 23.800781 -94.0625 23.800781 -94.0625 Z M 23.636719 -93.734375 L 23.636719 -93.898438 Z M 23.636719 -93.734375 "/></g></g></g><g fill="rgb(100%, 100%, 100%)" fill-opacity="1"><g transform="translate(411.117866, 160.873248)"><g><path d="M 74.988281 -40.589844 C 74.988281 -40.589844 75.152344 -40.429688 74.988281 -40.753906 C 74.171875 -41.894531 73.03125 -41.082031 71.890625 -40.753906 C 67.164062 -39.777344 62.273438 -38.636719 57.382812 -37.820312 C 59.175781 -43.6875 60.96875 -49.882812 61.621094 -55.914062 C 61.945312 -58.199219 62.109375 -60.644531 61.621094 -62.925781 C 61.292969 -64.390625 60.804688 -65.859375 59.992188 -67.164062 C 59.992188 -67.164062 58.035156 -69.609375 58.523438 -68.304688 L 58.359375 -68.46875 L 57.707031 -69.773438 L 58.359375 -69.121094 C 58.523438 -70.097656 55.753906 -71.890625 55.753906 -71.890625 C 51.675781 -75.964844 46.132812 -79.0625 40.589844 -75.964844 C 37.167969 -74.011719 34.398438 -70.75 32.113281 -67.488281 C 31.300781 -66.347656 30.484375 -65.042969 29.832031 -63.738281 C 29.179688 -62.4375 28.203125 -58.199219 27.222656 -57.546875 C 26.410156 -56.894531 23.964844 -56.730469 22.824219 -56.078125 C 21.191406 -55.425781 19.726562 -54.609375 18.421875 -53.632812 C 15.324219 -51.675781 12.878906 -48.90625 10.597656 -46.132812 C 6.683594 -40.917969 4.726562 -35.050781 1.957031 -29.832031 C -3.261719 -19.886719 2.445312 -6.847656 12.0625 -2.121094 C 15.160156 -0.652344 18.746094 0 22.007812 -0.324219 C 25.429688 -0.816406 28.691406 -2.609375 31.300781 -4.566406 C 33.746094 -6.359375 39.125 -9.617188 40.101562 -12.390625 C 40.101562 -12.550781 39.777344 -12.390625 39.289062 -11.898438 L 44.015625 -17.441406 C 44.179688 -17.28125 42.875 -15.648438 42.875 -15.648438 C 44.015625 -15.160156 49.882812 -23.800781 50.535156 -24.453125 C 51.675781 -26.410156 52.816406 -28.527344 54.121094 -30.484375 C 55.261719 -31.953125 54.9375 -31.789062 56.566406 -32.441406 C 56.402344 -32.277344 58.523438 -32.929688 58.847656 -32.929688 C 60.644531 -33.253906 79.714844 -34.558594 74.988281 -40.589844 Z M 18.585938 -7.660156 L 18.421875 -7.660156 C 4.890625 -5.707031 20.539062 -34.398438 20.867188 -36.027344 L 19.886719 -34.558594 C 22.332031 -39.449219 24.617188 -43.363281 25.757812 -44.667969 C 27.550781 -36.515625 36.351562 -33.417969 43.527344 -32.441406 C 38.796875 -22.984375 29.996094 -9.78125 18.585938 -7.660156 Z M 50.699219 -52.816406 C 49.558594 -48.253906 48.578125 -42.222656 46.132812 -38.144531 C 45.320312 -36.515625 45.808594 -37.003906 44.179688 -36.679688 C 43.199219 -36.351562 41.082031 -36.679688 40.101562 -36.84375 C 38.308594 -37.003906 36.191406 -37.332031 34.886719 -38.472656 C 32.605469 -40.429688 32.929688 -43.527344 33.253906 -46.296875 C 33.582031 -49.070312 34.398438 -51.675781 35.375 -54.285156 C 35.863281 -55.261719 38.960938 -60.480469 38.472656 -61.457031 C 38.308594 -61.945312 36.515625 -59.011719 36.351562 -58.847656 C 37.332031 -60.644531 38.308594 -61.621094 39.125 -62.761719 C 38.960938 -62.761719 39.125 -62.925781 39.289062 -63.25 L 39.289062 -63.089844 L 39.449219 -63.414062 C 39.449219 -63.414062 39.449219 -63.578125 39.613281 -63.578125 C 42.058594 -66.835938 48.089844 -74.171875 51.351562 -69.121094 C 53.796875 -64.882812 51.511719 -56.894531 50.699219 -52.816406 Z M 39.449219 -63.414062 L 39.613281 -63.578125 C 39.613281 -63.414062 39.449219 -63.414062 39.449219 -63.414062 Z M 39.449219 -63.414062 "/></g></g></g><g fill="rgb(100%, 100%, 100%)" fill-opacity="1"><g transform="translate(474.85773, 160.873248)"><g><path d="M 77.109375 -39.777344 C 76.617188 -42.875 69.121094 -34.234375 68.792969 -33.90625 C 64.066406 -28.855469 59.5 -23.3125 53.957031 -18.910156 C 51.351562 -16.953125 50.210938 -15.8125 50.371094 -19.726562 C 50.535156 -23.148438 51.839844 -26.734375 52.816406 -29.832031 C 53.308594 -31.460938 56.566406 -37.65625 55.589844 -38.796875 C 55.425781 -38.960938 55.101562 -38.472656 54.773438 -38.144531 C 57.054688 -42.710938 62.597656 -50.535156 55.261719 -52.65625 C 46.949219 -54.9375 42.710938 -45.972656 39.125 -40.589844 C 35.699219 -35.699219 32.441406 -30.972656 28.527344 -26.570312 C 25.59375 -23.148438 21.03125 -16.628906 16.300781 -15.324219 C 11.898438 -13.855469 14.835938 -21.03125 15.488281 -23.472656 C 15.976562 -24.777344 21.84375 -39.9375 22.171875 -39.777344 C 21.84375 -39.777344 21.519531 -39.613281 21.191406 -39.125 C 22.984375 -43.035156 24.941406 -46.949219 27.0625 -50.699219 C 26.570312 -49.71875 26.082031 -48.089844 26.082031 -48.089844 C 26.898438 -47.925781 30.808594 -55.914062 30.484375 -55.914062 C 30.160156 -55.753906 29.832031 -55.425781 29.507812 -54.9375 C 30.808594 -57.21875 32.441406 -58.359375 29.507812 -60.644531 C 26.570312 -62.925781 21.355469 -63.414062 18.421875 -60.804688 C 14.835938 -57.871094 12.550781 -52.65625 10.757812 -48.578125 C 9.617188 -46.296875 7.660156 -44.992188 6.519531 -42.382812 C 4.238281 -37.332031 2.933594 -32.277344 1.628906 -27.0625 C 0.324219 -22.007812 -0.488281 -16.789062 0.324219 -11.574219 C 0.816406 -9.292969 1.628906 -6.683594 3.421875 -5.054688 C 3.914062 -4.726562 8.640625 -2.933594 8.3125 -4.074219 C 7.988281 -4.074219 7.660156 -4.074219 7.5 -4.238281 C 9.292969 -4.238281 11.085938 -5.054688 12.714844 -6.03125 C 12.878906 -5.867188 11.410156 -5.214844 11.410156 -5.054688 C 13.042969 -2.933594 25.429688 -15.488281 26.570312 -16.953125 C 30.648438 -22.171875 34.722656 -27.222656 38.960938 -32.277344 C 36.84375 -26.570312 33.253906 -18.746094 36.679688 -12.550781 C 38.636719 -9.292969 42.382812 -7.5 45.972656 -7.824219 C 53.632812 -8.3125 60.480469 -16.628906 65.207031 -21.679688 C 68.304688 -25.105469 71.402344 -28.691406 73.683594 -32.605469 C 74.664062 -34.234375 77.269531 -37.820312 77.109375 -39.777344 Z M 52.328125 -36.515625 C 52.003906 -35.539062 51.839844 -34.234375 51.351562 -33.417969 C 51.351562 -33.253906 51.1875 -33.09375 51.023438 -32.929688 C 51.1875 -33.09375 51.1875 -33.253906 51.1875 -33.417969 C 49.882812 -37.492188 54.773438 -42.710938 56.402344 -46.785156 C 55.101562 -43.199219 53.46875 -39.9375 52.328125 -36.515625 Z M 13.53125 -15.488281 C 12.550781 -20.214844 15.976562 -26.734375 17.769531 -31.136719 C 15.488281 -24.777344 13.203125 -16.953125 13.53125 -15.488281 Z M 38.960938 -31.460938 C 38.960938 -32.113281 39.125 -32.605469 39.613281 -32.929688 C 39.289062 -32.441406 39.125 -31.953125 38.960938 -31.460938 Z M 38.960938 -31.460938 "/></g></g></g><g fill="rgb(100%, 100%, 100%)" fill-opacity="1"><g transform="translate(540.064769, 160.873248)"><g><path d="M 66.183594 -84.769531 C 66.023438 -87.050781 63.578125 -85.257812 62.273438 -85.257812 C 55.753906 -84.933594 49.230469 -84.933594 42.875 -84.605469 C 42.875 -84.769531 43.199219 -85.421875 43.6875 -86.398438 C 43.035156 -85.257812 42.546875 -84.605469 42.058594 -84.605469 C 46.949219 -94.550781 52.164062 -104.496094 58.359375 -113.625 C 58.199219 -113.296875 55.753906 -109.222656 55.914062 -109.222656 C 56.402344 -109.058594 62.4375 -117.371094 62.597656 -118.515625 C 62.597656 -119.167969 61.132812 -117.535156 61.132812 -117.699219 C 62.109375 -118.675781 63.738281 -119.492188 64.230469 -120.796875 C 65.371094 -124.054688 61.945312 -125.523438 59.5 -126.011719 C 54.449219 -126.992188 48.742188 -126.339844 45.480469 -122.101562 C 42.382812 -118.351562 40.101562 -113.949219 38.144531 -109.546875 C 37.167969 -107.59375 35.863281 -107.101562 34.558594 -105.308594 C 32.605469 -102.539062 31.300781 -99.277344 29.832031 -96.179688 C 28.527344 -93.410156 27.222656 -90.476562 26.082031 -87.539062 C 25.429688 -86.074219 25.429688 -84.933594 23.964844 -84.441406 C 22.496094 -83.792969 19.726562 -84.28125 18.09375 -84.117188 C 11.738281 -83.300781 5.542969 -83.628906 -0.816406 -82.976562 C -4.074219 -82.8125 -7.335938 -82.8125 -10.433594 -81.671875 C -11.085938 -81.507812 -14.671875 -80.695312 -14.996094 -80.203125 C -15.976562 -78.410156 -12.0625 -78.25 -11.25 -78.085938 C -5.054688 -77.269531 2.769531 -76.617188 8.964844 -77.757812 C 13.203125 -78.574219 17.605469 -78.25 22.171875 -78.574219 C 19.886719 -73.683594 18.09375 -68.46875 16.300781 -63.25 L 14.34375 -57.546875 C 13.695312 -55.753906 11.574219 -52.328125 11.574219 -50.371094 C 11.574219 -50.046875 12.0625 -50.863281 12.390625 -51.675781 C 11.574219 -49.230469 10.597656 -46.785156 9.945312 -44.339844 C 9.945312 -44.503906 10.433594 -46.460938 10.269531 -46.460938 C 9.453125 -46.460938 6.195312 -36.515625 5.867188 -35.699219 C 4.238281 -30.808594 2.445312 -25.917969 1.628906 -20.703125 C 0.652344 -15.488281 -0.652344 -10.433594 -1.792969 -5.378906 C -2.445312 -2.769531 -3.097656 -0.324219 -3.421875 2.28125 C -3.75 3.585938 -4.074219 5.054688 -4.074219 6.359375 C -4.074219 6.683594 -4.074219 8.804688 -3.75 8.152344 L -4.074219 11.410156 L -4.074219 8.964844 C -5.054688 10.105469 -4.074219 15.324219 -3.914062 16.300781 C -3.261719 19.5625 -1.628906 22.496094 1.304688 24.453125 C 3.914062 26.410156 7.988281 28.203125 11.085938 26.734375 C 15.160156 24.777344 18.585938 20.214844 21.191406 16.953125 C 26.898438 10.269531 32.113281 3.261719 37.332031 -3.75 C 42.058594 -10.269531 46.949219 -16.628906 51.023438 -23.472656 C 53.308594 -27.386719 57.707031 -30.972656 59.175781 -35.375 C 59.992188 -37.492188 59.5 -40.101562 56.894531 -39.613281 C 54.773438 -39.125 51.839844 -33.417969 50.535156 -31.789062 C 44.667969 -24.453125 39.125 -16.953125 33.253906 -9.617188 L 23.800781 1.957031 C 22.332031 3.585938 20.867188 5.378906 19.234375 7.011719 C 18.585938 7.824219 14.507812 11.085938 14.671875 12.0625 C 14.671875 12.390625 16.464844 10.921875 17.117188 10.433594 C 16.300781 11.410156 15.324219 12.226562 14.507812 13.042969 C 14.671875 12.878906 11.25 14.835938 10.757812 14.507812 C 7.660156 13.203125 10.433594 3.75 10.921875 1.46875 C 13.855469 -11.738281 18.257812 -25.105469 22.660156 -37.820312 C 25.269531 -44.828125 27.875 -51.511719 30.808594 -58.359375 C 32.277344 -61.785156 33.746094 -65.371094 35.375 -68.792969 L 37.65625 -74.988281 L 35.863281 -71.402344 C 37.003906 -74.335938 38.636719 -78.738281 39.613281 -78.902344 L 39.125 -77.921875 C 39.449219 -78.410156 39.777344 -78.738281 40.101562 -78.902344 C 41.894531 -80.042969 46.460938 -78.902344 48.578125 -78.902344 C 50.046875 -78.902344 51.839844 -78.738281 53.308594 -79.226562 C 54.285156 -79.550781 53.957031 -80.042969 55.101562 -80.367188 C 57.054688 -80.695312 59.5 -79.390625 61.621094 -80.042969 C 63.578125 -80.53125 66.347656 -82.324219 66.183594 -84.605469 Z M 35.210938 -75.3125 C 27.875 -59.828125 22.332031 -43.199219 16.464844 -27.0625 C 13.695312 -19.726562 11.085938 -12.0625 9.292969 -4.402344 L 8.476562 -1.304688 C 9.617188 -7.171875 10.921875 -12.878906 12.550781 -18.585938 C 16.140625 -31.136719 20.703125 -43.527344 26.082031 -55.425781 C 35.210938 -75.804688 43.363281 -97.648438 56.402344 -116.070312 C 47.601562 -103.515625 41.734375 -89.171875 35.210938 -75.3125 Z M 45.972656 -91.453125 L 49.882812 -98.953125 C 49.070312 -98.789062 47.601562 -95.203125 45.972656 -91.453125 Z M 29.179688 -55.914062 C 28.039062 -52.816406 26.734375 -49.882812 25.429688 -46.949219 C 26.734375 -50.046875 27.875 -53.308594 29.34375 -56.566406 C 29.179688 -56.242188 29.179688 -56.078125 29.179688 -55.914062 Z M 43.851562 -86.726562 L 45.480469 -90.3125 C 44.992188 -89.007812 44.339844 -87.703125 43.851562 -86.726562 Z M 8.3125 15.976562 C 8.152344 15.976562 7.988281 15.8125 7.824219 15.648438 Z M 8.3125 15.976562 "/></g></g></g><g clip-path="url(#id1)"><path fill="rgb(100%, 100%, 100%)" d="M 710.945312 129.011719 C 709.792969 122.644531 704.285156 118.007812 697.898438 116.558594 C 688.335938 114.535156 670.644531 113.089844 651.5 113.089844 C 632.367188 113.089844 614.390625 114.535156 604.820312 116.558594 C 598.445312 118.007812 592.925781 122.351562 591.773438 129.011719 C 590.605469 136.246094 589.449219 146.378906 589.449219 159.40625 C 589.449219 172.433594 590.605469 182.566406 592.054688 189.804688 C 593.222656 196.171875 598.726562 200.808594 605.105469 202.253906 C 615.253906 204.277344 632.652344 205.726562 651.796875 205.726562 C 670.9375 205.726562 688.335938 204.277344 698.488281 202.253906 C 704.863281 200.808594 710.367188 196.464844 711.535156 189.804688 C 712.691406 182.566406 714.140625 172.140625 714.433594 159.40625 C 713.847656 146.378906 712.394531 136.246094 710.945312 129.011719 Z M 635.847656 179.671875 L 635.847656 139.144531 L 671.222656 159.40625 Z M 635.847656 179.671875 " fill-opacity="1" fill-rule="nonzero"/></g></svg>