<svg xmlns="http://www.w3.org/2000/svg" xmlns:xlink="http://www.w3.org/1999/xlink" width="500" zoomAndPan="magnify" viewBox="0 0 375 89.999999" height="120" preserveAspectRatio="xMidYMid meet" version="1.0"><defs><g/></defs><g fill="rgb(100%, 100%, 100%)" fill-opacity="1"><g transform="translate(96.078136, 60.284861)"><g><path d="M 30.820312 -30.707031 C 29.816406 -32.214844 27.53125 -33.382812 26.136719 -31.65625 C 25.75 -31.210938 25.691406 -30.484375 25.300781 -30.09375 C 24.96875 -29.707031 24.523438 -29.371094 24.242188 -28.757812 C 23.851562 -28.035156 23.519531 -27.308594 23.074219 -26.640625 C 21.234375 -23.910156 19.394531 -21.066406 17.5 -18.335938 L 14.824219 -14.546875 C 14.601562 -14.265625 12.429688 -11.089844 12.484375 -11.089844 C 12.59375 -11.035156 12.820312 -11.3125 13.042969 -11.535156 C 11.925781 -10.199219 10.644531 -8.863281 9.363281 -7.523438 C 8.972656 -7.078125 6.578125 -4.234375 5.742188 -4.738281 C 5.183594 -5.070312 5.574219 -6.964844 5.628906 -7.46875 C 5.90625 -9.640625 6.410156 -11.816406 6.964844 -13.933594 C 8.136719 -18.558594 9.921875 -23.074219 12.148438 -27.308594 C 13.207031 -29.316406 14.378906 -31.265625 15.714844 -33.105469 C 16.328125 -33.941406 16.941406 -34.777344 17.667969 -35.558594 C 18.28125 -36.171875 19.339844 -36.839844 19.953125 -37.5625 C 19.507812 -37.117188 18.613281 -36.617188 18.222656 -36.226562 C 17.386719 -35.445312 16.664062 -34.609375 15.996094 -33.71875 C 14.65625 -31.933594 13.429688 -30.09375 12.371094 -28.144531 C 14.042969 -31.320312 16.050781 -34.5 18.726562 -36.894531 C 19.671875 -37.785156 20.789062 -38.566406 22.015625 -39.011719 C 22.90625 -39.347656 23.574219 -39.457031 24.132812 -39.234375 C 24.464844 -39.011719 24.800781 -38.566406 25.023438 -37.898438 C 24.914062 -38.007812 24.746094 -38.175781 24.578125 -38.457031 C 24.746094 -38.121094 24.855469 -37.730469 24.96875 -37.394531 C 25.023438 -37.171875 25.523438 -35.390625 25.636719 -35.445312 C 25.75 -35.5 25.582031 -36.058594 25.582031 -36.113281 C 25.914062 -34.832031 26.359375 -34.332031 27.753906 -35.222656 C 28.367188 -35.613281 29.316406 -36.394531 29.316406 -37.171875 C 29.371094 -38.121094 28.144531 -39.011719 27.53125 -39.570312 C 25.972656 -40.90625 23.851562 -42.355469 21.792969 -42.800781 C 20.675781 -43.023438 19.449219 -43.25 18.335938 -42.859375 C 16.164062 -42.078125 14.433594 -40.238281 13.042969 -38.511719 C 11.425781 -36.503906 9.863281 -34.441406 8.582031 -32.214844 L 6.910156 -28.925781 C 6.519531 -28.144531 5.515625 -26.972656 5.460938 -26.082031 C 5.460938 -26.082031 5.683594 -26.359375 5.851562 -26.585938 C 5.40625 -25.691406 4.960938 -24.800781 4.625 -23.910156 C 4.570312 -23.964844 4.847656 -24.6875 4.847656 -24.6875 C 4.457031 -24.746094 2.953125 -20.957031 2.785156 -20.621094 C 2.007812 -18.78125 1.335938 -16.886719 1.003906 -14.878906 C 0.613281 -12.929688 0.0546875 -11.035156 0 -9.027344 C 0 -8.082031 0.0546875 -7.078125 0.335938 -6.128906 C 0.390625 -5.742188 0.5 -5.292969 0.722656 -4.90625 C 0.78125 -4.90625 1.226562 -3.957031 1.058594 -4.515625 L 1.726562 -3.34375 C 1.726562 -3.34375 1.226562 -3.84375 1.171875 -4.011719 C 1.226562 -3.734375 1.894531 -3.066406 1.894531 -3.066406 C 2.785156 -1.671875 4.457031 0.277344 6.296875 0.167969 C 8.304688 0.0546875 10.199219 -3.007812 11.257812 -4.402344 C 14.546875 -9.027344 17.613281 -13.933594 20.566406 -18.726562 L 20.121094 -17.164062 C 20.0625 -17.222656 20.230469 -17.613281 20.121094 -17.613281 C 19.5625 -17.667969 18.558594 -12.929688 18.558594 -12.539062 C 18.449219 -11.480469 18.335938 -10.476562 18.113281 -9.417969 C 18 -8.695312 17.835938 -8.027344 17.777344 -7.300781 C 17.777344 -7.246094 17.835938 -6.242188 17.945312 -6.242188 C 17.890625 -6.1875 17.945312 -6.074219 17.945312 -5.964844 C 17.945312 -6.019531 17.890625 -6.074219 17.890625 -6.128906 C 17.722656 -6.074219 17.835938 -4.402344 17.835938 -4.179688 C 17.667969 -3.234375 17.5 -2.394531 17.5 -1.394531 C 17.613281 0.890625 18.390625 3.398438 20.175781 5.015625 C 21.179688 5.851562 22.460938 6.351562 23.796875 6.351562 C 25.414062 6.351562 26.25 5.40625 27.140625 4.234375 C 27.699219 3.566406 30.09375 -2.5625 28.089844 -1.671875 C 27.53125 -1.449219 26.863281 -0.113281 26.472656 0.335938 C 25.914062 1.003906 24.800781 2.5625 23.796875 2.730469 C 23.628906 2.730469 23.464844 2.898438 23.296875 2.785156 C 22.960938 2.5625 22.570312 0.113281 22.515625 0.113281 C 22.40625 0.335938 22.40625 0.558594 22.40625 0.78125 C 22.238281 -0.890625 22.683594 -3.007812 22.90625 -4.847656 C 23.183594 -7.132812 23.40625 -9.472656 23.796875 -11.816406 C 24.132812 -14.101562 24.746094 -16.386719 25.523438 -18.613281 C 25.691406 -19.171875 27.753906 -24.578125 28.144531 -25.023438 C 27.699219 -24.746094 26.359375 -21.511719 25.691406 -19.730469 C 26.695312 -22.515625 27.867188 -25.191406 29.539062 -27.644531 C 29.425781 -27.421875 29.257812 -27.199219 29.316406 -27.199219 C 29.539062 -27.085938 30.765625 -29.035156 30.652344 -29.09375 C 30.542969 -29.09375 30.484375 -29.035156 30.429688 -28.980469 C 30.820312 -29.480469 31.378906 -29.816406 30.820312 -30.707031 Z M 5.90625 -12.371094 C 6.464844 -16.273438 7.636719 -20.285156 9.195312 -23.910156 C 10.535156 -27.085938 12.148438 -30.039062 13.878906 -32.992188 C 14.824219 -34.664062 16.164062 -36.671875 17.890625 -38.066406 C 16.386719 -36.78125 15.160156 -35.054688 14.265625 -33.496094 C 12.429688 -30.484375 10.980469 -27.308594 9.699219 -24.019531 C 8.359375 -20.507812 7.246094 -16.773438 6.351562 -13.152344 C 5.90625 -11.3125 5.515625 -9.472656 5.40625 -7.636719 L 5.292969 -6.632812 L 5.292969 -6.855469 C 5.40625 -8.695312 5.683594 -10.589844 5.90625 -12.371094 Z M 18.390625 -3.84375 C 18.390625 -5.015625 18.449219 -6.019531 18.726562 -7.132812 C 18.835938 -7.46875 18.949219 -7.859375 19.117188 -8.25 C 19.003906 -7.414062 19.058594 -6.464844 19.003906 -5.574219 C 18.894531 -4.515625 18.671875 -3.511719 18.558594 -2.453125 C 18.503906 -1.839844 18.449219 -1.226562 18.503906 -0.613281 C 18.390625 -1.671875 18.335938 -2.730469 18.390625 -3.84375 Z M 10.085938 -23.40625 L 9.976562 -23.242188 L 10.085938 -23.519531 Z M 18.835938 -38.789062 L 18.167969 -38.289062 C 18.390625 -38.457031 18.613281 -38.679688 18.835938 -38.789062 Z M 24.1875 -39.125 L 24.410156 -38.679688 C 24.300781 -38.84375 24.1875 -39.011719 24.1875 -39.125 Z M 24.578125 -38.511719 L 24.410156 -38.679688 C 24.464844 -38.566406 24.578125 -38.511719 24.578125 -38.511719 Z M 25.523438 -19.285156 L 25.691406 -19.730469 Z M 25.523438 -19.285156 "/></g></g></g><g fill="rgb(100%, 100%, 100%)" fill-opacity="1"><g transform="translate(125.168517, 60.284861)"><g><path d="M 28.3125 -13.65625 L 28.3125 -13.710938 L 28.257812 -13.710938 C 27.585938 -14.65625 26.585938 -13.152344 25.914062 -12.652344 C 24.464844 -11.480469 22.960938 -10.535156 21.402344 -9.53125 C 21.457031 -9.808594 21.457031 -12.820312 21.289062 -12.707031 C 21.179688 -12.539062 21.179688 -12.371094 21.179688 -12.207031 C 21.066406 -13.988281 20.789062 -16.273438 18.613281 -16.941406 C 17.777344 -17.222656 17 -17 16.21875 -16.664062 C 14.042969 -15.660156 12.207031 -13.542969 10.644531 -11.871094 C 9.308594 -10.421875 8.082031 -8.863281 6.964844 -7.246094 C 7.578125 -8.027344 8.25 -8.75 8.804688 -9.363281 C 7.578125 -7.800781 6.410156 -6.128906 5.515625 -4.347656 L 5.742188 -5.238281 L 5.628906 -4.960938 C 6.074219 -7.96875 6.632812 -10.980469 7.300781 -13.933594 C 7.578125 -15.328125 7.746094 -17.386719 8.472656 -18.613281 C 9.027344 -19.617188 10.757812 -19.730469 11.371094 -20.730469 C 11.371094 -20.730469 11.203125 -20.621094 10.980469 -20.507812 C 11.757812 -21.121094 12.484375 -21.792969 13.207031 -22.40625 C 13.207031 -22.347656 12.652344 -21.792969 12.652344 -21.792969 C 13.042969 -21.511719 16.164062 -24.800781 16.441406 -25.136719 C 17.777344 -26.527344 19.058594 -28.035156 20.0625 -29.761719 C 20.957031 -31.320312 21.957031 -32.828125 22.792969 -34.386719 C 23.351562 -35.277344 23.796875 -36.171875 24.242188 -37.117188 C 24.523438 -37.785156 25.300781 -39.179688 25.136719 -39.960938 C 25.078125 -40.015625 25.023438 -40.015625 24.96875 -39.960938 L 25.300781 -41.296875 C 25.300781 -41.296875 25.191406 -40.238281 25.136719 -40.183594 C 25.414062 -40.40625 25.359375 -41.574219 25.359375 -41.574219 C 26.027344 -44.753906 26.027344 -51.105469 21.511719 -51.328125 C 19.171875 -51.386719 17.277344 -49.265625 15.9375 -47.652344 C 14.378906 -45.699219 13.042969 -43.527344 11.871094 -41.296875 C 9.699219 -37.453125 8.027344 -33.328125 6.351562 -29.257812 C 4.457031 -24.578125 2.785156 -19.730469 1.671875 -14.824219 C 0.949219 -11.925781 0.390625 -9.027344 0.167969 -6.074219 C 0.113281 -5.351562 -0.390625 -1.394531 0.613281 -1.003906 C 0.613281 -0.949219 0.613281 -1.171875 0.558594 -1.503906 C 0.613281 -1.226562 0.722656 -1.058594 0.835938 -0.835938 C 0.78125 -0.835938 1.113281 0 1.113281 0 C 1.394531 0.5 1.785156 1.003906 2.285156 1.335938 C 3.234375 2.007812 4.515625 2.339844 5.183594 1.226562 C 5.742188 0.335938 5.964844 -1.171875 6.464844 -2.171875 C 6.632812 -2.621094 6.855469 -3.066406 7.078125 -3.511719 C 7.023438 -3.789062 7.078125 -4.011719 7.300781 -4.179688 C 7.414062 -4.125 7.523438 -4.179688 7.691406 -4.292969 C 8.527344 -5.238281 9.027344 -6.519531 9.699219 -7.636719 C 9.976562 -8.082031 13.597656 -12.875 14.042969 -13.097656 C 13.988281 -13.097656 13.933594 -13.097656 13.878906 -13.042969 C 14.210938 -13.375 14.492188 -13.597656 14.878906 -13.878906 C 14.9375 -13.765625 14.601562 -13.597656 14.65625 -13.542969 C 14.65625 -13.542969 16.664062 -14.265625 16.886719 -14.265625 C 17.613281 -14.101562 17.5 -12.929688 17.445312 -12.371094 C 17.332031 -11.535156 16.941406 -10.757812 16.550781 -10.03125 C 16.328125 -9.585938 15.9375 -9.085938 15.828125 -8.636719 C 15.828125 -8.582031 15.492188 -7.691406 15.828125 -8.082031 L 15.660156 -7.800781 C 15.492188 -7.523438 14.433594 -6.128906 14.210938 -5.964844 C 13.265625 -5.070312 12.539062 -4.011719 11.648438 -3.121094 C 10.535156 -2.007812 8.027344 -1.503906 9.699219 0.558594 C 12.707031 4.234375 17.332031 -1.558594 18.949219 -3.902344 C 19.839844 -5.238281 20.957031 -6.410156 21.902344 -7.523438 C 22.238281 -7.914062 22.851562 -8.414062 23.296875 -8.695312 C 23.464844 -8.804688 23.742188 -8.804688 23.910156 -8.972656 C 24.355469 -9.417969 24.410156 -9.640625 24.800781 -10.03125 C 25.523438 -10.757812 26.75 -10.980469 27.421875 -11.816406 C 27.53125 -11.980469 27.53125 -12.09375 27.363281 -12.261719 C 27.421875 -12.371094 27.53125 -12.371094 27.644531 -12.316406 L 27.976562 -12.484375 C 28.257812 -12.875 28.644531 -13.097656 28.3125 -13.65625 Z M 22.070312 -48.820312 C 23.851562 -48.820312 23.628906 -44.140625 23.574219 -43.136719 C 23.464844 -41.519531 23.074219 -39.902344 22.515625 -38.398438 C 22.125 -37.230469 21.679688 -35.445312 20.957031 -34.5 C 19.507812 -32.601562 17.890625 -30.429688 16.328125 -28.480469 C 14.324219 -25.972656 11.925781 -23.851562 9.417969 -21.847656 C 10.421875 -25.191406 11.59375 -28.535156 12.875 -31.824219 C 13.207031 -32.601562 16.441406 -41.074219 16.886719 -41.464844 C 16.773438 -41.410156 16.664062 -41.296875 16.550781 -41.128906 C 17.5 -43.191406 18.503906 -45.253906 19.953125 -47.09375 L 19.226562 -45.757812 C 19.785156 -46.425781 21.957031 -48.878906 22.070312 -48.710938 C 22.015625 -48.820312 21.625 -48.710938 21.457031 -48.597656 C 21.625 -48.765625 21.847656 -48.820312 22.070312 -48.820312 Z M 11.089844 -38.621094 C 12.371094 -41.074219 13.710938 -43.359375 15.4375 -45.589844 C 16.550781 -47.09375 18.167969 -48.878906 20.175781 -49.546875 C 18.222656 -48.878906 16.886719 -47.148438 15.714844 -45.53125 C 14.101562 -43.304688 12.761719 -40.964844 11.371094 -38.566406 C 9.25 -34.945312 7.578125 -31.097656 6.128906 -27.253906 C 7.523438 -31.097656 9.140625 -34.945312 11.089844 -38.621094 Z M 14.769531 -5.460938 C 13.820312 -4.179688 12.429688 -2.5625 11.035156 -1.785156 C 11.757812 -2.230469 12.316406 -3.066406 13.042969 -3.902344 C 14.042969 -5.183594 14.992188 -6.464844 15.9375 -7.800781 C 16.386719 -8.414062 17.667969 -10.699219 18.058594 -12.484375 C 17.667969 -9.976562 16.105469 -7.523438 14.769531 -5.460938 Z M 9.140625 -21.625 L 9.140625 -21.734375 L 9.195312 -21.847656 C 9.195312 -21.902344 9.25 -21.957031 9.25 -22.070312 C 9.25 -22.125 9.25 -22.179688 9.308594 -22.238281 L 9.308594 -22.292969 L 10.03125 -24.578125 L 9.753906 -23.574219 C 9.640625 -23.128906 9.472656 -21.902344 9.140625 -21.625 Z M 11.648438 -29.148438 C 12.539062 -31.488281 13.429688 -33.828125 14.378906 -36.113281 Z M 5.796875 -5.292969 L 6.964844 -7.246094 C 6.519531 -6.632812 6.074219 -5.964844 5.796875 -5.292969 Z M 9.140625 -21.625 L 9.140625 -21.734375 L 9.195312 -21.792969 C 9.195312 -21.734375 9.140625 -21.679688 9.140625 -21.625 Z M 10.421875 -11.371094 C 10.421875 -11.3125 10.367188 -11.3125 10.367188 -11.3125 Z M 10.421875 -11.371094 "/></g></g></g><g fill="rgb(100%, 100%, 100%)" fill-opacity="1"><g transform="translate(149.521959, 60.284861)"><g><path d="M 25.636719 -13.878906 C 25.636719 -13.878906 25.691406 -13.820312 25.636719 -13.933594 C 25.359375 -14.324219 24.96875 -14.042969 24.578125 -13.933594 C 22.960938 -13.597656 21.289062 -13.207031 19.617188 -12.929688 C 20.230469 -14.9375 20.84375 -17.054688 21.066406 -19.117188 C 21.179688 -19.894531 21.234375 -20.730469 21.066406 -21.511719 C 20.957031 -22.015625 20.789062 -22.515625 20.507812 -22.960938 C 20.507812 -22.960938 19.839844 -23.796875 20.007812 -23.351562 L 19.953125 -23.40625 L 19.730469 -23.851562 L 19.953125 -23.628906 C 20.007812 -23.964844 19.058594 -24.578125 19.058594 -24.578125 C 17.667969 -25.972656 15.773438 -27.03125 13.878906 -25.972656 C 12.707031 -25.300781 11.757812 -24.1875 10.980469 -23.074219 C 10.699219 -22.683594 10.421875 -22.238281 10.199219 -21.792969 C 9.976562 -21.34375 9.640625 -19.894531 9.308594 -19.671875 C 9.027344 -19.449219 8.191406 -19.394531 7.800781 -19.171875 C 7.246094 -18.949219 6.742188 -18.671875 6.296875 -18.335938 C 5.238281 -17.667969 4.402344 -16.71875 3.621094 -15.773438 C 2.285156 -13.988281 1.617188 -11.980469 0.667969 -10.199219 C -1.113281 -6.800781 0.835938 -2.339844 4.125 -0.722656 C 5.183594 -0.222656 6.410156 0 7.523438 -0.113281 C 8.695312 -0.277344 9.808594 -0.890625 10.699219 -1.558594 C 11.535156 -2.171875 13.375 -3.289062 13.710938 -4.234375 C 13.710938 -4.292969 13.597656 -4.234375 13.429688 -4.070312 L 15.046875 -5.964844 C 15.101562 -5.90625 14.65625 -5.351562 14.65625 -5.351562 C 15.046875 -5.183594 17.054688 -8.136719 17.277344 -8.359375 C 17.667969 -9.027344 18.058594 -9.753906 18.503906 -10.421875 C 18.894531 -10.921875 18.78125 -10.867188 19.339844 -11.089844 C 19.285156 -11.035156 20.007812 -11.257812 20.121094 -11.257812 C 20.730469 -11.371094 27.253906 -11.816406 25.636719 -13.878906 Z M 6.351562 -2.621094 L 6.296875 -2.621094 C 1.671875 -1.949219 7.023438 -11.757812 7.132812 -12.316406 L 6.800781 -11.816406 C 7.636719 -13.488281 8.414062 -14.824219 8.804688 -15.269531 C 9.417969 -12.484375 12.429688 -11.425781 14.878906 -11.089844 C 13.265625 -7.859375 10.253906 -3.34375 6.351562 -2.621094 Z M 17.332031 -18.058594 C 16.941406 -16.496094 16.609375 -14.433594 15.773438 -13.042969 C 15.492188 -12.484375 15.660156 -12.652344 15.101562 -12.539062 C 14.769531 -12.429688 14.042969 -12.539062 13.710938 -12.59375 C 13.097656 -12.652344 12.371094 -12.761719 11.925781 -13.152344 C 11.144531 -13.820312 11.257812 -14.878906 11.371094 -15.828125 C 11.480469 -16.773438 11.757812 -17.667969 12.09375 -18.558594 C 12.261719 -18.894531 13.320312 -20.675781 13.152344 -21.011719 C 13.097656 -21.179688 12.484375 -20.175781 12.429688 -20.121094 C 12.761719 -20.730469 13.097656 -21.066406 13.375 -21.457031 C 13.320312 -21.457031 13.375 -21.511719 13.429688 -21.625 L 13.429688 -21.566406 L 13.488281 -21.679688 C 13.488281 -21.679688 13.488281 -21.734375 13.542969 -21.734375 C 14.378906 -22.851562 16.441406 -25.359375 17.554688 -23.628906 C 18.390625 -22.179688 17.613281 -19.449219 17.332031 -18.058594 Z M 13.488281 -21.679688 L 13.542969 -21.734375 C 13.542969 -21.679688 13.488281 -21.679688 13.488281 -21.679688 Z M 13.488281 -21.679688 "/></g></g></g><g fill="rgb(100%, 100%, 100%)" fill-opacity="1"><g transform="translate(171.311883, 60.284861)"><g><path d="M 26.359375 -13.597656 C 26.195312 -14.65625 23.628906 -11.703125 23.519531 -11.59375 C 21.902344 -9.863281 20.34375 -7.96875 18.449219 -6.464844 C 17.554688 -5.796875 17.164062 -5.40625 17.222656 -6.742188 C 17.277344 -7.914062 17.722656 -9.140625 18.058594 -10.199219 C 18.222656 -10.757812 19.339844 -12.875 19.003906 -13.265625 C 18.949219 -13.320312 18.835938 -13.152344 18.726562 -13.042969 C 19.507812 -14.601562 21.402344 -17.277344 18.894531 -18 C 16.050781 -18.78125 14.601562 -15.714844 13.375 -13.878906 C 12.207031 -12.207031 11.089844 -10.589844 9.753906 -9.085938 C 8.75 -7.914062 7.1875 -5.683594 5.574219 -5.238281 C 4.070312 -4.738281 5.070312 -7.1875 5.292969 -8.027344 C 5.460938 -8.472656 7.46875 -13.65625 7.578125 -13.597656 C 7.46875 -13.597656 7.355469 -13.542969 7.246094 -13.375 C 7.859375 -14.714844 8.527344 -16.050781 9.25 -17.332031 C 9.085938 -17 8.917969 -16.441406 8.917969 -16.441406 C 9.195312 -16.386719 10.535156 -19.117188 10.421875 -19.117188 C 10.308594 -19.058594 10.199219 -18.949219 10.085938 -18.78125 C 10.535156 -19.5625 11.089844 -19.953125 10.085938 -20.730469 C 9.085938 -21.511719 7.300781 -21.679688 6.296875 -20.789062 C 5.070312 -19.785156 4.292969 -18 3.679688 -16.609375 C 3.289062 -15.828125 2.621094 -15.382812 2.230469 -14.492188 C 1.449219 -12.761719 1.003906 -11.035156 0.558594 -9.25 C 0.113281 -7.523438 -0.167969 -5.742188 0.113281 -3.957031 C 0.277344 -3.175781 0.558594 -2.285156 1.171875 -1.726562 C 1.335938 -1.617188 2.953125 -1.003906 2.84375 -1.394531 C 2.730469 -1.394531 2.621094 -1.394531 2.5625 -1.449219 C 3.175781 -1.449219 3.789062 -1.726562 4.347656 -2.0625 C 4.402344 -2.007812 3.902344 -1.785156 3.902344 -1.726562 C 4.457031 -1.003906 8.695312 -5.292969 9.085938 -5.796875 C 10.476562 -7.578125 11.871094 -9.308594 13.320312 -11.035156 C 12.59375 -9.085938 11.371094 -6.410156 12.539062 -4.292969 C 13.207031 -3.175781 14.492188 -2.5625 15.714844 -2.675781 C 18.335938 -2.84375 20.675781 -5.683594 22.292969 -7.414062 C 23.351562 -8.582031 24.410156 -9.808594 25.191406 -11.144531 C 25.523438 -11.703125 26.417969 -12.929688 26.359375 -13.597656 Z M 17.890625 -12.484375 C 17.777344 -12.148438 17.722656 -11.703125 17.554688 -11.425781 C 17.554688 -11.371094 17.5 -11.3125 17.445312 -11.257812 C 17.5 -11.3125 17.5 -11.371094 17.5 -11.425781 C 17.054688 -12.820312 18.726562 -14.601562 19.285156 -15.996094 C 18.835938 -14.769531 18.28125 -13.65625 17.890625 -12.484375 Z M 4.625 -5.292969 C 4.292969 -6.910156 5.460938 -9.140625 6.074219 -10.644531 C 5.292969 -8.472656 4.515625 -5.796875 4.625 -5.292969 Z M 13.320312 -10.757812 C 13.320312 -10.980469 13.375 -11.144531 13.542969 -11.257812 C 13.429688 -11.089844 13.375 -10.921875 13.320312 -10.757812 Z M 13.320312 -10.757812 "/></g></g></g><g fill="rgb(100%, 100%, 100%)" fill-opacity="1"><g transform="translate(193.603364, 60.284861)"><g><path d="M 22.628906 -28.980469 C 22.570312 -29.761719 21.734375 -29.148438 21.289062 -29.148438 C 19.058594 -29.035156 16.832031 -29.035156 14.65625 -28.925781 C 14.65625 -28.980469 14.769531 -29.203125 14.9375 -29.539062 C 14.714844 -29.148438 14.546875 -28.925781 14.378906 -28.925781 C 16.050781 -32.324219 17.835938 -35.722656 19.953125 -38.84375 C 19.894531 -38.734375 19.058594 -37.339844 19.117188 -37.339844 C 19.285156 -37.285156 21.34375 -40.128906 21.402344 -40.515625 C 21.402344 -40.738281 20.898438 -40.183594 20.898438 -40.238281 C 21.234375 -40.574219 21.792969 -40.851562 21.957031 -41.296875 C 22.347656 -42.414062 21.179688 -42.914062 20.34375 -43.082031 C 18.613281 -43.414062 16.664062 -43.191406 15.550781 -41.742188 C 14.492188 -40.460938 13.710938 -38.957031 13.042969 -37.453125 C 12.707031 -36.78125 12.261719 -36.617188 11.816406 -36.003906 C 11.144531 -35.054688 10.699219 -33.941406 10.199219 -32.882812 C 9.753906 -31.933594 9.308594 -30.929688 8.917969 -29.929688 C 8.695312 -29.425781 8.695312 -29.035156 8.191406 -28.871094 C 7.691406 -28.644531 6.742188 -28.8125 6.1875 -28.757812 C 4.011719 -28.480469 1.894531 -28.589844 -0.277344 -28.367188 C -1.394531 -28.3125 -2.507812 -28.3125 -3.566406 -27.921875 C -3.789062 -27.867188 -5.015625 -27.585938 -5.128906 -27.421875 C -5.460938 -26.808594 -4.125 -26.75 -3.84375 -26.695312 C -1.726562 -26.417969 0.949219 -26.195312 3.066406 -26.585938 C 4.515625 -26.863281 6.019531 -26.75 7.578125 -26.863281 C 6.800781 -25.191406 6.1875 -23.40625 5.574219 -21.625 L 4.90625 -19.671875 C 4.679688 -19.058594 3.957031 -17.890625 3.957031 -17.222656 C 3.957031 -17.109375 4.125 -17.386719 4.234375 -17.667969 C 3.957031 -16.832031 3.621094 -15.996094 3.398438 -15.160156 C 3.398438 -15.214844 3.566406 -15.882812 3.511719 -15.882812 C 3.234375 -15.882812 2.117188 -12.484375 2.007812 -12.207031 C 1.449219 -10.535156 0.835938 -8.863281 0.558594 -7.078125 C 0.222656 -5.292969 -0.222656 -3.566406 -0.613281 -1.839844 C -0.835938 -0.949219 -1.058594 -0.113281 -1.171875 0.78125 C -1.28125 1.226562 -1.394531 1.726562 -1.394531 2.171875 C -1.394531 2.285156 -1.394531 3.007812 -1.28125 2.785156 L -1.394531 3.902344 L -1.394531 3.066406 C -1.726562 3.457031 -1.394531 5.238281 -1.335938 5.574219 C -1.113281 6.6875 -0.558594 7.691406 0.445312 8.359375 C 1.335938 9.027344 2.730469 9.640625 3.789062 9.140625 C 5.183594 8.472656 6.351562 6.910156 7.246094 5.796875 C 9.195312 3.511719 10.980469 1.113281 12.761719 -1.28125 C 14.378906 -3.511719 16.050781 -5.683594 17.445312 -8.027344 C 18.222656 -9.363281 19.730469 -10.589844 20.230469 -12.09375 C 20.507812 -12.820312 20.34375 -13.710938 19.449219 -13.542969 C 18.726562 -13.375 17.722656 -11.425781 17.277344 -10.867188 C 15.269531 -8.359375 13.375 -5.796875 11.371094 -3.289062 L 8.136719 0.667969 C 7.636719 1.226562 7.132812 1.839844 6.578125 2.394531 C 6.351562 2.675781 4.960938 3.789062 5.015625 4.125 C 5.015625 4.234375 5.628906 3.734375 5.851562 3.566406 C 5.574219 3.902344 5.238281 4.179688 4.960938 4.457031 C 5.015625 4.402344 3.84375 5.070312 3.679688 4.960938 C 2.621094 4.515625 3.566406 1.28125 3.734375 0.5 C 4.738281 -4.011719 6.242188 -8.582031 7.746094 -12.929688 C 8.636719 -15.328125 9.53125 -17.613281 10.535156 -19.953125 C 11.035156 -21.121094 11.535156 -22.347656 12.09375 -23.519531 L 12.875 -25.636719 L 12.261719 -24.410156 C 12.652344 -25.414062 13.207031 -26.917969 13.542969 -26.972656 L 13.375 -26.640625 C 13.488281 -26.808594 13.597656 -26.917969 13.710938 -26.972656 C 14.324219 -27.363281 15.882812 -26.972656 16.609375 -26.972656 C 17.109375 -26.972656 17.722656 -26.917969 18.222656 -27.085938 C 18.558594 -27.199219 18.449219 -27.363281 18.835938 -27.476562 C 19.507812 -27.585938 20.34375 -27.140625 21.066406 -27.363281 C 21.734375 -27.53125 22.683594 -28.144531 22.628906 -28.925781 Z M 12.039062 -25.75 C 9.53125 -20.453125 7.636719 -14.769531 5.628906 -9.25 C 4.679688 -6.742188 3.789062 -4.125 3.175781 -1.503906 L 2.898438 -0.445312 C 3.289062 -2.453125 3.734375 -4.402344 4.292969 -6.351562 C 5.515625 -10.644531 7.078125 -14.878906 8.917969 -18.949219 C 12.039062 -25.914062 14.824219 -33.382812 19.285156 -39.679688 C 16.273438 -35.390625 14.265625 -30.484375 12.039062 -25.75 Z M 15.714844 -31.265625 L 17.054688 -33.828125 C 16.773438 -33.773438 16.273438 -32.546875 15.714844 -31.265625 Z M 9.976562 -19.117188 C 9.585938 -18.058594 9.140625 -17.054688 8.695312 -16.050781 C 9.140625 -17.109375 9.53125 -18.222656 10.03125 -19.339844 C 9.976562 -19.226562 9.976562 -19.171875 9.976562 -19.117188 Z M 14.992188 -29.648438 L 15.550781 -30.875 C 15.382812 -30.429688 15.160156 -29.984375 14.992188 -29.648438 Z M 2.84375 5.460938 C 2.785156 5.460938 2.730469 5.40625 2.675781 5.351562 Z M 2.84375 5.460938 "/></g></g></g><g fill="rgb(100%, 100%, 100%)" fill-opacity="1"><g transform="translate(210.712072, 60.284861)"><g/></g></g><g fill="rgb(100%, 100%, 100%)" fill-opacity="1"><g transform="translate(226.316112, 60.284861)"><g><path d="M 26.359375 -13.597656 C 26.195312 -14.65625 23.628906 -11.703125 23.519531 -11.59375 C 21.902344 -9.863281 20.34375 -7.96875 18.449219 -6.464844 C 17.554688 -5.796875 17.164062 -5.40625 17.222656 -6.742188 C 17.277344 -7.914062 17.722656 -9.140625 18.058594 -10.199219 C 18.222656 -10.757812 19.339844 -12.875 19.003906 -13.265625 C 18.949219 -13.320312 18.835938 -13.152344 18.726562 -13.042969 C 19.507812 -14.601562 21.402344 -17.277344 18.894531 -18 C 16.050781 -18.78125 14.601562 -15.714844 13.375 -13.878906 C 12.207031 -12.207031 11.089844 -10.589844 9.753906 -9.085938 C 8.75 -7.914062 7.1875 -5.683594 5.574219 -5.238281 C 4.070312 -4.738281 5.070312 -7.1875 5.292969 -8.027344 C 5.460938 -8.472656 7.46875 -13.65625 7.578125 -13.597656 C 7.46875 -13.597656 7.355469 -13.542969 7.246094 -13.375 C 7.859375 -14.714844 8.527344 -16.050781 9.25 -17.332031 C 9.085938 -17 8.917969 -16.441406 8.917969 -16.441406 C 9.195312 -16.386719 10.535156 -19.117188 10.421875 -19.117188 C 10.308594 -19.058594 10.199219 -18.949219 10.085938 -18.78125 C 10.535156 -19.5625 11.089844 -19.953125 10.085938 -20.730469 C 9.085938 -21.511719 7.300781 -21.679688 6.296875 -20.789062 C 5.070312 -19.785156 4.292969 -18 3.679688 -16.609375 C 3.289062 -15.828125 2.621094 -15.382812 2.230469 -14.492188 C 1.449219 -12.761719 1.003906 -11.035156 0.558594 -9.25 C 0.113281 -7.523438 -0.167969 -5.742188 0.113281 -3.957031 C 0.277344 -3.175781 0.558594 -2.285156 1.171875 -1.726562 C 1.335938 -1.617188 2.953125 -1.003906 2.84375 -1.394531 C 2.730469 -1.394531 2.621094 -1.394531 2.5625 -1.449219 C 3.175781 -1.449219 3.789062 -1.726562 4.347656 -2.0625 C 4.402344 -2.007812 3.902344 -1.785156 3.902344 -1.726562 C 4.457031 -1.003906 8.695312 -5.292969 9.085938 -5.796875 C 10.476562 -7.578125 11.871094 -9.308594 13.320312 -11.035156 C 12.59375 -9.085938 11.371094 -6.410156 12.539062 -4.292969 C 13.207031 -3.175781 14.492188 -2.5625 15.714844 -2.675781 C 18.335938 -2.84375 20.675781 -5.683594 22.292969 -7.414062 C 23.351562 -8.582031 24.410156 -9.808594 25.191406 -11.144531 C 25.523438 -11.703125 26.417969 -12.929688 26.359375 -13.597656 Z M 17.890625 -12.484375 C 17.777344 -12.148438 17.722656 -11.703125 17.554688 -11.425781 C 17.554688 -11.371094 17.5 -11.3125 17.445312 -11.257812 C 17.5 -11.3125 17.5 -11.371094 17.5 -11.425781 C 17.054688 -12.820312 18.726562 -14.601562 19.285156 -15.996094 C 18.835938 -14.769531 18.28125 -13.65625 17.890625 -12.484375 Z M 4.625 -5.292969 C 4.292969 -6.910156 5.460938 -9.140625 6.074219 -10.644531 C 5.292969 -8.472656 4.515625 -5.796875 4.625 -5.292969 Z M 13.320312 -10.757812 C 13.320312 -10.980469 13.375 -11.144531 13.542969 -11.257812 C 13.429688 -11.089844 13.375 -10.921875 13.320312 -10.757812 Z M 13.320312 -10.757812 "/></g></g></g><g fill="rgb(100%, 100%, 100%)" fill-opacity="1"><g transform="translate(248.6076, 60.284861)"><g><path d="M 22.125 -13.097656 C 21.957031 -13.878906 21.511719 -13.988281 20.957031 -13.765625 C 19.894531 -13.265625 18.835938 -12.148438 17.835938 -11.480469 C 15.550781 -10.03125 13.265625 -8.863281 10.8125 -7.636719 C 10.8125 -7.691406 10.757812 -7.800781 10.699219 -7.96875 C 10.757812 -7.691406 10.699219 -7.578125 10.644531 -7.523438 C 10.085938 -9.921875 9.53125 -12.316406 9.085938 -14.769531 C 9.308594 -13.710938 9.808594 -11.925781 10.199219 -10.421875 C 9.699219 -12.761719 9.085938 -15.660156 9.140625 -15.660156 C 9.027344 -15.605469 9.027344 -15.492188 9.027344 -15.382812 C 8.917969 -16.050781 8.75 -16.886719 8.863281 -17.613281 C 8.917969 -18.449219 9.363281 -19.171875 9.640625 -19.953125 C 9.585938 -19.5625 9.472656 -19.058594 9.472656 -19.058594 C 9.808594 -19.003906 10.03125 -21.066406 10.03125 -21.289062 C 9.976562 -21.625 9.25 -22.683594 9.25 -22.40625 C 7.746094 -23.796875 4.792969 -20.730469 4.347656 -19.394531 C 4.011719 -18.503906 4.011719 -17.554688 4.070312 -16.609375 C 4.125 -15.660156 4.402344 -14.824219 4.679688 -13.933594 C 4.847656 -13.265625 4.625 -12.820312 4.679688 -12.09375 C 4.792969 -10.980469 5.183594 -9.863281 5.40625 -8.804688 C 5.628906 -7.96875 6.351562 -6.296875 6.1875 -5.515625 C 6.074219 -4.738281 4.402344 -4.070312 3.679688 -3.621094 C 2.730469 -3.007812 1.785156 -2.285156 0.835938 -1.558594 C -0.835938 -0.277344 -2.621094 1.335938 -3.289062 3.398438 C -3.398438 3.679688 -3.789062 4.90625 -3.398438 5.128906 C -3.34375 5.183594 -3.175781 4.234375 -3.121094 4.125 C -3.84375 7.800781 -0.222656 9.585938 3.175781 9.640625 C 7.023438 9.753906 9.699219 7.523438 11.035156 4.070312 C 11.59375 2.5625 11.757812 1.003906 11.703125 -0.558594 C 11.703125 -1.617188 11.59375 -2.621094 11.425781 -3.621094 C 11.3125 -4.515625 11.203125 -4.457031 11.816406 -4.960938 C 12.261719 -5.292969 12.929688 -5.515625 13.375 -5.742188 C 15.160156 -6.6875 16.773438 -7.800781 18.390625 -8.972656 C 19.5625 -9.808594 22.347656 -11.257812 22.125 -13.042969 Z M -0.390625 6.074219 C -1.839844 5.628906 -0.390625 3.34375 0.113281 2.621094 C 0.949219 1.503906 2.171875 0.667969 3.289062 -0.113281 L 4.960938 -1.226562 C 5.128906 -1.335938 6.1875 -2.171875 5.851562 -2.0625 L 6.519531 -2.453125 L 6.128906 -2.117188 C 6.242188 -2.171875 6.410156 -2.230469 6.519531 -2.339844 C 6.578125 -1.003906 6.578125 0.335938 6.1875 1.671875 C 6.128906 1.894531 5.070312 4.125 4.625 4.570312 L 4.90625 4.347656 C 4.402344 4.960938 3.84375 5.460938 3.175781 5.851562 C 3.175781 5.796875 3.679688 5.460938 3.621094 5.40625 L 2.0625 6.019531 C 1.28125 6.1875 0.390625 6.351562 -0.390625 6.074219 Z M 6.632812 7.691406 C 5.183594 8.304688 3.789062 8.582031 2.285156 8.636719 C 5.015625 8.472656 7.859375 7.132812 9.472656 4.847656 C 8.863281 6.074219 8.082031 7.023438 6.632812 7.691406 Z M 10.699219 -8.136719 C 10.644531 -8.527344 10.535156 -9.085938 10.367188 -9.699219 C 10.476562 -9.085938 10.589844 -8.472656 10.699219 -8.136719 Z M 11.425781 -2.339844 C 11.371094 -2.394531 11.371094 -2.507812 11.371094 -2.621094 C 11.371094 -2.507812 11.425781 -2.394531 11.425781 -2.339844 Z M 11.425781 -2.339844 "/></g></g></g><g fill="rgb(100%, 100%, 100%)" fill-opacity="1"><g transform="translate(266.663705, 60.284861)"><g><path d="M 18.894531 -37.84375 L 18.894531 -37.898438 C 18.613281 -40.238281 15.101562 -40.796875 13.488281 -39.402344 C 12.652344 -38.679688 12.761719 -37.953125 12.761719 -37.0625 C 12.707031 -35.5 12.207031 -33.886719 11.980469 -32.324219 C 10.867188 -26.25 9.585938 -20.175781 8.136719 -14.210938 C 7.800781 -12.820312 7.300781 -11.480469 6.964844 -10.085938 C 6.742188 -9.027344 5.742188 -6.1875 6.632812 -5.292969 C 8.027344 -3.84375 9.308594 -8.472656 9.640625 -9.308594 C 11.3125 -13.933594 12.429688 -18.726562 13.988281 -23.351562 C 14.9375 -26.195312 15.828125 -29.035156 16.886719 -31.824219 C 17.445312 -33.273438 18.058594 -34.722656 18.558594 -36.171875 C 18.726562 -36.726562 18.835938 -37.230469 18.894531 -37.84375 Z M 8.472656 -0.558594 C 8.472656 -0.949219 8.804688 -1.449219 8.472656 -1.894531 C 8.191406 -2.230469 8.191406 -2.007812 7.914062 -2.0625 C 6.800781 -2.507812 5.742188 -2.230469 4.738281 -1.726562 C 3.457031 -1.058594 1.394531 1.226562 2.171875 2.898438 C 2.394531 3.34375 3.398438 4.234375 3.789062 4.402344 C 4.847656 4.960938 5.40625 4.234375 6.074219 3.621094 C 6.855469 2.898438 7.414062 2.621094 7.800781 1.726562 C 7.914062 1.503906 9.25 -0.558594 8.472656 -0.558594 Z M 12.59375 -26.195312 L 12.59375 -26.136719 C 12.484375 -24.464844 12.207031 -22.90625 11.871094 -21.234375 C 11.59375 -19.730469 10.699219 -18.335938 10.308594 -16.941406 C 10.535156 -17.835938 10.8125 -18.449219 10.921875 -19.507812 C 11.035156 -20.621094 11.371094 -21.792969 11.757812 -22.90625 C 12.09375 -23.964844 12.371094 -25.078125 12.59375 -26.195312 Z M 10.253906 -16.71875 C 10.253906 -16.773438 10.253906 -16.832031 10.308594 -16.941406 C 10.253906 -16.832031 10.253906 -16.773438 10.253906 -16.71875 Z M 10.253906 -16.71875 "/></g></g></g></svg>