<svg xmlns="http://www.w3.org/2000/svg" xmlns:xlink="http://www.w3.org/1999/xlink" width="400" zoomAndPan="magnify" viewBox="0 0 300 95.999999" height="128" preserveAspectRatio="xMidYMid meet" version="1.0"><defs><clipPath id="id1"><path d="M 42 15 L 98.417969 15 L 98.417969 80.949219 L 42 80.949219 Z M 42 15 " clip-rule="nonzero"/></clipPath><clipPath id="id2"><path d="M 110.277344 32.296875 L 256.714844 32.296875 L 256.714844 73 L 110.277344 73 Z M 110.277344 32.296875 " clip-rule="nonzero"/></clipPath></defs><path fill="rgb(100%, 100%, 100%)" d="M 284.097656 96 L 15.152344 96 C 6.804688 96 0 89.1875 0 80.832031 L 0 15.167969 C 0 6.8125 6.804688 0 15.152344 0 L 284.097656 0 C 292.445312 0 299.25 6.8125 299.25 15.167969 L 299.25 80.832031 C 299.25 89.1875 292.445312 96 284.097656 96 " fill-opacity="1" fill-rule="nonzero"/><g clip-path="url(#id1)"><path fill="rgb(45.489502%, 45.489502%, 45.489502%)" d="M 85.976562 49.910156 C 85.976562 41.691406 92.738281 37.757812 92.917969 37.578125 C 89.183594 32.039062 83.128906 31.164062 81.167969 31.164062 C 76.183594 30.628906 71.378906 34.203125 68.882812 34.203125 C 66.214844 34.203125 62.496094 31.347656 58.203125 31.347656 C 52.859375 31.347656 47.699219 34.5625 45.027344 39.386719 C 39.152344 49.394531 43.425781 64.066406 48.945312 72.09375 C 51.617188 76.023438 54.820312 80.492188 59.09375 80.3125 C 63.1875 80.132812 64.789062 77.632812 69.773438 77.632812 C 74.757812 77.632812 76.160156 80.3125 80.453125 80.132812 C 84.90625 80.132812 87.578125 76.203125 90.246094 72.269531 C 93.449219 67.800781 94.695312 63.335938 94.695312 62.976562 C 94.519531 62.976562 86.152344 59.761719 85.976562 49.929688 Z M 77.964844 25.78125 C 80.101562 22.925781 81.699219 19.167969 81.347656 15.417969 C 78.144531 15.597656 74.222656 17.5625 71.910156 20.421875 C 69.953125 22.746094 67.996094 26.679688 68.53125 30.429688 C 71.910156 30.609375 75.652344 28.460938 77.964844 25.765625 Z M 124.480469 68.574219 L 120.222656 68.574219 L 117.816406 61.0625 L 109.683594 61.0625 L 107.414062 68.574219 L 103.269531 68.574219 L 111.398438 43.21875 L 116.476562 43.21875 Z M 116.996094 58.109375 L 114.859375 51.535156 C 114.59375 50.867188 114.191406 49.253906 113.503906 46.707031 L 113.367188 46.707031 L 112.167969 51.535156 L 110.03125 58.109375 Z M 145.324219 59.316406 C 145.324219 62.402344 144.523438 64.953125 142.785156 66.695312 C 141.316406 68.304688 139.445312 69.109375 137.171875 69.109375 C 134.765625 69.109375 133.03125 68.304688 131.960938 66.558594 L 131.960938 76.21875 L 127.953125 76.21875 L 127.953125 56.363281 L 127.820312 50.328125 L 131.425781 50.328125 L 131.695312 53.28125 L 131.828125 53.28125 C 133.183594 51.136719 135.171875 50.0625 137.976562 50.0625 C 140.113281 50.0625 141.984375 50.867188 143.316406 52.613281 C 144.671875 54.21875 145.320312 56.5 145.320312 59.320312 Z M 141.183594 59.453125 C 141.183594 57.707031 140.78125 56.230469 139.984375 55.023438 C 139.046875 53.820312 137.980469 53.28125 136.507812 53.28125 C 135.574219 53.28125 134.636719 53.683594 133.835938 54.21875 C 132.96875 54.914062 132.4375 55.808594 132.234375 56.902344 C 132.097656 57.304688 131.96875 57.707031 131.96875 58.105469 L 131.96875 61.191406 C 131.929688 62.46875 132.332031 63.585938 133.167969 64.546875 C 133.964844 65.484375 135.039062 65.90625 136.375 65.90625 C 137.847656 65.90625 139.046875 65.371094 139.984375 64.164062 C 140.785156 62.960938 141.183594 61.347656 141.183594 59.46875 Z M 166.304688 59.316406 C 166.304688 62.402344 165.503906 64.953125 163.765625 66.695312 C 162.292969 68.304688 160.425781 69.109375 158.152344 69.109375 C 155.746094 69.109375 154.007812 68.304688 152.941406 66.558594 L 152.804688 66.558594 L 152.804688 76.21875 L 148.796875 76.21875 L 148.796875 56.363281 L 148.664062 50.328125 L 152.269531 50.328125 L 152.539062 53.28125 L 152.671875 53.28125 C 154.027344 51.136719 156.015625 50.0625 158.820312 50.0625 C 160.957031 50.0625 162.824219 50.867188 164.160156 52.613281 C 165.632812 54.21875 166.296875 56.5 166.296875 59.320312 Z M 162.164062 59.453125 C 162.164062 57.707031 161.761719 56.230469 160.960938 55.023438 C 160.027344 53.820312 158.957031 53.28125 157.488281 53.28125 C 156.550781 53.28125 155.617188 53.683594 154.816406 54.21875 C 153.949219 54.914062 153.414062 55.808594 153.214844 56.902344 C 153.078125 57.4375 153.078125 57.839844 153.078125 58.105469 L 153.078125 61.191406 C 153.039062 62.46875 153.441406 63.585938 154.277344 64.546875 C 155.078125 65.484375 156.148438 65.90625 157.484375 65.90625 C 158.957031 65.90625 160.15625 65.371094 161.09375 64.164062 C 161.761719 62.960938 162.164062 61.347656 162.164062 59.46875 Z M 189.6875 61.460938 C 189.6875 63.605469 188.886719 65.351562 187.414062 66.691406 C 185.8125 68.167969 183.539062 68.972656 180.445312 68.972656 C 177.777344 68.972656 175.503906 68.4375 173.898438 67.363281 L 174.832031 64.011719 C 176.570312 65.082031 178.574219 65.621094 180.710938 65.621094 C 182.183594 65.621094 183.382812 65.21875 184.320312 64.546875 C 185.121094 63.875 185.675781 62.9375 185.675781 61.730469 C 185.691406 60.722656 185.335938 59.871094 184.605469 59.179688 C 183.9375 58.507812 182.738281 57.820312 181.132812 57.167969 C 176.722656 55.558594 174.449219 53.144531 174.449219 49.925781 C 174.429688 48.945312 174.617188 48.011719 175.015625 47.117188 C 175.414062 46.226562 175.980469 45.460938 176.722656 44.828125 C 178.324219 43.464844 180.332031 42.816406 182.867188 42.816406 C 185.140625 42.816406 187.125 43.21875 188.613281 44.019531 L 187.546875 47.375 C 186.046875 46.554688 184.441406 46.15625 182.734375 46.167969 C 181.265625 46.167969 180.195312 46.570312 179.394531 47.242188 C 178.726562 47.914062 178.324219 48.601562 178.324219 49.523438 C 178.324219 50.015625 178.429688 50.488281 178.640625 50.933594 C 178.851562 51.378906 179.148438 51.761719 179.527344 52.074219 C 180.195312 52.609375 181.398438 53.277344 183.269531 54.085938 C 185.40625 55.023438 187.011719 55.960938 188.078125 57.171875 C 189.28125 58.242188 189.683594 59.71875 189.683594 61.445312 Z M 203.183594 53.414062 L 198.773438 53.414062 L 198.773438 62.269531 C 198.773438 64.550781 199.574219 65.625 201.179688 65.625 C 201.847656 65.625 202.535156 65.625 202.917969 65.488281 L 203.050781 68.574219 C 202.25 68.839844 201.183594 68.976562 199.84375 68.976562 C 198.242188 68.976562 197.039062 68.441406 196.101562 67.5 C 195.167969 66.558594 194.746094 64.816406 194.746094 62.535156 L 194.746094 53.265625 L 192.078125 53.265625 L 192.078125 50.179688 L 194.746094 50.179688 L 194.746094 46.960938 L 198.753906 45.753906 L 198.753906 50.316406 L 203.164062 50.316406 Z M 223.226562 59.316406 C 223.226562 62.132812 222.425781 64.414062 220.820312 66.3125 C 219.085938 68.1875 216.945312 69.128906 214.140625 69.128906 C 211.46875 69.128906 209.328125 68.191406 207.726562 66.449219 C 206.125 64.703125 205.320312 62.425781 205.320312 59.738281 C 205.320312 56.921875 206.121094 54.640625 207.726562 52.742188 C 209.328125 51 211.601562 50.0625 214.410156 50.0625 C 217.078125 50.0625 219.21875 51 220.820312 52.742188 C 222.558594 54.351562 223.226562 56.632812 223.226562 59.316406 Z M 219.085938 59.453125 C 219.113281 57.925781 218.757812 56.492188 218.015625 55.160156 C 217.214844 53.683594 216.011719 53.015625 214.410156 53.015625 C 212.804688 53.015625 211.601562 53.683594 210.667969 55.160156 C 210 56.363281 209.597656 57.839844 209.597656 59.585938 C 209.570312 61.113281 209.925781 62.542969 210.667969 63.878906 C 211.601562 65.355469 212.804688 66.023438 214.410156 66.023438 C 216.011719 66.023438 217.214844 65.21875 218.015625 63.742188 C 218.683594 62.667969 219.085938 61.191406 219.085938 59.46875 Z M 236.457031 53.953125 C 236.054688 53.816406 235.65625 53.816406 235.101562 53.816406 C 233.628906 53.816406 232.5625 54.351562 231.761719 55.425781 C 231.09375 56.363281 230.691406 57.570312 230.691406 59.046875 L 230.691406 68.707031 L 226.683594 68.707031 L 226.683594 56.230469 L 226.550781 50.460938 L 230.023438 50.460938 L 230.160156 53.949219 L 230.296875 53.949219 C 230.679688 52.773438 231.347656 51.789062 232.296875 51 C 233.234375 50.328125 234.167969 50.058594 235.242188 50.058594 C 235.640625 50.058594 235.910156 50.058594 236.308594 50.195312 Z M 254.496094 58.644531 C 254.496094 59.316406 254.496094 60.003906 254.363281 60.523438 L 242.203125 60.523438 C 242.203125 62.265625 242.871094 63.742188 243.9375 64.679688 C 245.121094 65.585938 246.457031 66.03125 247.945312 66.023438 C 249.683594 66.023438 251.421875 65.753906 252.890625 65.21875 L 253.558594 68.035156 C 251.820312 68.839844 249.816406 69.109375 247.414062 69.109375 C 244.605469 69.109375 242.335938 68.304688 240.730469 66.558594 C 239.128906 64.949219 238.324219 62.667969 238.324219 59.851562 C 238.324219 57.03125 239.125 54.753906 240.597656 53.011719 C 242.199219 51 244.339844 50.054688 247.011719 50.054688 C 249.679688 50.054688 251.6875 50.996094 253.023438 53.011719 C 253.957031 54.371094 254.492188 56.363281 254.492188 58.644531 Z M 250.753906 57.574219 C 250.753906 56.367188 250.488281 55.292969 249.953125 54.488281 C 249.285156 53.414062 248.21875 52.742188 246.746094 52.742188 C 245.390625 52.742188 244.339844 53.28125 243.539062 54.351562 C 242.871094 55.292969 242.46875 56.230469 242.339844 57.574219 Z M 250.753906 57.574219 " fill-opacity="1" fill-rule="nonzero"/></g><g clip-path="url(#id2)"><path fill="rgb(45.489502%, 45.489502%, 45.489502%)" d="M 94.726562 43.789062 C 94.726562 35.945312 101.230469 32.1875 101.402344 32.019531 C 97.808594 26.730469 91.988281 25.898438 90.101562 25.898438 C 85.308594 25.382812 80.6875 28.796875 78.289062 28.796875 C 75.722656 28.796875 72.148438 26.070312 68.019531 26.070312 C 62.878906 26.070312 57.917969 29.140625 55.347656 33.746094 C 49.699219 43.296875 53.808594 57.304688 59.113281 64.964844 C 61.683594 68.71875 64.765625 72.984375 68.871094 72.8125 C 72.808594 72.640625 74.351562 70.253906 79.144531 70.253906 C 83.9375 70.253906 85.289062 72.8125 89.417969 72.640625 C 93.699219 72.640625 96.265625 68.890625 98.832031 65.132812 C 101.914062 60.867188 103.113281 56.605469 103.113281 56.261719 C 102.941406 56.261719 94.898438 53.195312 94.726562 43.808594 Z M 87.023438 20.757812 C 89.078125 18.03125 90.613281 14.445312 90.273438 10.863281 C 87.195312 11.035156 83.425781 12.910156 81.203125 15.640625 C 79.316406 17.859375 77.433594 21.613281 77.949219 25.195312 C 81.203125 25.363281 84.800781 23.316406 87.023438 20.742188 Z M 131.753906 61.605469 L 127.660156 61.605469 L 125.34375 54.433594 L 117.527344 54.433594 L 115.339844 61.605469 L 111.359375 61.605469 L 119.175781 37.402344 L 124.058594 37.402344 Z M 124.558594 51.617188 L 122.503906 45.34375 C 122.246094 44.703125 121.859375 43.164062 121.199219 40.734375 L 121.070312 40.734375 L 119.914062 45.34375 L 117.859375 51.617188 Z M 151.800781 52.769531 C 151.800781 55.714844 151.03125 58.148438 149.359375 59.8125 C 147.945312 61.347656 146.144531 62.117188 143.960938 62.117188 C 141.648438 62.117188 139.976562 61.351562 138.949219 59.683594 L 138.949219 68.902344 L 135.097656 68.902344 L 135.097656 49.949219 L 134.964844 44.1875 L 138.433594 44.1875 L 138.691406 47.007812 L 138.824219 47.007812 C 140.125 44.960938 142.035156 43.933594 144.734375 43.933594 C 146.789062 43.933594 148.585938 44.703125 149.871094 46.367188 C 151.171875 47.90625 151.796875 50.082031 151.796875 52.773438 Z M 147.816406 52.898438 C 147.816406 51.234375 147.433594 49.824219 146.664062 48.671875 C 145.765625 47.523438 144.738281 47.007812 143.320312 47.007812 C 142.421875 47.007812 141.523438 47.394531 140.753906 47.90625 C 139.917969 48.566406 139.40625 49.421875 139.210938 50.464844 C 139.082031 50.847656 138.953125 51.234375 138.953125 51.613281 L 138.953125 54.5625 C 138.917969 55.777344 139.304688 56.84375 140.109375 57.761719 C 140.878906 58.660156 141.90625 59.0625 143.195312 59.0625 C 144.609375 59.0625 145.761719 58.550781 146.664062 57.398438 C 147.433594 56.246094 147.816406 54.707031 147.816406 52.914062 Z M 171.976562 52.769531 C 171.976562 55.714844 171.207031 58.148438 169.535156 59.8125 C 168.117188 61.347656 166.320312 62.117188 164.136719 62.117188 C 161.820312 62.117188 160.152344 61.351562 159.125 59.683594 L 158.992188 59.683594 L 158.992188 68.902344 L 155.140625 68.902344 L 155.140625 49.949219 L 155.011719 44.1875 L 158.480469 44.1875 L 158.738281 47.007812 L 158.867188 47.007812 C 160.171875 44.960938 162.082031 43.933594 164.777344 43.933594 C 166.832031 43.933594 168.632812 44.703125 169.914062 46.367188 C 171.332031 47.90625 171.96875 50.082031 171.96875 52.773438 Z M 167.992188 52.898438 C 167.992188 51.234375 167.605469 49.824219 166.839844 48.671875 C 165.9375 47.523438 164.910156 47.007812 163.496094 47.007812 C 162.597656 47.007812 161.699219 47.394531 160.929688 47.90625 C 160.09375 48.566406 159.582031 49.421875 159.386719 50.464844 C 159.257812 50.976562 159.257812 51.359375 159.257812 51.613281 L 159.257812 54.5625 C 159.222656 55.777344 159.605469 56.84375 160.410156 57.761719 C 161.179688 58.660156 162.207031 59.0625 163.496094 59.0625 C 164.910156 59.0625 166.0625 58.550781 166.964844 57.398438 C 167.605469 56.246094 167.992188 54.707031 167.992188 52.914062 Z M 194.464844 54.816406 C 194.464844 56.863281 193.691406 58.53125 192.277344 59.808594 C 190.738281 61.21875 188.550781 61.988281 185.578125 61.988281 C 183.007812 61.988281 180.820312 61.476562 179.277344 60.453125 L 180.179688 57.25 C 181.847656 58.273438 183.777344 58.785156 185.832031 58.785156 C 187.246094 58.785156 188.398438 58.402344 189.300781 57.761719 C 190.070312 57.121094 190.605469 56.226562 190.605469 55.074219 C 190.621094 54.113281 190.277344 53.300781 189.578125 52.640625 C 188.933594 51.996094 187.777344 51.339844 186.234375 50.71875 C 181.996094 49.183594 179.808594 46.878906 179.808594 43.804688 C 179.789062 42.871094 179.96875 41.976562 180.351562 41.125 C 180.734375 40.273438 181.28125 39.542969 181.996094 38.9375 C 183.535156 37.640625 185.464844 37.015625 187.90625 37.015625 C 190.089844 37.015625 192 37.402344 193.429688 38.167969 L 192.402344 41.371094 C 190.960938 40.589844 189.417969 40.203125 187.777344 40.21875 C 186.363281 40.21875 185.335938 40.601562 184.5625 41.242188 C 183.921875 41.882812 183.535156 42.542969 183.535156 43.421875 C 183.535156 43.890625 183.636719 44.339844 183.839844 44.765625 C 184.042969 45.191406 184.328125 45.554688 184.691406 45.855469 C 185.335938 46.367188 186.492188 47.003906 188.289062 47.773438 C 190.34375 48.671875 191.886719 49.566406 192.917969 50.722656 C 194.070312 51.746094 194.457031 53.15625 194.457031 54.800781 Z M 207.441406 47.136719 L 203.199219 47.136719 L 203.199219 55.589844 C 203.199219 57.765625 203.972656 58.789062 205.515625 58.789062 C 206.15625 58.789062 206.816406 58.789062 207.183594 58.660156 L 207.316406 61.605469 C 206.542969 61.863281 205.515625 61.988281 204.230469 61.988281 C 202.6875 61.988281 201.53125 61.476562 200.632812 60.582031 C 199.734375 59.683594 199.328125 58.019531 199.328125 55.84375 L 199.328125 46.992188 L 196.761719 46.992188 L 196.761719 44.046875 L 199.328125 44.046875 L 199.328125 40.972656 L 203.183594 39.824219 L 203.183594 44.179688 L 207.421875 44.179688 Z M 226.71875 52.769531 C 226.71875 55.457031 225.945312 57.632812 224.402344 59.445312 C 222.734375 61.238281 220.675781 62.136719 217.976562 62.136719 C 215.410156 62.136719 213.351562 61.242188 211.808594 59.578125 C 210.269531 57.914062 209.496094 55.738281 209.496094 53.171875 C 209.496094 50.484375 210.265625 48.308594 211.808594 46.496094 C 213.351562 44.832031 215.539062 43.933594 218.238281 43.933594 C 220.804688 43.933594 222.863281 44.832031 224.402344 46.496094 C 226.074219 48.03125 226.71875 50.207031 226.71875 52.769531 Z M 222.734375 52.898438 C 222.761719 51.441406 222.417969 50.074219 221.707031 48.800781 C 220.9375 47.390625 219.78125 46.753906 218.238281 46.753906 C 216.691406 46.753906 215.539062 47.394531 214.636719 48.800781 C 213.996094 49.949219 213.609375 51.359375 213.609375 53.027344 C 213.582031 54.484375 213.925781 55.851562 214.636719 57.125 C 215.539062 58.535156 216.691406 59.171875 218.238281 59.171875 C 219.78125 59.171875 220.9375 58.402344 221.707031 56.996094 C 222.347656 55.96875 222.734375 54.558594 222.734375 52.914062 Z M 239.4375 47.648438 C 239.054688 47.519531 238.667969 47.519531 238.136719 47.519531 C 236.722656 47.519531 235.695312 48.03125 234.921875 49.054688 C 234.28125 49.949219 233.894531 51.101562 233.894531 52.511719 L 233.894531 61.730469 L 230.042969 61.730469 L 230.042969 49.824219 L 229.910156 44.316406 L 233.253906 44.316406 L 233.382812 47.648438 L 233.515625 47.648438 C 233.886719 46.523438 234.527344 45.585938 235.441406 44.828125 C 236.339844 44.1875 237.238281 43.933594 238.269531 43.933594 C 238.65625 43.933594 238.914062 43.933594 239.296875 44.0625 Z M 256.789062 52.128906 C 256.789062 52.769531 256.789062 53.425781 256.65625 53.921875 L 244.964844 53.921875 C 244.964844 55.585938 245.605469 56.996094 246.632812 57.890625 C 247.773438 58.753906 249.058594 59.179688 250.488281 59.171875 C 252.160156 59.171875 253.832031 58.914062 255.242188 58.402344 L 255.886719 61.09375 C 254.214844 61.859375 252.289062 62.117188 249.976562 62.117188 C 247.277344 62.117188 245.09375 61.347656 243.550781 59.683594 C 242.007812 58.144531 241.234375 55.96875 241.234375 53.277344 C 241.234375 50.589844 242.007812 48.414062 243.421875 46.75 C 244.960938 44.828125 247.019531 43.929688 249.589844 43.929688 C 252.15625 43.929688 254.085938 44.824219 255.371094 46.75 C 256.269531 48.046875 256.785156 49.949219 256.785156 52.128906 Z M 253.191406 51.105469 C 253.191406 49.953125 252.933594 48.925781 252.417969 48.160156 C 251.777344 47.136719 250.75 46.496094 249.335938 46.496094 C 248.03125 46.496094 247.019531 47.007812 246.25 48.03125 C 245.609375 48.925781 245.222656 49.824219 245.097656 51.105469 Z M 253.191406 51.105469 " fill-opacity="1" fill-rule="nonzero"/></g></svg>