<svg xmlns="http://www.w3.org/2000/svg" xmlns:xlink="http://www.w3.org/1999/xlink" width="40" zoomAndPan="magnify" viewBox="0 0 30 30.000001" height="40" preserveAspectRatio="xMidYMid meet" version="1.0"><defs><filter x="0%" y="0%" width="100%" xlink:type="simple" xlink:actuate="onLoad" height="100%" id="id1" xlink:show="other"><feColorMatrix values="0 0 0 0 1 0 0 0 0 1 0 0 0 0 1 0 0 0 1 0" color-interpolation-filters="sRGB"/></filter><clipPath id="id2"><path d="M 0.484375 0 L 29.515625 0 L 29.515625 29.03125 L 0.484375 29.03125 Z M 0.484375 0 " clip-rule="nonzero"/></clipPath><mask id="id3"><g filter="url(#id1)"><rect x="-3" width="36" fill="rgb(0%, 0%, 0%)" y="-3" height="36.000001" fill-opacity="0.8471"/></g></mask><clipPath id="id4"><path d="M 0.484375 0.179688 L 29.515625 0.179688 L 29.515625 29.03125 L 0.484375 29.03125 Z M 0.484375 0.179688 " clip-rule="nonzero"/></clipPath><clipPath id="id5"><rect x="0" width="30" y="0" height="30"/></clipPath></defs><g clip-path="url(#id2)"><g mask="url(#id3)"><g transform="matrix(1, 0, 0, 1, 0, 0.000000000000005692)"><g clip-path="url(#id5)"><g clip-path="url(#id4)"><path fill="rgb(100%, 100%, 100%)" d="M 29.511719 14.785156 C 29.511719 6.71875 23.015625 0.179688 15 0.179688 C 6.984375 0.179688 0.488281 6.71875 0.488281 14.785156 C 0.488281 22.074219 5.792969 28.117188 12.730469 29.214844 L 12.730469 19.007812 L 9.046875 19.007812 L 9.046875 14.785156 L 12.730469 14.785156 L 12.730469 11.570312 C 12.730469 7.90625 14.898438 5.886719 18.214844 5.886719 C 19.800781 5.886719 21.464844 6.171875 21.464844 6.171875 L 21.464844 9.765625 L 19.632812 9.765625 C 17.828125 9.765625 17.269531 10.890625 17.269531 12.046875 L 17.269531 14.785156 L 21.292969 14.785156 L 20.648438 19.007812 L 17.269531 19.007812 L 17.269531 29.214844 C 24.207031 28.117188 29.511719 22.074219 29.511719 14.785156 " fill-opacity="1" fill-rule="nonzero"/></g></g></g></g></g></svg>