<svg xmlns="http://www.w3.org/2000/svg" xmlns:xlink="http://www.w3.org/1999/xlink" width="500" zoomAndPan="magnify" viewBox="0 0 375 118.499997" height="158" preserveAspectRatio="xMidYMid meet" version="1.0"><defs><g/><clipPath id="id1"><path d="M 298.855469 57.191406 L 374.210938 57.191406 L 374.210938 113.238281 L 298.855469 113.238281 Z M 298.855469 57.191406 " clip-rule="nonzero"/></clipPath></defs><g fill="rgb(100%, 100%, 100%)" fill-opacity="1"><g transform="translate(7.928304, 86.101896)"><g><path d="M 90.382812 -69.902344 C 90.28125 -70.101562 90.382812 -70 90.382812 -70 C 89.890625 -71.28125 88.214844 -73.25 86.640625 -72.953125 C 85.457031 -72.757812 85.851562 -72.265625 85.359375 -71.675781 C 83.390625 -69.3125 81.125 -67.246094 79.257812 -64.882812 C 74.332031 -58.679688 70.101562 -51.886719 65.867188 -45.191406 C 61.632812 -38.496094 57.695312 -31.800781 54.445312 -24.613281 C 53.066406 -21.5625 51.195312 -18.804688 49.71875 -15.851562 C 47.652344 -11.816406 45.878906 -7.582031 44.109375 -3.445312 C 44.109375 -3.644531 44.304688 -8.171875 44.007812 -7.976562 C 43.8125 -7.777344 43.714844 -7.679688 43.714844 -7.582031 C 43.910156 -9.746094 44.699219 -12.40625 45.09375 -14.769531 C 45.683594 -18.214844 45.976562 -21.660156 46.273438 -25.105469 C 46.46875 -26.1875 48.242188 -36.921875 49.324219 -42.238281 C 48.636719 -39.578125 47.847656 -35.835938 47.652344 -35.445312 C 48.539062 -40.070312 49.523438 -44.699219 51.097656 -49.226562 C 51 -48.832031 51 -48.441406 51.195312 -48.441406 C 51.492188 -48.441406 52.574219 -51.589844 52.28125 -51.6875 L 51.886719 -51.394531 C 52.28125 -52.28125 53.066406 -52.378906 52.96875 -53.855469 C 52.871094 -55.234375 52.179688 -56.511719 51.097656 -57.398438 C 50.308594 -58.1875 48.832031 -59.074219 47.652344 -58.777344 C 46.570312 -58.480469 46.667969 -57.890625 46.273438 -57.398438 C 42.53125 -52.671875 38.003906 -47.554688 34.359375 -42.335938 C 33.179688 -40.761719 32.589844 -39.085938 31.40625 -37.414062 C 29.242188 -34.65625 27.273438 -31.703125 25.007812 -29.042969 C 22.742188 -26.1875 21.464844 -23.234375 19.394531 -20.378906 L 14.175781 -12.898438 C 15.949219 -19.394531 17.03125 -25.992188 18.3125 -32.589844 C 18.609375 -34.261719 21.855469 -52.179688 21.855469 -52.179688 C 21.757812 -52.179688 19.789062 -41.746094 19.492188 -40.660156 C 20.578125 -46.371094 21.757812 -52.28125 22.347656 -58.089844 C 22.347656 -58.1875 22.25 -56.316406 22.347656 -56.414062 C 22.839844 -56.414062 23.039062 -60.550781 22.644531 -60.449219 C 22.546875 -60.351562 22.449219 -60.253906 22.449219 -60.15625 C 22.449219 -61.042969 22.941406 -61.730469 22.941406 -63.011719 C 22.839844 -65.078125 22.546875 -67.046875 21.660156 -68.917969 C 20.972656 -70.394531 19.984375 -71.96875 18.3125 -72.265625 C 17.917969 -72.363281 17.820312 -72.070312 17.328125 -72.167969 C 16.835938 -72.167969 16.738281 -72.5625 16.246094 -72.5625 C 14.078125 -72.460938 12.40625 -70.394531 11.617188 -68.621094 C 10.535156 -66.554688 9.253906 -59.464844 13.785156 -62.519531 C 13.785156 -62.027344 13.488281 -57.300781 13.390625 -57.003906 C 13.585938 -57.105469 13.585938 -57.300781 13.683594 -57.496094 C 13.585938 -56.511719 13.488281 -55.625 13.292969 -54.742188 C 13.191406 -54.839844 13.390625 -55.527344 13.191406 -55.527344 C 12.308594 -55.527344 11.421875 -46.960938 11.421875 -45.878906 C 11.324219 -43.910156 10.929688 -42.136719 10.4375 -40.167969 C 10.238281 -39.285156 10.042969 -38.398438 9.945312 -37.511719 C 9.84375 -37.414062 9.746094 -35.148438 10.042969 -35.738281 C 10.042969 -35.542969 9.945312 -35.445312 9.945312 -35.246094 C 9.84375 -35.34375 9.84375 -35.445312 9.84375 -35.542969 C 9.746094 -35.445312 9.253906 -32.292969 9.15625 -32.195312 C 8.664062 -30.519531 7.976562 -29.042969 7.484375 -27.371094 C 6.398438 -23.433594 5.808594 -19.394531 4.824219 -15.457031 C 7.382812 -23.234375 9.746094 -31.503906 11.421875 -39.480469 C 12.699219 -45.878906 14.472656 -52.773438 14.964844 -59.367188 C 14.472656 -51.292969 12.898438 -43.125 10.929688 -35.445312 C 9.746094 -30.71875 8.46875 -25.992188 7.1875 -21.265625 C 5.90625 -16.441406 3.742188 -11.816406 2.558594 -6.890625 C 1.96875 -4.628906 1.476562 -2.855469 0.6875 -0.589844 C -0.0976562 1.671875 -0.6875 4.136719 1.773438 5.613281 C 4.332031 7.089844 8.960938 6.496094 10.238281 3.542969 C 10.4375 3.050781 10.535156 2.558594 10.632812 2.066406 C 11.519531 -0.789062 13.488281 -3.347656 14.964844 -5.90625 C 17.625 -10.535156 20.378906 -15.160156 23.433594 -19.59375 C 26.582031 -24.417969 29.832031 -29.042969 32.785156 -33.96875 C 34.164062 -36.230469 36.230469 -38.199219 37.804688 -40.367188 L 41.546875 -45.191406 C 41.351562 -44.699219 40.167969 -39.285156 40.070312 -39.285156 C 40.167969 -39.285156 40.167969 -39.382812 40.269531 -39.382812 C 40.070312 -38.792969 39.972656 -38.101562 39.875 -37.511719 C 39.675781 -37.511719 39.972656 -38.101562 39.777344 -38.101562 C 38.496094 -38.296875 37.707031 -30.027344 37.707031 -29.4375 C 37.511719 -27.863281 37.019531 -26.289062 36.722656 -24.710938 C 36.429688 -23.433594 36.625 -22.347656 36.625 -21.464844 C 36.527344 -21.660156 36.527344 -20.378906 36.429688 -20.085938 C 36.328125 -19 36.035156 -18.609375 35.738281 -17.625 C 34.953125 -15.359375 34.753906 -12.699219 34.65625 -10.4375 C 34.558594 -6.105469 34.066406 -1.378906 34.65625 2.855469 C 35.050781 6.203125 38.296875 9.058594 41.746094 8.761719 C 43.617188 8.566406 44.007812 7.777344 44.402344 6.203125 C 44.699219 4.824219 45.386719 3.445312 46.078125 1.96875 C 48.539062 -3.25 51 -8.566406 53.757812 -13.585938 C 55.527344 -16.835938 56.511719 -20.085938 58.285156 -23.136719 C 60.648438 -27.273438 62.914062 -31.40625 65.472656 -35.34375 C 66.652344 -37.214844 67.539062 -39.085938 68.328125 -40.957031 C 69.410156 -43.320312 71.476562 -45.386719 72.953125 -47.554688 C 74.628906 -49.917969 76.105469 -52.28125 77.976562 -54.640625 C 79.648438 -56.710938 81.71875 -58.777344 83.09375 -61.042969 C 83.6875 -62.027344 83.292969 -62.027344 84.179688 -62.914062 C 84.769531 -63.503906 85.65625 -64.191406 86.441406 -64.78125 C 88.019531 -66.0625 91.167969 -67.34375 90.382812 -69.902344 Z M 46.667969 -31.800781 C 46.570312 -31.503906 46.863281 -32.195312 47.160156 -32.882812 C 47.160156 -32.980469 47.257812 -33.082031 47.257812 -33.179688 C 46.960938 -31.800781 46.667969 -30.71875 46.46875 -29.535156 C 46.46875 -30.226562 46.371094 -30.816406 46.667969 -31.800781 Z M 50.210938 -45.09375 C 50.113281 -45.09375 49.917969 -44.601562 49.71875 -43.617188 C 49.917969 -44.5 50.210938 -45.09375 50.210938 -45.09375 Z M 50.210938 -45.09375 "/></g></g></g><g fill="rgb(100%, 100%, 100%)" fill-opacity="1"><g transform="translate(74.581915, 86.101896)"><g><path d="M 45.289062 -24.515625 C 45.289062 -24.515625 45.386719 -24.417969 45.289062 -24.613281 C 44.796875 -25.304688 44.109375 -24.808594 43.417969 -24.613281 C 40.5625 -24.023438 37.609375 -23.332031 34.65625 -22.839844 C 35.738281 -26.386719 36.820312 -30.128906 37.214844 -33.769531 C 37.414062 -35.148438 37.511719 -36.625 37.214844 -38.003906 C 37.019531 -38.890625 36.722656 -39.777344 36.230469 -40.5625 C 36.230469 -40.5625 35.050781 -42.039062 35.34375 -41.253906 L 35.246094 -41.351562 L 34.851562 -42.136719 L 35.246094 -41.746094 C 35.34375 -42.335938 33.671875 -43.417969 33.671875 -43.417969 C 31.210938 -45.878906 27.863281 -47.75 24.515625 -45.878906 C 22.449219 -44.699219 20.773438 -42.730469 19.394531 -40.761719 C 18.902344 -40.070312 18.410156 -39.285156 18.015625 -38.496094 C 17.625 -37.707031 17.03125 -35.148438 16.441406 -34.753906 C 15.949219 -34.359375 14.472656 -34.261719 13.785156 -33.867188 C 12.800781 -33.472656 11.914062 -32.980469 11.125 -32.390625 C 9.253906 -31.210938 7.777344 -29.535156 6.398438 -27.863281 C 4.035156 -24.710938 2.855469 -21.167969 1.179688 -18.015625 C -1.96875 -12.011719 1.476562 -4.136719 7.285156 -1.28125 C 9.15625 -0.394531 11.324219 0 13.292969 -0.195312 C 15.359375 -0.492188 17.328125 -1.574219 18.902344 -2.757812 C 20.378906 -3.839844 23.628906 -5.808594 24.21875 -7.484375 C 24.21875 -7.582031 24.023438 -7.484375 23.726562 -7.1875 L 26.582031 -10.535156 C 26.679688 -10.4375 25.894531 -9.453125 25.894531 -9.453125 C 26.582031 -9.15625 30.128906 -14.375 30.519531 -14.769531 C 31.210938 -15.949219 31.898438 -17.230469 32.6875 -18.410156 C 33.375 -19.296875 33.179688 -19.199219 34.164062 -19.59375 C 34.066406 -19.492188 35.34375 -19.886719 35.542969 -19.886719 C 36.625 -20.085938 48.144531 -20.871094 45.289062 -24.515625 Z M 11.222656 -4.628906 L 11.125 -4.628906 C 2.953125 -3.445312 12.40625 -20.773438 12.601562 -21.757812 L 12.011719 -20.871094 C 13.488281 -23.824219 14.867188 -26.1875 15.554688 -26.976562 C 16.640625 -22.054688 21.957031 -20.183594 26.289062 -19.59375 C 23.433594 -13.882812 18.117188 -5.90625 11.222656 -4.628906 Z M 30.621094 -31.898438 C 29.929688 -29.140625 29.339844 -25.5 27.863281 -23.039062 C 27.371094 -22.054688 27.664062 -22.347656 26.679688 -22.152344 C 26.089844 -21.957031 24.808594 -22.152344 24.21875 -22.25 C 23.136719 -22.347656 21.855469 -22.546875 21.070312 -23.234375 C 19.691406 -24.417969 19.886719 -26.289062 20.085938 -27.960938 C 20.28125 -29.636719 20.773438 -31.210938 21.363281 -32.785156 C 21.660156 -33.375 23.53125 -36.527344 23.234375 -37.117188 C 23.136719 -37.414062 22.054688 -35.640625 21.957031 -35.542969 C 22.546875 -36.625 23.136719 -37.214844 23.628906 -37.90625 C 23.53125 -37.90625 23.628906 -38.003906 23.726562 -38.199219 L 23.726562 -38.101562 L 23.824219 -38.296875 C 23.824219 -38.296875 23.824219 -38.398438 23.925781 -38.398438 C 25.402344 -40.367188 29.042969 -44.796875 31.011719 -41.746094 C 32.488281 -39.183594 31.113281 -34.359375 30.621094 -31.898438 Z M 23.824219 -38.296875 L 23.925781 -38.398438 C 23.925781 -38.296875 23.824219 -38.296875 23.824219 -38.296875 Z M 23.824219 -38.296875 "/></g></g></g><g fill="rgb(100%, 100%, 100%)" fill-opacity="1"><g transform="translate(113.077571, 86.101896)"><g><path d="M 40.367188 -23.925781 C 39.777344 -26.484375 37.414062 -23.039062 36.921875 -22.449219 L 31.503906 -15.160156 L 26.1875 -8.171875 L 23.332031 -4.527344 C 23.039062 -4.136719 20.871094 -1.378906 21.070312 -1.378906 C 21.265625 -1.574219 21.5625 -1.574219 21.855469 -1.871094 C 20.378906 -0.296875 14.964844 4.628906 13.980469 3.445312 C 13.191406 2.460938 15.359375 -1.671875 15.652344 -2.660156 C 16.738281 -5.511719 17.722656 -8.46875 18.902344 -11.222656 C 20.183594 -14.078125 21.660156 -16.933594 22.839844 -19.789062 C 24.023438 -22.839844 22.25 -23.925781 19.394531 -24.613281 C 18.117188 -24.910156 16.539062 -24.910156 15.0625 -25.105469 C 15.0625 -25.007812 15.160156 -25.007812 15.160156 -25.007812 C 16.441406 -24.808594 18.3125 -24.710938 19.886719 -24.21875 C 17.523438 -24.910156 14.570312 -24.613281 12.699219 -25.105469 C 11.421875 -25.402344 10.632812 -25.402344 10.828125 -26.878906 C 11.027344 -28.847656 13.09375 -30.914062 13.785156 -32.785156 C 13.785156 -32.6875 13.09375 -30.914062 13.191406 -30.914062 C 13.683594 -30.71875 14.472656 -33.472656 14.472656 -33.867188 C 14.375 -34.359375 13.191406 -35.835938 13.09375 -35.246094 L 13.292969 -34.953125 C 8.566406 -38.199219 2.953125 -31.503906 3.9375 -26.679688 C 4.136719 -25.992188 4.527344 -25.597656 4.824219 -24.808594 C 5.019531 -24.21875 4.824219 -23.53125 5.414062 -22.742188 C 7.484375 -20.183594 11.222656 -20.085938 14.175781 -20.675781 C 13.683594 -19.984375 8.46875 -8.960938 8.761719 -8.859375 L 8.074219 -6.398438 C 7.976562 -6.496094 8.367188 -7.285156 8.171875 -7.285156 C 7.484375 -7.382812 6.105469 -1.671875 6.003906 -1.179688 C 5.613281 1.179688 5.710938 3.25 6.695312 5.414062 C 7.285156 6.792969 7.976562 7.976562 9.253906 8.761719 C 10.4375 9.550781 11.914062 9.945312 13.292969 9.648438 C 13.785156 9.453125 15.652344 8.171875 15.160156 8.269531 L 15.851562 7.976562 C 15.753906 8.074219 15.652344 8.171875 15.652344 8.269531 C 15.949219 8.367188 20.480469 4.726562 21.070312 4.332031 C 24.21875 1.671875 26.78125 -1.574219 29.140625 -4.824219 C 31.503906 -8.171875 33.96875 -11.519531 36.230469 -14.867188 C 37.3125 -16.441406 38.296875 -18.015625 39.085938 -19.691406 C 39.675781 -20.871094 40.660156 -22.546875 40.367188 -23.925781 Z M 10.929688 -12.109375 C 11.617188 -13.882812 12.40625 -15.554688 13.292969 -17.230469 C 13.488281 -17.523438 14.867188 -21.070312 15.554688 -21.265625 C 15.0625 -20.972656 12.996094 -16.148438 12.503906 -15.261719 L 10.632812 -10.929688 C 9.648438 -8.566406 8.566406 -6.105469 7.875 -3.542969 C 8.566406 -6.496094 9.746094 -9.351562 10.929688 -12.109375 Z M 8.566406 6.792969 C 9.15625 7.582031 9.945312 8.367188 11.027344 8.761719 C 10.140625 8.46875 9.351562 7.976562 8.761719 7.382812 C 8.859375 7.382812 8.859375 7.484375 8.859375 7.582031 C 8.269531 6.792969 7.484375 5.121094 7.382812 4.824219 C 7.089844 3.644531 6.992188 2.265625 7.089844 1.082031 C 7.089844 0.0976562 7.1875 -0.6875 7.382812 -1.574219 L 7.382812 -1.476562 C 7.1875 -0.195312 7.089844 1.082031 7.1875 2.460938 L 7.1875 2.953125 C 7.089844 2.855469 7.089844 2.757812 7.089844 2.757812 C 7.089844 2.757812 7.089844 2.855469 7.1875 3.050781 L 7.1875 3.152344 L 7.582031 5.21875 L 7.285156 3.9375 C 7.484375 4.527344 7.976562 5.613281 8.46875 6.695312 L 8.367188 6.597656 C 8.367188 6.695312 8.46875 6.792969 8.566406 6.890625 Z M 11.324219 -25.695312 C 11.816406 -25.304688 12.699219 -25.203125 13.585938 -25.105469 C 12.800781 -25.203125 12.109375 -25.402344 11.617188 -25.796875 C 11.617188 -25.796875 11.027344 -26.289062 10.929688 -26.484375 C 10.929688 -26.289062 11.125 -25.796875 11.324219 -25.695312 Z M 21.660156 -18.015625 L 19.59375 -13.683594 L 21.660156 -18.117188 Z M 7.484375 -1.871094 C 7.484375 -1.773438 7.382812 -1.671875 7.382812 -1.574219 L 7.382812 -1.671875 C 7.382812 -1.773438 7.484375 -1.773438 7.484375 -1.871094 Z M 21.757812 -18.3125 L 21.757812 -18.214844 L 21.660156 -18.214844 Z M 21.757812 -18.3125 L 21.757812 -18.214844 L 21.660156 -18.214844 Z M 7.582031 -3.152344 C 7.582031 -3.25 7.679688 -3.347656 7.679688 -3.542969 C 7.679688 -3.347656 7.582031 -3.25 7.582031 -3.152344 Z M 7.976562 5.90625 C 7.976562 5.90625 8.074219 6.003906 8.074219 6.105469 C 8.074219 6.003906 7.976562 6.003906 7.976562 5.90625 Z M 11.027344 -26.679688 C 10.929688 -26.679688 10.929688 -26.582031 10.929688 -26.582031 Z M 11.027344 -26.679688 "/></g></g></g><g fill="rgb(100%, 100%, 100%)" fill-opacity="1"><g transform="translate(146.256689, 86.101896)"><g><path d="M 52.082031 -23.824219 C 51.984375 -25.597656 50.703125 -25.105469 49.816406 -24.316406 C 49.324219 -23.824219 42.925781 -16.738281 43.222656 -16.246094 C 43.417969 -16.246094 43.714844 -16.246094 43.910156 -16.441406 C 42.039062 -14.570312 39.085938 -12.800781 36.820312 -11.125 C 34.558594 -9.351562 31.996094 -6.105469 28.847656 -5.90625 C 28.550781 -5.90625 28.257812 -5.808594 27.863281 -5.90625 C 26.484375 -6.105469 23.136719 -12.109375 22.839844 -13.390625 C 22.941406 -12.40625 25.203125 -7.976562 25.796875 -6.992188 C 23.53125 -9.550781 22.347656 -13.390625 21.757812 -16.835938 C 21.855469 -16.539062 22.054688 -16.246094 22.152344 -16.246094 C 22.449219 -16.34375 22.054688 -18.3125 22.054688 -18.410156 C 22.25 -18.609375 23.726562 -19 24.121094 -19.199219 C 26.289062 -20.085938 28.355469 -21.167969 30.421875 -22.347656 C 34.261719 -24.417969 38.101562 -26.878906 41.253906 -29.929688 C 44.699219 -33.375 47.652344 -38.199219 43.125 -42.136719 C 38.59375 -45.976562 32.195312 -40.859375 28.75 -37.804688 C 25.402344 -34.851562 22.546875 -31.40625 19.886719 -27.863281 C 18.707031 -26.089844 17.425781 -24.417969 16.34375 -22.644531 C 15.652344 -21.660156 13.488281 -19.199219 13.683594 -18.015625 C 13.683594 -18.015625 15.554688 -20.28125 15.652344 -20.378906 C 14.964844 -19.394531 14.277344 -18.3125 13.683594 -17.230469 C 13.683594 -17.328125 12.109375 -15.160156 11.914062 -14.769531 L 9.253906 -10.140625 C 10.335938 -14.769531 11.617188 -19.394531 12.996094 -24.023438 C 13.683594 -26.386719 14.277344 -27.765625 15.851562 -29.636719 C 17.230469 -31.308594 18.609375 -32.980469 19.886719 -34.65625 C 22.839844 -38.398438 25.5 -42.433594 28.15625 -46.46875 C 30.128906 -49.425781 31.605469 -53.265625 33.867188 -55.726562 C 36.625 -58.972656 38.988281 -63.304688 40.367188 -67.441406 C 41.152344 -69.707031 40.859375 -71.578125 39.777344 -73.839844 C 37.707031 -77.878906 33.574219 -81.519531 29.042969 -79.453125 C 25.304688 -77.777344 22.644531 -73.9375 20.675781 -70.492188 C 19.394531 -68.328125 18.214844 -66.0625 17.230469 -63.699219 L 15.261719 -59.566406 C 14.964844 -58.777344 14.667969 -57.496094 14.375 -56.808594 C 14.375 -56.710938 14.277344 -56.613281 14.277344 -56.613281 C 13.488281 -54.640625 12.898438 -52.773438 12.207031 -50.800781 C 12.109375 -50.902344 12.699219 -52.773438 12.699219 -52.773438 C 12.207031 -52.773438 10.632812 -48.046875 10.4375 -47.457031 C 9.550781 -45.09375 8.761719 -42.730469 7.976562 -40.269531 C 6.496094 -35.835938 5.316406 -31.308594 4.429688 -26.679688 C 3.644531 -21.660156 2.164062 -16.738281 1.082031 -11.816406 C 0.6875 -9.648438 0 -7.484375 0 -5.316406 C 0 -4.136719 0.195312 -2.855469 0.886719 -1.871094 C 1.082031 -1.671875 2.757812 -0.296875 2.757812 -0.394531 C 2.757812 -0.394531 2.660156 -0.492188 2.660156 -0.589844 C 3.152344 -0.195312 4.136719 0.0976562 4.921875 0.195312 C 4.234375 0.195312 3.347656 0.0976562 3.152344 -0.195312 C 3.839844 0.789062 6.496094 0.0976562 6.695312 0.0976562 C 8.960938 -0.394531 9.453125 -3.542969 10.632812 -5.316406 L 15.359375 -13.191406 C 15.753906 -11.125 16.539062 -8.761719 17.523438 -6.992188 C 17.722656 -6.496094 20.578125 -2.558594 20.773438 -2.757812 C 20.773438 -2.855469 20.675781 -3.050781 20.675781 -3.152344 C 21.070312 -2.660156 21.464844 -2.265625 21.957031 -1.96875 C 21.855469 -1.871094 21.5625 -2.265625 21.464844 -2.066406 C 20.871094 -1.179688 25.105469 0.296875 25.796875 0.296875 C 27.171875 0.195312 28.355469 -0.789062 29.636719 -1.28125 C 30.71875 -1.773438 31.800781 -2.164062 32.785156 -2.953125 C 33.96875 -3.9375 32.6875 -3.347656 33.472656 -3.9375 L 33.472656 -3.742188 C 33.769531 -4.136719 38.199219 -6.597656 38.398438 -6.792969 C 40.660156 -8.46875 42.433594 -10.730469 44.402344 -12.800781 C 46.078125 -14.472656 47.457031 -16.34375 48.832031 -18.117188 C 50.308594 -19.789062 52.28125 -21.167969 52.082031 -23.726562 Z M 30.71875 -71.871094 C 31.703125 -73.25 34.558594 -76.695312 36.328125 -74.332031 C 38.101562 -71.96875 35.050781 -66.359375 33.96875 -64.09375 C 32.488281 -60.746094 30.621094 -57.496094 28.75 -54.347656 L 26.089844 -50.015625 C 25.105469 -48.539062 23.824219 -47.160156 23.234375 -45.683594 C 23.628906 -46.371094 24.417969 -47.257812 24.910156 -47.847656 L 27.074219 -51.292969 C 28.75 -53.953125 30.324219 -56.613281 31.800781 -59.367188 C 32.589844 -60.648438 33.375 -62.125 34.261719 -63.699219 C 33.277344 -61.632812 32.195312 -59.664062 31.113281 -57.695312 C 26.78125 -49.816406 21.757812 -42.433594 16.34375 -35.34375 C 18.117188 -41.746094 19.984375 -48.144531 22.347656 -54.445312 C 24.613281 -60.351562 26.878906 -66.753906 30.71875 -71.871094 Z M 20.871094 -21.167969 C 24.121094 -25.695312 27.46875 -30.128906 31.308594 -34.164062 C 32.195312 -35.148438 37.117188 -40.761719 38.792969 -39.578125 C 40.367188 -38.398438 34.753906 -31.996094 33.96875 -31.113281 C 30.324219 -27.171875 25.894531 -23.136719 20.871094 -21.167969 Z M 21.464844 -56.511719 C 22.644531 -59.367188 23.726562 -62.320312 25.105469 -65.273438 C 25.203125 -65.667969 26.1875 -66.949219 26.679688 -67.835938 C 26.1875 -66.554688 24.710938 -64.390625 24.515625 -63.796875 C 22.941406 -59.761719 21.757812 -55.625 20.378906 -51.492188 C 18.804688 -46.570312 17.230469 -41.84375 15.949219 -36.921875 L 16.148438 -37.707031 L 16.046875 -37.609375 C 16.046875 -37.707031 16.148438 -37.707031 16.148438 -37.804688 C 17.425781 -44.007812 19 -50.605469 21.464844 -56.511719 Z M 14.375 -56.808594 L 14.277344 -56.710938 C 14.375 -56.710938 14.375 -56.808594 14.375 -56.808594 Z M 14.277344 -56.613281 L 14.277344 -56.710938 Z M 14.277344 -56.613281 "/></g></g></g><g fill="rgb(100%, 100%, 100%)" fill-opacity="1"><g transform="translate(191.151864, 86.101896)"><g><path d="M 45.289062 -24.515625 C 45.289062 -24.515625 45.386719 -24.417969 45.289062 -24.613281 C 44.796875 -25.304688 44.109375 -24.808594 43.417969 -24.613281 C 40.5625 -24.023438 37.609375 -23.332031 34.65625 -22.839844 C 35.738281 -26.386719 36.820312 -30.128906 37.214844 -33.769531 C 37.414062 -35.148438 37.511719 -36.625 37.214844 -38.003906 C 37.019531 -38.890625 36.722656 -39.777344 36.230469 -40.5625 C 36.230469 -40.5625 35.050781 -42.039062 35.34375 -41.253906 L 35.246094 -41.351562 L 34.851562 -42.136719 L 35.246094 -41.746094 C 35.34375 -42.335938 33.671875 -43.417969 33.671875 -43.417969 C 31.210938 -45.878906 27.863281 -47.75 24.515625 -45.878906 C 22.449219 -44.699219 20.773438 -42.730469 19.394531 -40.761719 C 18.902344 -40.070312 18.410156 -39.285156 18.015625 -38.496094 C 17.625 -37.707031 17.03125 -35.148438 16.441406 -34.753906 C 15.949219 -34.359375 14.472656 -34.261719 13.785156 -33.867188 C 12.800781 -33.472656 11.914062 -32.980469 11.125 -32.390625 C 9.253906 -31.210938 7.777344 -29.535156 6.398438 -27.863281 C 4.035156 -24.710938 2.855469 -21.167969 1.179688 -18.015625 C -1.96875 -12.011719 1.476562 -4.136719 7.285156 -1.28125 C 9.15625 -0.394531 11.324219 0 13.292969 -0.195312 C 15.359375 -0.492188 17.328125 -1.574219 18.902344 -2.757812 C 20.378906 -3.839844 23.628906 -5.808594 24.21875 -7.484375 C 24.21875 -7.582031 24.023438 -7.484375 23.726562 -7.1875 L 26.582031 -10.535156 C 26.679688 -10.4375 25.894531 -9.453125 25.894531 -9.453125 C 26.582031 -9.15625 30.128906 -14.375 30.519531 -14.769531 C 31.210938 -15.949219 31.898438 -17.230469 32.6875 -18.410156 C 33.375 -19.296875 33.179688 -19.199219 34.164062 -19.59375 C 34.066406 -19.492188 35.34375 -19.886719 35.542969 -19.886719 C 36.625 -20.085938 48.144531 -20.871094 45.289062 -24.515625 Z M 11.222656 -4.628906 L 11.125 -4.628906 C 2.953125 -3.445312 12.40625 -20.773438 12.601562 -21.757812 L 12.011719 -20.871094 C 13.488281 -23.824219 14.867188 -26.1875 15.554688 -26.976562 C 16.640625 -22.054688 21.957031 -20.183594 26.289062 -19.59375 C 23.433594 -13.882812 18.117188 -5.90625 11.222656 -4.628906 Z M 30.621094 -31.898438 C 29.929688 -29.140625 29.339844 -25.5 27.863281 -23.039062 C 27.371094 -22.054688 27.664062 -22.347656 26.679688 -22.152344 C 26.089844 -21.957031 24.808594 -22.152344 24.21875 -22.25 C 23.136719 -22.347656 21.855469 -22.546875 21.070312 -23.234375 C 19.691406 -24.417969 19.886719 -26.289062 20.085938 -27.960938 C 20.28125 -29.636719 20.773438 -31.210938 21.363281 -32.785156 C 21.660156 -33.375 23.53125 -36.527344 23.234375 -37.117188 C 23.136719 -37.414062 22.054688 -35.640625 21.957031 -35.542969 C 22.546875 -36.625 23.136719 -37.214844 23.628906 -37.90625 C 23.53125 -37.90625 23.628906 -38.003906 23.726562 -38.199219 L 23.726562 -38.101562 L 23.824219 -38.296875 C 23.824219 -38.296875 23.824219 -38.398438 23.925781 -38.398438 C 25.402344 -40.367188 29.042969 -44.796875 31.011719 -41.746094 C 32.488281 -39.183594 31.113281 -34.359375 30.621094 -31.898438 Z M 23.824219 -38.296875 L 23.925781 -38.398438 C 23.925781 -38.296875 23.824219 -38.296875 23.824219 -38.296875 Z M 23.824219 -38.296875 "/></g></g></g><g fill="rgb(100%, 100%, 100%)" fill-opacity="1"><g transform="translate(229.647515, 86.101896)"><g><path d="M 46.570312 -24.023438 C 46.273438 -25.894531 41.746094 -20.675781 41.546875 -20.480469 C 38.691406 -17.425781 35.9375 -14.078125 32.589844 -11.421875 C 31.011719 -10.238281 30.324219 -9.550781 30.421875 -11.914062 C 30.519531 -13.980469 31.308594 -16.148438 31.898438 -18.015625 C 32.195312 -19 34.164062 -22.742188 33.574219 -23.433594 C 33.472656 -23.53125 33.277344 -23.234375 33.082031 -23.039062 C 34.460938 -25.796875 37.804688 -30.519531 33.375 -31.800781 C 28.355469 -33.179688 25.796875 -27.765625 23.628906 -24.515625 C 21.5625 -21.5625 19.59375 -18.707031 17.230469 -16.046875 C 15.457031 -13.980469 12.699219 -10.042969 9.84375 -9.253906 C 7.1875 -8.367188 8.960938 -12.699219 9.351562 -14.175781 C 9.648438 -14.964844 13.191406 -24.121094 13.390625 -24.023438 C 13.191406 -24.023438 12.996094 -23.925781 12.800781 -23.628906 C 13.882812 -25.992188 15.0625 -28.355469 16.34375 -30.621094 C 16.046875 -30.027344 15.753906 -29.042969 15.753906 -29.042969 C 16.246094 -28.945312 18.609375 -33.769531 18.410156 -33.769531 C 18.214844 -33.671875 18.015625 -33.472656 17.820312 -33.179688 C 18.609375 -34.558594 19.59375 -35.246094 17.820312 -36.625 C 16.046875 -38.003906 12.898438 -38.296875 11.125 -36.722656 C 8.960938 -34.953125 7.582031 -31.800781 6.496094 -29.339844 C 5.808594 -27.960938 4.628906 -27.171875 3.9375 -25.597656 C 2.558594 -22.546875 1.773438 -19.492188 0.984375 -16.34375 C 0.195312 -13.292969 -0.296875 -10.140625 0.195312 -6.992188 C 0.492188 -5.613281 0.984375 -4.035156 2.066406 -3.050781 C 2.363281 -2.855469 5.21875 -1.773438 5.019531 -2.460938 C 4.824219 -2.460938 4.628906 -2.460938 4.527344 -2.558594 C 5.613281 -2.558594 6.695312 -3.050781 7.679688 -3.644531 C 7.777344 -3.542969 6.890625 -3.152344 6.890625 -3.050781 C 7.875 -1.773438 15.359375 -9.351562 16.046875 -10.238281 C 18.507812 -13.390625 20.972656 -16.441406 23.53125 -19.492188 C 22.25 -16.046875 20.085938 -11.324219 22.152344 -7.582031 C 23.332031 -5.613281 25.597656 -4.527344 27.765625 -4.726562 C 32.390625 -5.019531 36.527344 -10.042969 39.382812 -13.09375 C 41.253906 -15.160156 43.125 -17.328125 44.5 -19.691406 C 45.09375 -20.675781 46.667969 -22.839844 46.570312 -24.023438 Z M 31.605469 -22.054688 C 31.40625 -21.464844 31.308594 -20.675781 31.011719 -20.183594 C 31.011719 -20.085938 30.914062 -19.984375 30.816406 -19.886719 C 30.914062 -19.984375 30.914062 -20.085938 30.914062 -20.183594 C 30.128906 -22.644531 33.082031 -25.796875 34.066406 -28.257812 C 33.277344 -26.089844 32.292969 -24.121094 31.605469 -22.054688 Z M 8.171875 -9.351562 C 7.582031 -12.207031 9.648438 -16.148438 10.730469 -18.804688 C 9.351562 -14.964844 7.976562 -10.238281 8.171875 -9.351562 Z M 23.53125 -19 C 23.53125 -19.394531 23.628906 -19.691406 23.925781 -19.886719 C 23.726562 -19.59375 23.628906 -19.296875 23.53125 -19 Z M 23.53125 -19 "/></g></g></g><g fill="rgb(100%, 100%, 100%)" fill-opacity="1"><g transform="translate(269.029265, 86.101896)"><g><path d="M 39.972656 -51.195312 C 39.875 -52.574219 38.398438 -51.492188 37.609375 -51.492188 C 33.671875 -51.292969 29.734375 -51.292969 25.894531 -51.097656 C 25.894531 -51.195312 26.089844 -51.589844 26.386719 -52.179688 C 25.992188 -51.492188 25.695312 -51.097656 25.402344 -51.097656 C 28.355469 -57.105469 31.503906 -63.109375 35.246094 -68.621094 C 35.148438 -68.425781 33.671875 -65.964844 33.769531 -65.964844 C 34.066406 -65.867188 37.707031 -70.886719 37.804688 -71.578125 C 37.804688 -71.96875 36.921875 -70.984375 36.921875 -71.085938 C 37.511719 -71.675781 38.496094 -72.167969 38.792969 -72.953125 C 39.480469 -74.925781 37.414062 -75.808594 35.9375 -76.105469 C 32.882812 -76.695312 29.4375 -76.300781 27.46875 -73.742188 C 25.597656 -71.476562 24.21875 -68.820312 23.039062 -66.160156 C 22.449219 -64.980469 21.660156 -64.683594 20.871094 -63.601562 C 19.691406 -61.929688 18.902344 -59.957031 18.015625 -58.089844 C 17.230469 -56.414062 16.441406 -54.640625 15.753906 -52.871094 C 15.359375 -51.984375 15.359375 -51.292969 14.472656 -51 C 13.585938 -50.605469 11.914062 -50.902344 10.929688 -50.800781 C 7.089844 -50.308594 3.347656 -50.507812 -0.492188 -50.113281 C -2.460938 -50.015625 -4.429688 -50.015625 -6.300781 -49.324219 C -6.695312 -49.226562 -8.859375 -48.734375 -9.058594 -48.441406 C -9.648438 -47.355469 -7.285156 -47.257812 -6.792969 -47.160156 C -3.050781 -46.667969 1.671875 -46.273438 5.414062 -46.960938 C 7.976562 -47.457031 10.632812 -47.257812 13.390625 -47.457031 C 12.011719 -44.5 10.929688 -41.351562 9.84375 -38.199219 L 8.664062 -34.753906 C 8.269531 -33.671875 6.992188 -31.605469 6.992188 -30.421875 C 6.992188 -30.226562 7.285156 -30.71875 7.484375 -31.210938 C 6.992188 -29.734375 6.398438 -28.257812 6.003906 -26.78125 C 6.003906 -26.878906 6.300781 -28.058594 6.203125 -28.058594 C 5.710938 -28.058594 3.742188 -22.054688 3.542969 -21.5625 C 2.558594 -18.609375 1.476562 -15.652344 0.984375 -12.503906 C 0.394531 -9.351562 -0.394531 -6.300781 -1.082031 -3.25 C -1.476562 -1.671875 -1.871094 -0.195312 -2.066406 1.378906 C -2.265625 2.164062 -2.460938 3.050781 -2.460938 3.839844 C -2.460938 4.035156 -2.460938 5.316406 -2.265625 4.921875 L -2.460938 6.890625 L -2.460938 5.414062 C -3.050781 6.105469 -2.460938 9.253906 -2.363281 9.84375 C -1.96875 11.816406 -0.984375 13.585938 0.789062 14.769531 C 2.363281 15.949219 4.824219 17.03125 6.695312 16.148438 C 9.15625 14.964844 11.222656 12.207031 12.800781 10.238281 C 16.246094 6.203125 19.394531 1.96875 22.546875 -2.265625 C 25.402344 -6.203125 28.355469 -10.042969 30.816406 -14.175781 C 32.195312 -16.539062 34.851562 -18.707031 35.738281 -21.363281 C 36.230469 -22.644531 35.9375 -24.21875 34.359375 -23.925781 C 33.082031 -23.628906 31.308594 -20.183594 30.519531 -19.199219 C 26.976562 -14.769531 23.628906 -10.238281 20.085938 -5.808594 L 14.375 1.179688 C 13.488281 2.164062 12.601562 3.25 11.617188 4.234375 C 11.222656 4.726562 8.761719 6.695312 8.859375 7.285156 C 8.859375 7.484375 9.945312 6.597656 10.335938 6.300781 C 9.84375 6.890625 9.253906 7.382812 8.761719 7.875 C 8.859375 7.777344 6.792969 8.960938 6.496094 8.761719 C 4.628906 7.976562 6.300781 2.265625 6.597656 0.886719 C 8.367188 -7.089844 11.027344 -15.160156 13.683594 -22.839844 C 15.261719 -27.074219 16.835938 -31.113281 18.609375 -35.246094 C 19.492188 -37.3125 20.378906 -39.480469 21.363281 -41.546875 L 22.742188 -45.289062 L 21.660156 -43.125 C 22.347656 -44.894531 23.332031 -47.554688 23.925781 -47.652344 L 23.628906 -47.0625 C 23.824219 -47.355469 24.023438 -47.554688 24.21875 -47.652344 C 25.304688 -48.339844 28.058594 -47.652344 29.339844 -47.652344 C 30.226562 -47.652344 31.308594 -47.554688 32.195312 -47.847656 C 32.785156 -48.046875 32.589844 -48.339844 33.277344 -48.539062 C 34.460938 -48.734375 35.9375 -47.949219 37.214844 -48.339844 C 38.398438 -48.636719 40.070312 -49.71875 39.972656 -51.097656 Z M 21.265625 -45.484375 C 16.835938 -36.132812 13.488281 -26.089844 9.945312 -16.34375 C 8.269531 -11.914062 6.695312 -7.285156 5.613281 -2.660156 L 5.121094 -0.789062 C 5.808594 -4.332031 6.597656 -7.777344 7.582031 -11.222656 C 9.746094 -18.804688 12.503906 -26.289062 15.753906 -33.472656 C 21.265625 -45.78125 26.1875 -58.972656 34.066406 -70.101562 C 28.75 -62.519531 25.203125 -53.855469 21.265625 -45.484375 Z M 27.765625 -55.234375 L 30.128906 -59.761719 C 29.636719 -59.664062 28.75 -57.496094 27.765625 -55.234375 Z M 17.625 -33.769531 C 16.933594 -31.898438 16.148438 -30.128906 15.359375 -28.355469 C 16.148438 -30.226562 16.835938 -32.195312 17.722656 -34.164062 C 17.625 -33.96875 17.625 -33.867188 17.625 -33.769531 Z M 26.484375 -52.378906 L 27.46875 -54.542969 C 27.171875 -53.757812 26.78125 -52.96875 26.484375 -52.378906 Z M 5.019531 9.648438 C 4.921875 9.648438 4.824219 9.550781 4.726562 9.453125 Z M 5.019531 9.648438 "/></g></g></g><g clip-path="url(#id1)"><path fill="rgb(100%, 100%, 100%)" d="M 372.234375 66.859375 C 371.535156 63.011719 368.210938 60.214844 364.351562 59.339844 C 358.578125 58.117188 347.890625 57.242188 336.332031 57.242188 C 324.777344 57.242188 313.917969 58.117188 308.136719 59.339844 C 304.285156 60.214844 300.957031 62.835938 300.257812 66.859375 C 299.554688 71.230469 298.855469 77.347656 298.855469 85.214844 C 298.855469 93.085938 299.554688 99.203125 300.429688 103.574219 C 301.132812 107.417969 304.457031 110.21875 308.308594 111.09375 C 314.4375 112.316406 324.949219 113.191406 336.507812 113.191406 C 348.070312 113.191406 358.578125 112.316406 364.707031 111.09375 C 368.558594 110.21875 371.882812 107.597656 372.589844 103.574219 C 373.285156 99.203125 374.164062 92.90625 374.339844 85.214844 C 373.984375 77.347656 373.109375 71.230469 372.234375 66.859375 Z M 326.875 97.457031 L 326.875 72.976562 L 348.242188 85.214844 Z M 326.875 97.457031 " fill-opacity="1" fill-rule="nonzero"/></g></svg>