<svg xmlns="http://www.w3.org/2000/svg" xmlns:xlink="http://www.w3.org/1999/xlink" width="40" zoomAndPan="magnify" viewBox="0 0 30 30.000001" height="40" preserveAspectRatio="xMidYMid meet" version="1.0"><defs><clipPath id="id1"><path d="M 0.484375 0 L 29.515625 0 L 29.515625 29.03125 L 0.484375 29.03125 Z M 0.484375 0 " clip-rule="nonzero"/></clipPath></defs><g clip-path="url(#id1)"><path fill="rgb(100%, 100%, 100%)" d="M 8.546875 0 C 4.101562 0 0.484375 3.617188 0.484375 8.066406 L 0.484375 20.96875 C 0.484375 25.414062 4.101562 29.03125 8.546875 29.03125 L 21.453125 29.03125 C 25.898438 29.03125 29.515625 25.414062 29.515625 20.96875 L 29.515625 8.066406 C 29.515625 3.617188 25.898438 0 21.453125 0 Z M 8.546875 3.226562 L 21.453125 3.226562 C 24.121094 3.226562 26.289062 5.398438 26.289062 8.066406 L 26.289062 20.96875 C 26.289062 23.636719 24.121094 25.804688 21.453125 25.804688 L 8.546875 25.804688 C 5.878906 25.804688 3.710938 23.636719 3.710938 20.96875 L 3.710938 8.066406 C 3.710938 5.398438 5.878906 3.226562 8.546875 3.226562 Z M 23.066406 4.839844 C 22.851562 4.839844 22.644531 4.878906 22.449219 4.960938 C 22.25 5.042969 22.074219 5.160156 21.925781 5.3125 C 21.773438 5.460938 21.65625 5.636719 21.574219 5.835938 C 21.492188 6.03125 21.453125 6.238281 21.453125 6.453125 C 21.453125 6.664062 21.492188 6.871094 21.574219 7.070312 C 21.65625 7.265625 21.773438 7.441406 21.925781 7.59375 C 22.074219 7.742188 22.25 7.859375 22.449219 7.941406 C 22.644531 8.023438 22.851562 8.066406 23.066406 8.066406 C 23.277344 8.066406 23.484375 8.023438 23.683594 7.941406 C 23.878906 7.859375 24.054688 7.742188 24.203125 7.59375 C 24.355469 7.441406 24.472656 7.265625 24.554688 7.070312 C 24.636719 6.871094 24.675781 6.664062 24.675781 6.453125 C 24.675781 6.238281 24.636719 6.03125 24.554688 5.835938 C 24.472656 5.636719 24.355469 5.460938 24.203125 5.3125 C 24.054688 5.160156 23.878906 5.042969 23.683594 4.960938 C 23.484375 4.878906 23.277344 4.839844 23.066406 4.839844 Z M 15 6.453125 C 10.554688 6.453125 6.933594 10.070312 6.933594 14.515625 C 6.933594 18.964844 10.554688 22.582031 15 22.582031 C 19.445312 22.582031 23.066406 18.964844 23.066406 14.515625 C 23.066406 10.070312 19.445312 6.453125 15 6.453125 Z M 15 9.675781 C 17.667969 9.675781 19.839844 11.847656 19.839844 14.515625 C 19.839844 17.183594 17.667969 19.355469 15 19.355469 C 12.332031 19.355469 10.160156 17.183594 10.160156 14.515625 C 10.160156 11.847656 12.332031 9.675781 15 9.675781 Z M 15 9.675781 " fill-opacity="1" fill-rule="nonzero"/></g></svg>