<svg xmlns="http://www.w3.org/2000/svg" xmlns:xlink="http://www.w3.org/1999/xlink" width="40" zoomAndPan="magnify" viewBox="0 0 30 30.000001" height="40" preserveAspectRatio="xMidYMid meet" version="1.0"><defs><clipPath id="id1"><path d="M 0.484375 3.71875 L 29.515625 3.71875 L 29.515625 25.492188 L 0.484375 25.492188 Z M 0.484375 3.71875 " clip-rule="nonzero"/></clipPath></defs><g clip-path="url(#id1)"><path fill="rgb(100%, 100%, 100%)" d="M 28.707031 7.472656 C 28.4375 5.980469 27.160156 4.894531 25.675781 4.554688 C 23.453125 4.078125 19.34375 3.738281 14.898438 3.738281 C 10.453125 3.738281 6.277344 4.078125 4.054688 4.554688 C 2.574219 4.894531 1.292969 5.910156 1.023438 7.472656 C 0.753906 9.171875 0.484375 11.550781 0.484375 14.605469 C 0.484375 17.664062 0.753906 20.039062 1.089844 21.738281 C 1.359375 23.234375 2.640625 24.320312 4.121094 24.660156 C 6.476562 25.136719 10.519531 25.476562 14.964844 25.476562 C 19.414062 25.476562 23.453125 25.136719 25.8125 24.660156 C 27.292969 24.320312 28.574219 23.300781 28.84375 21.738281 C 29.113281 20.039062 29.449219 17.59375 29.515625 14.605469 C 29.378906 11.550781 29.042969 9.171875 28.707031 7.472656 Z M 11.261719 19.363281 L 11.261719 9.851562 L 19.480469 14.605469 Z M 11.261719 19.363281 " fill-opacity="1" fill-rule="nonzero"/></g></svg>