<svg xmlns="http://www.w3.org/2000/svg" xmlns:xlink="http://www.w3.org/1999/xlink" width="500" zoomAndPan="magnify" viewBox="0 0 375 118.499997" height="158" preserveAspectRatio="xMidYMid meet" version="1.0"><defs><g/></defs><g fill="rgb(100%, 100%, 100%)" fill-opacity="1"><g transform="translate(105.796323, 75.1637)"><g><path d="M 3.601562 -27.550781 C 3.691406 -27.550781 3.691406 -27.730469 3.78125 -27.820312 C 3.511719 -26.558594 3.332031 -25.390625 3.152344 -24.128906 C 3.0625 -24.21875 3.242188 -25.300781 3.152344 -25.300781 C 2.25 -25.207031 2.25 -20.527344 2.160156 -19.988281 C 1.980469 -17.195312 2.429688 -14.675781 4.230469 -12.515625 C 6.210938 -10.171875 9.8125 -7.5625 12.785156 -6.84375 C 15.035156 -6.300781 19.085938 -7.742188 19.625 -10.355469 C 19.535156 -10.445312 19.445312 -10.445312 19.355469 -10.445312 C 19.625 -10.714844 19.988281 -10.984375 20.257812 -11.34375 L 19.808594 -10.625 C 20.4375 -10.625 20.976562 -12.0625 21.335938 -12.515625 C 22.058594 -13.503906 22.867188 -14.316406 23.769531 -15.125 C 26.019531 -17.464844 28 -19.988281 29.890625 -22.597656 C 34.03125 -28.628906 37.722656 -34.933594 41.503906 -41.234375 C 34.933594 -21.609375 28.359375 -1.980469 18.90625 16.476562 C 17.285156 19.535156 15.664062 23.136719 13.144531 25.570312 C 11.34375 27.28125 7.921875 28.449219 6.84375 25.390625 C 5.851562 22.867188 7.113281 19.445312 7.921875 17.015625 C 9.273438 13.144531 11.074219 9.453125 13.234375 6.03125 C 14.136719 4.5 15.125 3.0625 16.207031 1.710938 C 16.65625 1.082031 18.277344 -0.449219 18.097656 -1.351562 C 17.734375 -3.691406 11.703125 2.699219 10.984375 3.332031 C 5.132812 8.644531 -2.789062 17.375 0.992188 25.929688 C 3.871094 32.230469 14.046875 36.734375 19.085938 30.519531 C 25.480469 22.6875 29.800781 12.785156 33.941406 3.691406 C 36.371094 -1.441406 37.992188 -6.84375 40.152344 -12.0625 L 46.996094 -29.082031 C 48.167969 -31.960938 49.246094 -34.84375 50.417969 -37.632812 C 51.40625 -40.152344 51.949219 -42.675781 52.757812 -45.285156 C 53.929688 -48.886719 58.160156 -53.296875 57.351562 -57.261719 L 57.261719 -57.351562 C 57.261719 -57.351562 57.261719 -57.441406 57.171875 -57.53125 L 57.261719 -57.53125 C 57.171875 -57.53125 57.171875 -57.621094 57.171875 -57.710938 C 57.082031 -57.800781 57.082031 -57.890625 57.082031 -57.890625 C 56.089844 -60.140625 53.117188 -62.480469 50.867188 -62.480469 C 48.976562 -62.480469 48.527344 -61.3125 47.71875 -59.871094 C 46.636719 -57.890625 45.285156 -56 44.027344 -54.109375 L 35.832031 -41.234375 C 34.84375 -39.703125 33.851562 -38.171875 32.679688 -36.734375 C 32.230469 -36.101562 30.519531 -34.390625 30.882812 -33.402344 C 30.882812 -33.3125 32.050781 -34.570312 32.140625 -34.664062 C 28 -28.71875 23.136719 -23.316406 18.457031 -17.828125 C 17.105469 -16.207031 15.304688 -13.683594 13.234375 -13.054688 C 10.355469 -12.246094 10.984375 -16.386719 11.164062 -18.007812 C 12.152344 -26.019531 14.226562 -33.761719 17.105469 -41.234375 C 17.375 -42.042969 20.347656 -50.417969 20.886719 -50.777344 C 20.707031 -50.6875 20.617188 -50.597656 20.4375 -50.328125 C 21.789062 -53.296875 23.410156 -56.089844 25.117188 -58.878906 C 25.027344 -58.609375 23.949219 -56.449219 23.949219 -56.449219 C 24.398438 -56.269531 27.371094 -60.863281 27.371094 -61.582031 C 27.371094 -61.671875 27.097656 -61.492188 26.917969 -61.3125 C 28 -63.023438 28 -64.191406 26.828125 -66.171875 C 25.570312 -67.792969 23.226562 -69.773438 21.066406 -68.875 C 19.085938 -68.152344 17.917969 -64.914062 17.105469 -63.113281 C 16.566406 -61.941406 16.207031 -60.589844 15.484375 -59.601562 C 14.765625 -58.519531 13.863281 -57.710938 13.234375 -56.539062 C 10.804688 -51.679688 8.914062 -46.367188 7.113281 -41.234375 C 6.121094 -38.445312 5.402344 -35.5625 4.683594 -32.679688 C 4.410156 -31.511719 4.410156 -29.261719 3.871094 -28.089844 L 3.871094 -28.179688 Z M 9.363281 -42.40625 C 10.804688 -46.457031 12.335938 -50.058594 14.136719 -54.109375 C 15.753906 -57.710938 18.367188 -61.402344 20.347656 -65.003906 C 17.285156 -59.242188 16.117188 -57.710938 13.59375 -50.867188 C 13.683594 -50.867188 10.625 -45.375 10.625 -45.375 C 10.261719 -44.386719 9.722656 -43.394531 9.363281 -42.40625 Z M 31.242188 3.691406 C 32.5 0.808594 32.679688 -0.808594 33.851562 -3.78125 C 34.210938 -4.773438 35.742188 -7.113281 36.28125 -8.101562 C 34.664062 -4.140625 33.042969 -0.269531 31.242188 3.691406 Z M 57.351562 -57.261719 L 57.261719 -57.351562 L 57.351562 -57.351562 Z M 57.351562 -57.261719 "/></g></g></g><g fill="rgb(100%, 100%, 100%)" fill-opacity="1"><g transform="translate(155.40371, 75.1637)"><g><path d="M 41.414062 -22.417969 C 41.414062 -22.417969 41.503906 -22.328125 41.414062 -22.507812 C 40.964844 -23.136719 40.335938 -22.6875 39.703125 -22.507812 C 37.09375 -21.96875 34.390625 -21.335938 31.691406 -20.886719 C 32.679688 -24.128906 33.671875 -27.550781 34.03125 -30.882812 C 34.210938 -32.140625 34.300781 -33.492188 34.03125 -34.753906 C 33.851562 -35.5625 33.582031 -36.371094 33.132812 -37.09375 C 33.132812 -37.09375 32.050781 -38.445312 32.320312 -37.722656 L 32.230469 -37.8125 L 31.871094 -38.535156 L 32.230469 -38.171875 C 32.320312 -38.714844 30.789062 -39.703125 30.789062 -39.703125 C 28.539062 -41.953125 25.480469 -43.664062 22.417969 -41.953125 C 20.527344 -40.875 18.996094 -39.074219 17.734375 -37.273438 C 17.285156 -36.644531 16.835938 -35.921875 16.476562 -35.203125 C 16.117188 -34.480469 15.574219 -32.140625 15.035156 -31.78125 C 14.585938 -31.421875 13.234375 -31.332031 12.605469 -30.972656 C 11.703125 -30.609375 10.894531 -30.160156 10.171875 -29.621094 C 8.464844 -28.539062 7.113281 -27.007812 5.851562 -25.480469 C 3.691406 -22.597656 2.609375 -19.355469 1.082031 -16.476562 C -1.800781 -10.984375 1.351562 -3.78125 6.664062 -1.171875 C 8.371094 -0.359375 10.355469 0 12.152344 -0.179688 C 14.046875 -0.449219 15.84375 -1.441406 17.285156 -2.519531 C 18.636719 -3.511719 21.609375 -5.3125 22.148438 -6.84375 C 22.148438 -6.933594 21.96875 -6.84375 21.699219 -6.574219 L 24.308594 -9.632812 C 24.398438 -9.542969 23.679688 -8.644531 23.679688 -8.644531 C 24.308594 -8.371094 27.550781 -13.144531 27.910156 -13.503906 C 28.539062 -14.585938 29.171875 -15.753906 29.890625 -16.835938 C 30.519531 -17.644531 30.339844 -17.554688 31.242188 -17.917969 C 31.152344 -17.828125 32.320312 -18.1875 32.5 -18.1875 C 33.492188 -18.367188 44.027344 -19.085938 41.414062 -22.417969 Z M 10.261719 -4.230469 L 10.171875 -4.230469 C 2.699219 -3.152344 11.34375 -18.996094 11.523438 -19.898438 L 10.984375 -19.085938 C 12.335938 -21.789062 13.59375 -23.949219 14.226562 -24.667969 C 15.214844 -20.167969 20.078125 -18.457031 24.039062 -17.917969 C 21.425781 -12.695312 16.566406 -5.402344 10.261719 -4.230469 Z M 28 -29.171875 C 27.371094 -26.648438 26.828125 -23.316406 25.480469 -21.066406 C 25.027344 -20.167969 25.300781 -20.4375 24.398438 -20.257812 C 23.859375 -20.078125 22.6875 -20.257812 22.148438 -20.347656 C 21.15625 -20.4375 19.988281 -20.617188 19.265625 -21.246094 C 18.007812 -22.328125 18.1875 -24.039062 18.367188 -25.570312 C 18.546875 -27.097656 18.996094 -28.539062 19.535156 -29.980469 C 19.808594 -30.519531 21.515625 -33.402344 21.246094 -33.941406 C 21.15625 -34.210938 20.167969 -32.589844 20.078125 -32.5 C 20.617188 -33.492188 21.15625 -34.03125 21.609375 -34.664062 C 21.515625 -34.664062 21.609375 -34.753906 21.699219 -34.933594 L 21.699219 -34.84375 L 21.789062 -35.023438 C 21.789062 -35.023438 21.789062 -35.113281 21.878906 -35.113281 C 23.226562 -36.914062 26.558594 -40.964844 28.359375 -38.171875 C 29.710938 -35.832031 28.449219 -31.421875 28 -29.171875 Z M 21.789062 -35.023438 L 21.878906 -35.113281 C 21.878906 -35.023438 21.789062 -35.023438 21.789062 -35.023438 Z M 21.789062 -35.023438 "/></g></g></g><g fill="rgb(100%, 100%, 100%)" fill-opacity="1"><g transform="translate(190.606038, 75.1637)"><g><path d="M 45.917969 -21.609375 C 45.554688 -24.21875 42.945312 -21.609375 42.136719 -20.886719 C 40.605469 -19.71875 38.984375 -18.726562 37.453125 -17.554688 C 35.382812 -16.117188 33.402344 -14.496094 31.421875 -12.875 C 30.609375 -12.246094 25.660156 -7.652344 25.207031 -7.921875 C 26.648438 -12.425781 29.171875 -16.925781 31.601562 -21.15625 C 33.851562 -24.9375 29.261719 -28.179688 25.570312 -26.558594 C 24.488281 -26.109375 23.316406 -24.128906 22.597656 -23.136719 C 20.886719 -20.707031 19.265625 -18.097656 17.554688 -15.664062 L 15.125 -11.972656 C 14.855469 -11.613281 13.144531 -9.09375 13.414062 -9.09375 C 13.503906 -9.09375 13.59375 -9.183594 13.683594 -9.273438 C 11.882812 -6.84375 9.273438 -3.78125 6.933594 -2.070312 C 3.691406 0.449219 5.582031 -7.113281 6.03125 -8.371094 C 7.382812 -12.425781 9.632812 -16.296875 12.0625 -19.808594 C 12.425781 -20.347656 17.375 -26.648438 18.996094 -28.179688 C 17.375 -26.828125 12.515625 -20.796875 11.703125 -19.808594 C 14.585938 -23.949219 19.175781 -30.519531 24.578125 -31.421875 L 23.410156 -30.972656 C 24.488281 -31.152344 26.917969 -31.0625 26.917969 -31.0625 L 26.648438 -31.332031 C 27.097656 -31.0625 27.371094 -30.699219 27.910156 -30.699219 C 30.160156 -30.789062 29.621094 -34.390625 28.628906 -35.472656 C 27.28125 -37.273438 24.039062 -37.992188 21.878906 -37.453125 C 21.246094 -37.273438 20.976562 -36.914062 20.257812 -36.824219 C 19.445312 -36.644531 18.816406 -36.824219 17.828125 -36.28125 C 16.027344 -35.382812 14.496094 -34.121094 13.054688 -32.679688 C 12.152344 -31.871094 3.511719 -22.597656 4.140625 -22.238281 C 4.320312 -22.238281 4.5 -22.417969 4.589844 -22.507812 L 3.0625 -20.257812 C 2.972656 -20.347656 3.421875 -20.976562 3.332031 -20.976562 C 2.972656 -21.15625 1.171875 -18.1875 1.082031 -17.917969 C 0.179688 -16.476562 -0.539062 -14.855469 -0.808594 -13.144531 C -1.171875 -11.253906 -1.261719 -9.183594 -1.261719 -7.292969 C -1.261719 -6.03125 -1.171875 -4.773438 -0.808594 -3.601562 C -0.71875 -3.421875 0.359375 -1.351562 0.179688 -2.25 L 0.449219 -1.621094 C 0.359375 -1.621094 0.269531 -1.710938 0.179688 -1.800781 C -0.179688 -1.171875 3.242188 1.890625 3.871094 2.160156 C 5.222656 2.789062 6.480469 2.429688 7.832031 1.621094 C 10.804688 -0.179688 12.875 -3.601562 14.945312 -6.480469 C 17.195312 -9.542969 19.71875 -12.695312 21.609375 -16.117188 L 19.625 -9.09375 C 18.816406 -6.480469 18.367188 -2.609375 16.746094 -0.539062 C 15.035156 1.53125 12.515625 3.332031 10.625 5.132812 C 8.644531 6.933594 6.664062 8.734375 4.863281 10.804688 C 2.25 13.773438 -0.179688 17.015625 -2.429688 20.257812 C -5.042969 24.039062 -6.84375 28.089844 -5.042969 32.5 C -3.421875 36.371094 0.269531 39.972656 4.773438 38.894531 C 8.644531 37.902344 10.082031 34.664062 11.792969 31.601562 C 17.195312 22.238281 19.898438 11.433594 22.957031 1.082031 C 23.410156 -0.449219 23.679688 -1.980469 24.757812 -3.152344 C 25.839844 -4.230469 27.191406 -5.222656 28.449219 -6.210938 C 30.972656 -8.464844 33.582031 -10.535156 36.28125 -12.695312 L 43.574219 -18.277344 C 44.746094 -19.175781 46.277344 -19.898438 45.917969 -21.609375 Z M 14.046875 9.003906 C 14.046875 8.914062 13.59375 10.171875 13.683594 9.992188 C 11.792969 15.484375 9.992188 20.976562 7.472656 26.199219 C 6.210938 28.808594 0.269531 39.613281 -1.890625 31.691406 C -3.332031 26.648438 1.53125 20.886719 4.320312 17.195312 C 7.742188 12.785156 11.253906 8.824219 15.304688 5.042969 C 14.945312 6.390625 14.496094 7.742188 14.046875 9.003906 Z M 13.683594 15.304688 C 13.144531 17.285156 12.515625 19.265625 11.703125 21.15625 C 10.894531 22.6875 9.8125 24.039062 9.003906 25.480469 C 10.625 21.96875 12.335938 18.636719 13.683594 15.035156 Z M 9.183594 -18.007812 C 8.644531 -17.015625 7.832031 -16.117188 7.113281 -15.125 C 7.832031 -16.746094 8.554688 -18.1875 9.902344 -19.625 C 10.171875 -19.898438 10.625 -20.347656 10.894531 -20.796875 Z M 9.09375 -15.664062 L 8.28125 -14.496094 C 8.824219 -15.484375 9.453125 -16.476562 10.171875 -17.464844 Z M 9.09375 -15.664062 "/></g></g></g><g fill="rgb(100%, 100%, 100%)" fill-opacity="1"><g transform="translate(229.949826, 75.1637)"><g><path d="M 45.824219 -21.699219 C 45.734375 -23.679688 44.117188 -21.96875 43.574219 -21.246094 C 42.40625 -19.535156 41.324219 -17.734375 40.246094 -16.027344 C 37.8125 -12.335938 35.382812 -8.644531 32.589844 -5.132812 C 23.316406 6.300781 29.800781 -14.046875 29.082031 -13.863281 C 28.71875 -13.773438 28.449219 -12.425781 28.359375 -12.152344 C 29.082031 -15.394531 30.429688 -19.265625 32.140625 -22.417969 C 33.132812 -24.398438 34.300781 -26.019531 32.5 -28.179688 C 29.171875 -32.230469 25.300781 -28.539062 23.136719 -25.75 C 22.238281 -29.171875 20.4375 -34.210938 16.027344 -34.210938 C 14.046875 -34.210938 12.875 -33.222656 11.523438 -32.050781 C 10.714844 -31.511719 10.082031 -31.421875 9.363281 -30.789062 C 8.191406 -29.980469 7.382812 -28.71875 6.574219 -27.640625 C 3.511719 -23.136719 1.351562 -17.464844 0.359375 -12.246094 C -0.0898438 -9.722656 -0.269531 -6.933594 0.449219 -4.410156 C 0.898438 -2.972656 2.519531 0.269531 4.589844 0 C 4.683594 0 4.5 -0.0898438 4.230469 -0.269531 C 5.492188 0.0898438 6.933594 -0.0898438 8.011719 -0.808594 C 8.101562 -0.628906 7.023438 -0.179688 7.023438 -0.179688 C 8.011719 1.351562 15.394531 -7.5625 15.9375 -8.371094 C 17.105469 -9.992188 17.917969 -11.703125 18.996094 -13.414062 C 19.808594 -14.675781 21.066406 -16.296875 21.96875 -17.644531 C 21.878906 -17.015625 21.878906 -16.207031 21.878906 -16.207031 C 20.257812 -11.074219 18.726562 -5.492188 20.886719 -0.179688 C 21.878906 2.519531 24.308594 5.042969 27.371094 4.5 C 30.070312 4.050781 32.320312 1.441406 33.941406 -0.628906 C 35.921875 -2.972656 37.632812 -5.582031 39.34375 -8.28125 C 40.785156 -10.714844 42.136719 -13.144531 43.304688 -15.84375 C 44.027344 -17.554688 46.007812 -19.625 45.824219 -21.699219 Z M 19.988281 -21.066406 C 19.535156 -20.4375 19.085938 -19.808594 18.726562 -19.175781 L 16.386719 -15.84375 C 14.855469 -13.59375 13.234375 -11.433594 11.523438 -9.363281 C 11.074219 -8.734375 8.914062 -5.941406 8.011719 -6.210938 C 6.664062 -6.664062 8.101562 -11.34375 8.28125 -12.0625 C 8.554688 -13.324219 13.324219 -27.191406 14.585938 -27.460938 C 12.964844 -27.550781 7.742188 -11.253906 7.472656 -9.902344 C 8.191406 -14.316406 9.8125 -18.636719 11.613281 -22.6875 C 12.605469 -24.757812 14.855469 -30.25 17.828125 -30.25 C 19.445312 -30.25 19.808594 -26.917969 20.078125 -25.839844 C 19.988281 -26.019531 19.175781 -28.628906 19.085938 -28.539062 C 18.636719 -28.179688 20.4375 -23.226562 20.4375 -22.507812 C 20.4375 -21.789062 20.4375 -21.789062 19.988281 -21.066406 Z M 22.058594 -16.65625 C 22.058594 -16.65625 22.328125 -17.917969 22.417969 -18.1875 L 22.867188 -18.816406 Z M 20.707031 -22.238281 L 20.707031 -23.136719 C 20.976562 -22.777344 20.976562 -22.507812 20.707031 -22.238281 Z M 20.707031 -22.238281 "/></g></g></g></svg>